<svg xmlns="http://www.w3.org/2000/svg" width="5000" height="3500" xml:space="preserve">
	<switch>
		<g>
			<path fill="transparent" d="M0 0h5000v3500H0z"></path>
			<g fill="#E0F1F0">
				<path d="M3675.216 405.816v481.102c0 7.832-9.469 11.755-15.008 6.217l-345.656-345.647c-11.843-11.843-10.908-31.38 2.108-41.92 90.905-73.612 204.49-120.316 328.639-127.998 16.233-1.005 29.917 11.982 29.917 28.246zM4048.009 546.799l-344.784 344.775c-5.538 5.538-15.008 1.616-15.008-6.217V405.821c0-16.294 13.732-29.256 29.995-28.247 66.849 4.145 130.636 19.605 189.465 44.488 49.973 21.141 96.368 49.075 138.029 82.656 13.117 10.574 14.217 30.167 2.303 42.081zM4229.579 915.522H3718.89c-7.833 0-11.755-9.47-6.217-15.008l346.701-346.702c11.228-11.228 29.399-11.03 40.416.403 84.602 87.795 141.796 202.17 157.846 329.366 2.138 16.94-10.984 31.941-28.057 31.941zM3642.981 915.522h-509.138c-17.071 0-30.196-14.998-28.059-31.935 15.997-126.799 72.884-240.86 157.05-328.547 11.015-11.475 29.203-11.686 40.451-.439l345.913 345.913c5.538 5.539 1.615 15.008-6.217 15.008zM3675.216 955.605V2716.09c0 17.371-14.082 31.452-31.452 31.452h-511.115c-17.371 0-31.453-14.082-31.453-31.452V956.676c.004-15.55 12.61-28.154 28.16-28.154h518.778c14.957 0 27.082 12.125 27.082 27.083zM4262.226 956.962V2716.09c0 17.371-14.082 31.452-31.453 31.452h-511.104c-17.371 0-31.453-14.082-31.453-31.452V955.605c0-14.957 12.125-27.082 27.083-27.082h518.767c15.55 0 28.156 12.604 28.16 28.154v.285z"></path>
			</g>
			<g stroke="#573240" stroke-width="5" stroke-linecap="round" stroke-miterlimit="10">
				<path fill="none" d="m1979.067 3172.792 115.339-677.407c8.564-50.298 42.9-86.105 82.568-86.105h388.951c39.668 0 74.004 35.807 82.568 86.105l115.339 677.407"></path>
				<path fill="#FFF" d="M2179.276 2408.722c-41.25-4.01-77.77-29.4-95.71-67.38l-79.38-168.06c-19.09-40.4 10.39-86.92 55.07-86.92h4.8c26.07 0 46.26-22.84 43.05-48.72l-22.18-186.91c-6.27-52.83 35-99.29 88.21-99.29h405.74c53.21 0 94.48 46.46 88.21 99.29l-22.18 186.91c-3.2 25.88 16.98 48.72 43.06 48.72h4.79c44.69 0 74.16 46.52 55.08 86.92l-79.39 168.06c-17.94 37.98-54.46 63.37-95.7 67.38h-393.47z"></path>
			</g>
			<path fill="#B2DDDA" d="M2621.256 1540.992c12.43 9.24 29.78 15.6 53.95 15.95l27 159.22c6.92 40.76-17.63 80.271-57.22 92.14l-20.54 6.16-24.35 147.13 246.234 98.785-11.244 310.355h-467.41c-241.88 0-182.4-314.11-47.54-380.72l10-457 291.12 7.98z"></path>
			<path fill="#F1B104" d="M2818.634 2056.626c97.548 0 131.572 126.276-3.889 448.589-146.065 347.542-237.852 539.833-156.23 667.575h-75.351c-41.614 0-75.045-34.298-73.969-75.898 1.739-67.228 3.96-160.173 3.96-196.507 0-59.724 9.848-843.759 305.479-843.759z"></path>
			<path fill="#FF6E00" d="M2658.515 3175.789h-75.351a3 3 0 1 1 0-6h75.351a3 3 0 1 1 0 6zM2630.676 3016.872c-.59 4.84-1.09 9.62-1.49 14.33h-118.35c.1-4.18.19-8.37.29-12.53.01-.6.03-1.2.04-1.8h119.51zM2530.676 3150.952c25.16-18.96 83.33-25.95 108.04-19.73-2.38-7.13-4.34-14.44-5.91-21.95-44.17-11.24-94.66-1.24-121.79 6.06 0 0 4.144 23.666 19.66 35.62z"></path>
			<path fill="#F1B104" d="M2396.064 3016.873s-188.463-960.247 163.244-960.247c273.834 0-53.537 772.422-47.692 962.21 3.373 109.51 70.254 153.954 70.254 153.954h-109.775a33.308 33.308 0 0 1-31.595-22.764l-44.436-133.153z"></path>
			<path fill="#FF6E00" d="M2584.87 3172.79c0 1.66-1.34 3-3 3h-109.78a36.27 36.27 0 0 1-34.44-24.82l-24.78-74.25v88.04c0 4.44-3.59 8.03-8.02 8.03h-43.39c-4.06 0-7.46-3.03-7.97-7.06-12.81-101.32 42.57-148.86 42.57-148.86h115.77l1 14.34h-108.82l38.89 116.54c9.37-8.54 45.29-38.24 90.35-37.26 5.39 11.14 11.27 21.64 17.03 29.6-.86.05-1.72.12-2.58.22-27.71 3.06-50.45 17.02-65.7 29.48h99.87c1.66 0 3 1.34 3 3z"></path>
			<path fill="none" stroke="#573240" stroke-width="5" stroke-linecap="round" stroke-miterlimit="10" d="M2665.557 2155.282c23.725 226.14-161.325 721.213-156.941 863.554 3.373 109.51 74.254 154.954 74.254 154.954"></path>
			<path fill="#FCD4D0" d="M2782.786 1990.598h-292.645l197-463.851h292.645z"></path>
			<path fill="#F6ACC1" d="M3075.786 1990.598h-292.645l197-463.851h292.645z"></path>
			<path fill="none" stroke="#FFF" stroke-width="5" stroke-linecap="round" stroke-miterlimit="10" d="m2980.786 1525.747-198 464.851h-292.645l198-464.851M2991.744 1668.092h147.318M2981.744 1699.092h147.318"></path>
			<path fill="#F1B104" d="M2335.523 1533.007c-31.093 0-58.462 20.5-67.206 50.338l-78.593 268.201c-20.363 69.489 31.74 139.052 104.152 139.052a108.53 108.53 0 0 0 83.549-39.26l151.196-182.36a92.694 92.694 0 0 1 71.358-33.531h47.128a58.768 58.768 0 0 0 50.482-28.68l38.144-63.998c1.977-3.317-.413-7.525-4.275-7.525h-81.069c-6.36 0-10.644-6.506-8.131-12.349l3.74-8.694h-76.948a129.9 129.9 0 0 0-77.663 25.772l-99.537 74.238 13.132-102.252c5.38-41.874-27.241-78.952-69.459-78.952z"></path>
			<path fill="none" stroke="#573240" stroke-width="5" stroke-linecap="round" stroke-miterlimit="10" d="M2621.98 1710.447h47.128a58.723 58.723 0 0 0 26.658-6.394M2631.98 1686.447h51.128a58.723 58.723 0 0 0 26.658-6.394M2640.98 1662.447h57.128a58.723 58.723 0 0 0 26.658-6.394M2408.156 1702.053l-102.572 65.91"></path>
			<path fill="#FF6E00" d="M2350.74 1534.67a69.87 69.87 0 0 0-15.22-1.66c-31.09 0-58.46 20.5-67.2 50.34l-48.42 165.22c-53.97-13.91-109.06-40.93-116.76-93.42-18.63-127.04 120.82-120.08 169.26-136.01 48.45-15.92 30.77-59.77 68-96.22 43.85-42.93 103.56-16.41 137.06-30.21 33.84-13.93 38.76-58.85 75.68-67.7 27.36-6.56 48.32 6.44 61.36 18.99 5.55-3.04 11.97-4.78 18.81-4.78 21.03 0 38.07 16.42 38.07 36.68 0 19.47-15.74 35.41-35.64 36.61 1.29 80.8 81.78 99.55 39.47 144.43-84.11-.32-116.39-94.92-121.22-119.23-5.69 39.84-22.46 92.63-70.61 109.22-43.75 15.08-87.55 4.78-117.05-6.81l-15.59-5.45z"></path>
			<path fill="#F1B104" d="M2621.26 1540.99c.06 1.15.1 2.3.1 3.45 0 32.99-26.48 60.3-59.88 60.9l-56.72 1.01c-30.68.55-56.92-21.77-61.4-52.01 13.06-.53 26.54-2.76 40.02-7.41 42.1-14.5 60.21-56.68 67.9-93.67l.12-.59a250.69 250.69 0 0 0 3.07-18.42l-16.35-3.16c-11.36-2.2-18.7-13.29-16.28-24.6l.66-3.09c2.35-10.99 13.07-18.09 24.11-15.96l12.07 3.33 6.84 3.17c7.46 2.6 19.14 4.98 33.15 1.99 14.99-3.2 28.74-13.62 31.14-32.29 4.45 6.27 6.55 15.98 6.55 26.95 0 32.08-8.93 78.51-33.49 78.51-4.14 0-8.44-.53-12.72-1.42-.34 10.07.33 50.47 31.11 73.31z"></path>
			<path fill="none" stroke="#573240" stroke-width="5" stroke-linecap="round" stroke-miterlimit="10" d="M2589.156 1469.254c-33.618-6.986-35.387-32.553-35.387-32.553"></path>
			<path fill="none" stroke="#573240" stroke-width="4" stroke-linecap="round" stroke-miterlimit="10" d="M2611.159 1442.552c-13.08.141-15.907-7.368-15.907-7.368l-4.156 1.812M2636.167 1398.908c-2.873-3.127-9.397-2.988-14.018-.656-9.17 4.629-10.17 31.393-10.17 31.393"></path>
			<ellipse transform="rotate(-86.767 2625.699 1414.51)" fill="#573240" cx="2625.622" cy="1414.512" rx="4.915" ry="3.077"></ellipse>
			<ellipse transform="rotate(-86.767 2590.273 1412.567)" fill="#573240" cx="2590.197" cy="1412.568" rx="4.915" ry="3.077"></ellipse>
			<path fill="none" stroke="#573240" stroke-width="5" stroke-linecap="round" stroke-miterlimit="10" d="M2553.686 1411.572c.796-7.031-4.207-13.396-11.227-14.282"></path>
			<circle fill="#FFF" cx="2546.761" cy="1439.052" r="10.247"></circle>
			<g fill="none" stroke-width="5" stroke-miterlimit="10">
				<g stroke="#F1B104">
					<path d="M2529.25 1990.839c-61.834 0-115.357 55.431-128.707 133.294l-179.791 1048.658M3292.342 1990.062c61.927 0 115.53 55.514 128.9 133.495l180.061 1050.235"></path>
				</g>
				<path stroke="#573240" stroke-linecap="round" d="M2171.2 1990.839h1479.656"></path>
			</g>
			<g fill="none" stroke="#573240" stroke-width="5" stroke-linecap="round" stroke-miterlimit="10">
				<path d="M2610.355 328.664v233.902c0 82.801 67.124 149.925 149.925 149.925h0c59.984 0 111.741-35.227 135.71-86.122M2609.666 317.523v245.043c0 82.801-67.124 149.925-149.925 149.925h0c-59.984 0-111.741-35.227-135.71-86.122"></path>
			</g>
			<path fill="none" stroke="#573240" stroke-width="5" stroke-linecap="round" stroke-miterlimit="10" d="M2752.988 623.06c-7.36 64.788-68.564 115.346-142.977 115.346-73.91 0-134.789-49.876-142.821-114.033"></path>
			<circle fill="#F1B104" cx="2320.979" cy="595.006" r="13.926"></circle>
			<circle fill="#F1B104" cx="2465.813" cy="595.006" r="13.926"></circle>
			<circle fill="#F1B104" cx="2754.366" cy="595.006" r="13.926"></circle>
			<circle fill="#F1B104" cx="2507.034" cy="740.954" r="13.926"></circle>
			<circle fill="#F1B104" cx="2714.258" cy="740.954" r="13.926"></circle>
			<circle fill="none" stroke="#573240" stroke-width="5" stroke-linecap="round" stroke-miterlimit="10" cx="2609.532" cy="753.209" r="13.926"></circle>
			<circle fill="#FFF" stroke="#573240" stroke-width="5" stroke-linecap="round" stroke-miterlimit="10" cx="2609.532" cy="372.185" r="13.926"></circle>
			<circle fill="#F1B104" cx="2900.313" cy="595.006" r="13.926"></circle>
			<g fill="#96CFCE">
				<path d="M625.843 2265.111s-24.249-79.481-119.639-94.792c0 0 7.908 80.075 73.403 94.792h46.236zM766.693 2264.88s42.494-64.459 128.112-69.904c0 0-15.411 46.329-54.785 69.904h-73.327zM668.292 2264.88s-121.293-92.28-118.589-285.706c0 0 183.303 121.529 171.438 285.706h-52.849z"></path>
				<path d="M738.519 2264.88s-2.085-129.024 140.206-182.776c0 0-13.264 106.627-112.031 182.776h-28.175zM699.1 2070.027s-4.153-50.987 103.577-76.341c0 0-1.525 92.58-103.577 129.299v-52.958z"></path>
			</g>
			<g fill="none" stroke="#573240" stroke-width="4" stroke-linecap="round" stroke-miterlimit="10">
				<circle cx="886.528" cy="2166.005" r="13.761"></circle>
				<circle cx="533.238" cy="2233.692" r="13.761"></circle>
				<circle cx="800.319" cy="2021.265" r="10"></circle>
			</g>
			<path fill="none" stroke="#F1B104" stroke-width="4" stroke-miterlimit="10" d="M699.006 2263.113v-196.755"></path>
			<circle fill="#F1B104" cx="699.1" cy="2022.783" r="49.245"></circle>
			<path fill="none" stroke="#573240" stroke-width="5" stroke-linecap="round" stroke-miterlimit="10" d="M705.942 2022.105c-14.501 3.543-29.129-5.34-32.672-19.841-2.835-11.601 4.272-23.303 15.872-26.138 9.281-2.268 18.642 3.417 20.91 12.698 1.814 7.425-2.734 14.914-10.158 16.728-5.94 1.451-11.931-2.187-13.383-8.127a8.857 8.857 0 0 1 6.501-10.706M699.1 2070.027s0-44.079 46.975-44.079"></path>
			<path fill="none" stroke="#573240" stroke-width="4" stroke-linecap="round" stroke-miterlimit="10" d="M791.556 2189.854c-4.913 5.442-12.373 10.424-21.218 13.657-13.786 5.055-26.865 4.349-33.229-1.01-6.95-4.573-11.355-16.907-10.439-31.562.558-9.069 3.044-17.367 6.645-23.562"></path>
			<path fill="none" stroke="#573240" stroke-width="4" stroke-linecap="round" stroke-miterlimit="10" d="M762.699 2161.022s-34.036 25.155-34.036 102.091"></path>
			<circle fill="#FF6E00" cx="733.935" cy="2139.073" r="11.538"></circle>
			<circle fill="#FF6E00" cx="767.166" cy="2153.842" r="12"></circle>
			<circle fill="#FF6E00" cx="795.781" cy="2182.457" r="11.538"></circle>
			<path fill="none" stroke="#573240" stroke-width="5" stroke-linecap="round" stroke-miterlimit="10" d="M581.156 2067.053c6.918 4.894 13.427 14.726 17.062 26.987 4.698 15.85 3.428 31.822-2.835 38.651-4.62 6.353-12.912 11.531-22.93 15.622-9.973 4.073-19.903 5.34-27.609 4.058"></path>
			<path fill="none" stroke="#573240" stroke-width="5" stroke-linecap="round" stroke-miterlimit="10" d="M553.41 2106.727s97.817 31.009 104.481 156.105"></path>
			<circle fill="#FF6E00" cx="536.887" cy="2148.976" r="12.5"></circle>
			<circle fill="#FF6E00" cx="542.407" cy="2101.091" r="13"></circle>
			<circle fill="#FF6E00" cx="580.518" cy="2067.053" r="12.5"></circle>
			<circle fill="#F1B104" cx="642.297" cy="2218.744" r="49.245"></circle>
			<path fill="none" stroke="#573240" stroke-width="5" stroke-linecap="round" stroke-miterlimit="10" d="M649.139 2218.066c-14.501 3.543-29.129-5.34-32.672-19.841-2.835-11.601 4.272-23.303 15.872-26.138 9.281-2.268 18.642 3.417 20.91 12.698 1.814 7.424-2.734 14.914-10.158 16.728-5.94 1.451-11.931-2.187-13.383-8.127a8.857 8.857 0 0 1 6.501-10.706"></path>
			<g fill="#E0F1F0">
				<path d="M823.529 3182.477H566.364c-6.582 0-11.918-5.336-11.918-11.917v-2.472c0-6.582 5.336-11.917 11.918-11.917h257.165c6.582 0 11.917 5.336 11.917 11.917v2.472c0 6.581-5.335 11.917-11.917 11.917zM590.965 3140.628c0-38.104 32.063-68.994 71.616-68.994h64.732c39.552 0 71.616 30.89 71.616 68.994H590.965zM919.763 2680.503c0 129.056-26.259 245.521-68.41 328.095-15.454 30.273-52.365 49.995-93.253 49.995H639.793c-40.887 0-77.799-19.721-93.253-49.995-42.151-82.574-68.411-199.039-68.411-328.095 0-130.447 26.823-248.031 69.778-330.751 15.607-30.055 52.356-49.601 93.05-49.601H756.93c40.695 0 77.445 19.546 93.051 49.603 42.95 82.721 69.782 200.303 69.782 330.749zM848.576 2289.42H541.317c-6.582 0-11.918-5.335-11.918-11.917v-2.472c0-6.582 5.336-11.917 11.918-11.917h307.259c6.582 0 11.918 5.336 11.918 11.917v2.472c-.001 6.581-5.337 11.917-11.918 11.917z"></path>
			</g>
			<path fill="#573240" d="M3927.786 2050.602h-31l-148.13-348.8-412.59-97.92h406z"></path>
			<path fill="#FCD4D0" d="m3748.656 1701.802 148.13 348.8h-371l-189.72-446.72z"></path>
			<path fill="#573240" d="m2661.34 2688.366 411.896-622.842c30.939-46.783 83.291-74.916 139.379-74.9l692.441.215 130.583 425.818h-251.614a829.642 829.642 0 0 1-169.562-17.513l-318.587-66.519s-99.957 245.585-409.192 505.869l-225.344-150.128z"></path>
			<path fill="#573240" d="m3515.187 2376.352-218.578-89.525c-60.572-24.809-126.957 19.739-126.957 85.194v685.303h237.566s122.831-332.453 107.969-680.972z"></path>
			<path fill="none" stroke="#FFF" stroke-width="5" stroke-linecap="round" stroke-miterlimit="10" d="m3522.187 2382.352-228.578-95.525c-60.572-24.809-126.957 19.739-126.957 85.194v185.303"></path>
			<path fill="#FF6E00" d="m4510.656 1734.612-100.49 411.89c-40.12 164.04-207.14 268.44-376.01 268.44l-70.931-227.401-350.119-59.239c18.87 0 34.13-47.5 34.13-108.16 0-60.6-15.28-109.73-34.13-109.82h229.28c50.13 0 96.93-25.14 124.6-66.94l108.6-164.05c51.82-78.28 139.45-125.36 233.33-125.36h59.96c94.65 0 164.26 88.7 141.78 180.64z"></path>
			<path fill="#F1B104" d="M3534.795 1955.882a5.75 5.75 0 0 0-3.01-5.06l-28.569-15.51a28.442 28.442 0 0 1-14.87-24.99h124.76c18.85.09 34.13 49.22 34.13 109.82 0 60.66-15.26 108.16-34.13 108.16l-6.51-1.93-145.11-43.08c-20.11-5.97-33.9-24.44-33.9-45.42v-118.25c0-12.92 10.48-23.4 23.4-23.4h8.98l18.239 42.95 56.59 16.71z"></path>
			<g fill="none" stroke="#573240" stroke-width="5" stroke-linecap="round" stroke-miterlimit="10">
				<path d="m3510.946 2063.866-52.46-15.574c-20.11-5.97-33.9-24.44-33.9-45.42M3514.972 1989.062l-56.487-16.769a47.38 47.38 0 0 1-30.301-27.296M3512.574 2027.35l-54.089-16.058a47.38 47.38 0 0 1-30.301-27.296"></path>
			</g>
			<path fill="#FFF" d="M3677.239 2140.292c19.744-.583 35.653-50.486 35.653-114.114 0-63.951-16.121-115.795-36.016-115.886h-61.273c17.178 6.169 30.531 52.982 30.531 109.818 0 49.49-10.094 90.275-24.031 103.941-3.251 3.19-6.722 4.9-10.314 4.9l65.45 11.341z"></path>
			<path fill="#F1B104" d="M4428.75 1528.99c-82.84-11.4-169.74-.64-175.28.07v-30.77l115.021-71.4 60.259 102.1z"></path>
			<path fill="#FFF" stroke="#573240" stroke-width="5" stroke-linecap="round" stroke-linejoin="round" stroke-miterlimit="10" d="M4253.188 1529.087s87.462-11.945 173.296 0l42.871 63.608s-35.999-37.728-106.319-38.723-111.89 5.906-111.89 5.906l2.042-30.791z"></path>
			<path fill="#573240" d="M4335.153 1419.479c-7.246-.826-13.688 4.627-14.07 11.909l-2.196 41.765c-.874 18.896-15.604 34.225-34.451 35.85l-53.217 4.589c-11.757 1.014-21.131-9.653-18.615-21.182l8.657-39.663 9.618-.829a42.139 42.139 0 0 1 31.542 10.421l11.038 9.763a19.023 19.023 0 0 0 14.237 4.704c9.411-.812 16.8-8.406 17.354-17.836l3.553-60.452c.647-11.024-9.311-19.634-20.143-17.481-25.256 5.019-63.879 8.363-64.711-17.869-1.24-39.043 41.62-30.569 54.395-25.543 7.465 2.937 64.458 27.985 80.067 34.852a18.296 18.296 0 0 1 7.945 6.698c4.692 7.153 10.91 21.989 3.215 44.202l-34.218-3.898z"></path>
			<path fill="#F1B104" d="m4348.877 1461.775-29.897-.907 2.681-37.722c.375-8.417 7.446-14.968 15.867-14.701l12.945.411c13.382.425 23.966 11.478 23.81 24.866l-.044 3.76c-.162 13.771-11.598 24.725-25.362 24.293z"></path>
			<path fill="none" stroke="#573240" stroke-width="5" stroke-linecap="round" stroke-miterlimit="10" d="M4333.398 1436.562c.375-8.417 7.446-14.968 15.867-14.701M4374.073 1435.573c-.161 13.77-11.597 24.724-25.361 24.292l-28.898-.907"></path>
			<path fill="#F1B104" d="m4308.603 1398.52-3.549 60.454a19.008 19.008 0 0 1-5.359 12.149 18.997 18.997 0 0 1-11.996 5.681 19.025 19.025 0 0 1-14.237-4.698l-11.038-9.763a42.123 42.123 0 0 0-31.545-10.419l-9.614.829c-15.245.885-21.324-9.348-21.324-9.348 29.467-25.945 40.228-61.001 40.228-61.001l.009-.001c13.705 3.993 33.334 1.607 48.286-1.365 10.827-2.156 20.785 6.46 20.139 17.482z"></path>
			<path fill="none" stroke="#573240" stroke-width="6" stroke-linecap="round" stroke-miterlimit="10" d="M4251.059 1404.969s11.503-1.205 20.746 4.807"></path>
			<ellipse transform="rotate(-4.93 4259.496 1424.13)" fill="#573240" cx="4258.481" cy="1423.635" rx="3.874" ry="6.415"></ellipse>
			<path fill="#FCD4D0" d="M3169.652 3057.324v25.659s127.152 20.272 219.613 7v-32.659h-219.613z"></path>
			<path fill="#F6ACC1" d="M3192.15 3057.32v28.78c-1.76-.23-3.43-.44-5-.65v-28.13h5zM3214.4 3057.32v31.35c-1.71-.19-3.37-.37-5-.54v-30.81h5zM3236.65 3057.32v33.47c-1.69-.14-3.35-.29-5-.44v-33.03h5zM3258.9 3057.32v35.15c-1.68-.1-3.35-.22-5-.33v-34.82h5zM3281.15 3057.32v36.37c-1.68-.07-3.34-.15-5-.23v-36.14h5zM3303.4 3057.32v37.05c-1.67-.03-3.34-.06-5-.1v-36.95h5zM3325.65 3057.32v37.12c-1.67.02-3.34.03-5 .04v-37.16h5zM3347.9 3057.32v36.45c-1.66.09-3.33.16-5 .22v-36.67h5zM3370.15 3057.32v34.9c-1.66.16-3.32.3-5 .44v-35.34h5z"></path>
			<path fill="#FCD4D0" d="m2661.34 2688.366-16.112 20.781s97.315 89.041 181.58 129.347l19.619-26.571-185.087-123.557z"></path>
			<path fill="#F6ACC1" d="m2679.99 2700.82-16.46 24.4c-1.34-1.15-2.61-2.24-3.81-3.28l16.11-23.9 4.16 2.78zM2698.49 2713.17l-17.83 26.45c-1.32-1.1-2.61-2.17-3.87-3.22l17.55-26 4.15 2.77zM2717 2725.52l-18.97 28.14c-1.33-1.05-2.64-2.09-3.93-3.12l18.74-27.8 4.16 2.78zM2735.51 2737.88l-19.89 29.48c-1.34-1.01-2.66-2.03-3.97-3.05l19.69-29.21 4.17 2.78zM2754.01 2750.23l-20.54 30.46c-1.35-.98-2.7-1.97-4.03-2.96l20.41-30.28 4.16 2.78zM2772.52 2762.58l-20.91 31.01a425.7 425.7 0 0 1-4.11-2.86l20.86-30.92 4.16 2.77zM2791.03 2774.94l-20.96 31.08c-1.4-.91-2.79-1.83-4.18-2.76l20.97-31.1 4.17 2.78zM2809.53 2787.29l-20.61 30.56c-1.42-.86-2.85-1.72-4.27-2.61l20.72-30.73 4.16 2.78zM2828.03 2799.64l-19.77 29.33c-1.46-.79-2.93-1.6-4.39-2.43l20.01-29.67 4.15 2.77z"></path>
			<path fill="#FF6E00" d="M3405.976 3172.792h-68.3c-1.36-8.11-7.75-14.26-15.43-14.26-7.69 0-14.08 6.15-15.44 14.26h-201.955c-6.968 0-9.656-9.062-3.818-12.865 26.553-17.294 68.623-49.089 68.623-76.945 0 0 127.15 20.27 219.61 7 0 0 22.91 4.51 16.71 82.81z"></path>
			<path fill="none" stroke="#573240" stroke-width="5" stroke-linecap="round" stroke-miterlimit="10" d="M3405.976 3172.792h-68.3c-1.36-8.11-7.75-14.26-15.43-14.26-7.69 0-14.08 6.15-15.44 14.26h-208.955M3186.297 3122.356s-53.419-1.327-53.751-20.903c-.332-19.576 41.475-2.323 9.622 28.852"></path>
			<path fill="#FF6E00" d="m2794.722 2916.642-56.802-37.927c3.373-7.5 1.473-16.163-4.914-20.428-6.395-4.27-15.125-2.704-20.759 3.286l-166.715-111.337c-6.463-4.316-3.448-14.402 4.323-14.442 31.314-.163 80.379-4.183 95.377-26.645 0 0 97.315 89.038 181.578 129.346 0-.001 16.548 16.472-32.088 78.147z"></path>
			<path fill="none" stroke="#573240" stroke-width="5" stroke-linecap="round" stroke-miterlimit="10" d="m2793.722 2915.642-56.802-37.927c3.373-7.5 1.473-16.163-4.914-20.428-6.395-4.27-15.125-2.704-20.759 3.286l-166.715-111.337M2643.729 2748.155s-44.326-27.843-34.08-44.526c10.246-16.684 37.81 19.087-7.401 26.5"></path>
			<g stroke="#573240" stroke-width="5" stroke-linecap="round" stroke-miterlimit="10">
				<path fill="none" d="M4066.199 2414.546c39.668 0 74.004 35.56 82.568 85.511l115.339 672.735"></path>
				<path fill="#FFF" d="M3658.341 2414.846h513.619c116.212 0 217.766-78.47 247.086-190.923l102.825-394.366h-94.88c-94.83 0-181.642 53.206-224.683 137.706l-50.076 98.31c-38.123 74.844-115.014 121.969-199.007 121.969h-68.011c-125.467-.001-227.111 101.837-226.873 227.304h0z"></path>
				<path fill="none" d="m3638.341 3172.792 115.339-672.735c8.564-49.951 42.9-85.511 82.568-85.511h390.951c39.668 0 74.004 35.56 82.568 85.511l115.339 672.735"></path>
				<path fill="none" d="M4174.992 2653.026c14.974-31.36 45.487-52.834 80.694-52.834 34.375 0 64.276 20.471 79.607 50.627"></path>
			</g>
			<path fill="#FCD4D0" d="M1189.899 3173.873h201.955c6.968 0 9.657-9.062 3.818-12.865-26.553-17.294-57.494-40.716-67.758-72.403l-210.475-.542s-22.91 7.51-16.71 85.81h58.3v-9.402h30.87v9.402z"></path>
			<path fill="none" stroke="#573240" stroke-width="5" stroke-linecap="round" stroke-linejoin="round" stroke-miterlimit="10" d="M1100.729 3173.873h58.3v-9.369h30.87v9.369h208.955M1302.034 3118.909c5.018-6.344 14.393-10.613 25.129-10.613 6.43 0 12.371 1.531 17.18 4.121M1312.034 3134.909c5.279-6.344 15.142-10.613 26.437-10.613 8.429 0 16.061 2.377 21.585 6.219"></path>
			<path fill="#FCD4D0" d="M1671.899 3173.873h201.955c6.968 0 9.657-9.062 3.818-12.865-26.553-17.294-57.494-40.716-67.758-72.403l-220.475-.542s-22.91 7.51-16.71 85.81h68.3v-9.402h30.87v9.402z"></path>
			<path fill="none" stroke="#573240" stroke-width="5" stroke-linecap="round" stroke-linejoin="round" stroke-miterlimit="10" d="M1572.729 3173.873h68.3v-9.369h30.87v9.369h208.955M1784.034 3118.909c5.018-6.344 14.393-10.613 25.129-10.613 6.43 0 12.371 1.531 17.18 4.121M1794.034 3134.909c5.279-6.344 15.142-10.613 26.437-10.613 8.429 0 16.061 2.377 21.585 6.219"></path>
			<path fill="#573240" d="M1810.05 2215.89s-39 724.49-.14 872.72h-220.17c-72.85-211.69-168.37-541.29-46.88-839.3 0 0-6.71-77.95-15.1-178.91l-35.6 132.22c-49.59 206.1-164.25 885.99-164.25 885.99h-212.17s-110.66-531.29 84.85-864.37c0 0 81.21-533.25 81.56-596.91h507.9s16.004 178.805 20 588.56z"></path>
			<path fill="#F1B104" d="M1282.153 1626.327h527.901l51.182 509.052c4.198 41.674-28.52 77.854-70.405 77.854h-292.699c-68.068 0-124.946-51.818-131.27-119.592l-36.535-391.546c-2.304-24.693-23.028-43.573-47.828-43.573h-3.068l2.722-32.195z"></path>
			<path fill="#FF6E00" d="M1813.276 1658.322h-533.83l2.71-32h527.9z"></path>
			<path fill="#B2DDDA" d="M2045.77 1406.26 1889 1027.09a148.177 148.177 0 0 0-98.34-86.43l-206.22-55.6-137.38-43.47-24.52 35.17-272.14 46.47c-48.26 8.23-88.8 40.88-107.14 86.26l-135.39 334.98c-58.96 145.86 73.83 296.47 225.93 256.24l140.43-37.13 7.92 63.75h615.8c113.95 0 191.36-115.77 147.82-221.07zm-854.88-98.17 26-81.23c2.63-8.22 14.61-7.1 15.67 1.47l9.91 79.76h-51.58z"></path>
			<g fill="none" stroke="#573240" stroke-linecap="round" stroke-miterlimit="10">
				<path stroke-width="4" d="m1382.634 1534.907-108.404 28.669M1190.886 1310.093h217.992"></path>
				<g stroke-width="5">
					<circle cx="1552.204" cy="943.222" r="10.452"></circle>
					<circle cx="1552.204" cy="1041.556" r="10.452"></circle>
					<circle cx="1552.204" cy="1139.889" r="10.452"></circle>
					<circle cx="1552.204" cy="1238.222" r="10.452"></circle>
					<circle cx="1552.204" cy="1330.222" r="10.452"></circle>
				</g>
				<path stroke-width="4" d="M1817.065 1126.268s-9.419 100.866-28 218.322"></path>
			</g>
			<ellipse fill="#573240" cx="1406.623" cy="1412.621" rx="35.949" ry="104.529"></ellipse>
			<path fill="#FF6E00" d="M1590.635 1387.067s-56.349-144.042-79.558-141.122c-23.209 2.919 48.052 130.004 48.052 130.004l31.506 11.118z"></path>
			<path fill="#F6ACC1" d="M1591.106 1412.272v85.32h-205.42c-9.09-18.97-15.01-49.96-15.01-84.97 0-36.89 6.57-69.32 16.5-87.92h76.52c7.62 0 15.18 1.68 22.3 4.96l78.771 36.26c15.849 7.31 26.339 25.75 26.339 46.35z"></path>
			<path fill="none" stroke="#573240" stroke-width="5" stroke-linecap="round" stroke-miterlimit="10" d="m1509.504 1376.023 59.454 27.371c11.97 5.511 19.887 19.435 19.887 34.979v37.553"></path>
			<path fill="none" stroke="#573240" stroke-width="5" stroke-linecap="round" stroke-miterlimit="10" d="m1509.504 1411.576 59.454 27.371c11.97 5.511 19.887 19.435 19.887 34.979v22.414"></path>
			<path fill="none" stroke="#573240" stroke-width="5" stroke-linecap="round" stroke-miterlimit="10" d="m1512.504 1450.576 59.454 27.371c7.515 3.46 13.433 10.236 16.796 18.648"></path>
			<path fill="#FFF" d="M1767.184 1627.327h-265.866l85.549-268.755a20.07 20.07 0 0 1 19.124-13.982h209.275c20.744 0 35.495 20.176 29.203 39.943l-77.285 242.794z"></path>
			<path fill="#FCD4D0" d="m1627.291 1372.535-81.105 254.787h-45l85.245-267.793a21.44 21.44 0 0 1 20.43-14.937c14.512 0 24.832 14.115 20.43 27.943z"></path>
			<path fill="none" stroke="#FFF" stroke-width="5" stroke-linecap="round" stroke-miterlimit="10" d="m1501.816 1625.202 84.615-263.673a21.44 21.44 0 0 1 20.43-14.937h215.826"></path>
			<path fill="none" stroke="#573240" stroke-width="4" stroke-linecap="round" stroke-miterlimit="10" d="m1630.061 1343.519.049-.19c2.294-8.896 8.989-14.937 16.553-14.937h0c11.758 0 20.119 14.115 16.553 27.943l-.049.19c-2.294 8.896-8.989 14.937-16.553 14.937h0M1683.061 1343.519l.049-.19c2.294-8.896 8.989-14.937 16.553-14.937h0c11.758 0 20.119 14.115 16.553 27.943l-.049.19c-2.294 8.896-8.989 14.937-16.553 14.937h0M1736.061 1343.519l.049-.19c2.294-8.896 8.989-14.937 16.553-14.937h0c11.758 0 20.119 14.115 16.553 27.943l-.049.19c-2.294 8.896-8.989 14.937-16.553 14.937h0M1789.061 1343.519l.049-.19c2.294-8.896 8.989-14.937 16.553-14.937h0c11.758 0 20.119 14.115 16.553 27.943l-.049.19c-2.294 8.896-8.989 14.937-16.553 14.937h0"></path>
			<path fill="#F6ACC1" d="M1829.416 1432.098h35.962a47.208 47.208 0 0 1 38.605 20.038l5.177 7.356c31.871 45.287 28.994 106.416-6.99 148.509l-1.919 2.245a48.777 48.777 0 0 1-37.075 17.082h-135.823c-39.86 0-71.279-33.942-68.207-73.683l4.75-61.452c.808-10.457 9.529-18.529 20.017-18.529h111.222a28.792 28.792 0 0 0 27.436-20.058l6.845-21.508z"></path>
			<path fill="none" stroke="#573240" stroke-width="5" stroke-linecap="round" stroke-miterlimit="10" d="M1768.175 1591.327h-49.444c-23.582 0-44.148-11.084-57.349-27.975M1770.175 1559.327h-49.444c-23.582 0-44.148-11.084-57.349-27.975M1773.175 1522.327h-49.444c-23.582 0-44.148-11.084-57.349-27.975"></path>
			<path fill="#F6ACC1" d="M1584.44 797.79v87.27l-136.87-43.31 28.71-43.96z"></path>
			<path fill="#F6ACC1" d="M1606.74 740.78v76.3c0 15.12-12.26 27.38-27.38 27.38h-42.78c-14.03 0-25.4-11.37-25.4-25.39v-20.5h-31.43c-8.74 0-15.82-7.08-15.82-15.82v-11.79c0-8.74 7.08-15.82 15.82-15.82h13.61c9.84 0 17.82 7.97 17.82 17.82v-29.37c0-11.48 9.31-20.79 20.79-20.79h56.79c9.93 0 17.98 8.05 17.98 17.98z"></path>
			<path fill="#FF6E00" d="M1622.39 705.96c0 18.74-15.89 33.93-35.49 33.93-6.17 0-11.98-1.51-17.04-4.16l-23.96-10.24a33.5 33.5 0 0 0-13.15-2.69c-11.91 0-21.57 9.66-21.57 21.58v27.58h-.03c-.52-9.38-8.28-16.82-17.79-16.82h-2.2v-27.21c0-13.09 10.62-23.71 23.71-23.71h36.59c.95-17.92 16.45-32.18 35.44-32.18 19.6 0 35.49 15.19 35.49 33.92z"></path>
			<path fill="#573240" d="M1608.44 870.22v29.97c0 5.5-5.82 9.05-10.71 6.53l-40.86-21.06a6.95 6.95 0 0 1-6.84 5.69h-4.66c-3.39 0-6.23-2.44-6.83-5.66l-40.81 21.03c-4.89 2.52-10.71-1.03-10.71-6.53v-29.97c0-4.98 4.84-8.51 9.58-7l41.82 13.34a6.953 6.953 0 0 1 6.95-6.78h4.66c3.79 0 6.87 3.03 6.95 6.79l41.88-13.35c4.74-1.51 9.58 2.02 9.58 7z"></path>
			<path fill="none" stroke="#573240" stroke-width="5" stroke-linecap="round" stroke-miterlimit="10" d="M1500.77 778.547c0-7.18-5.82-13-13-13M1576.791 813.393c-7.76 2.979-16.136-.041-18.709-6.743l-4.851 3.946"></path>
			<path fill="#FF6E00" d="M1556.737 757.965H1536.6a4.052 4.052 0 0 1-4.052-4.051v-.86a4.051 4.051 0 0 1 4.052-4.051h20.137a4.052 4.052 0 0 1 4.052 4.051v.86a4.052 4.052 0 0 1-4.052 4.051z"></path>
			<path fill="none" stroke="#573240" stroke-width="5" stroke-linecap="round" stroke-miterlimit="10" d="M1585.992 753.485v37.514a6.57 6.57 0 0 1-6.57 6.57h-6.955"></path>
			<ellipse fill="#573240" cx="1547.549" cy="772.849" rx="4" ry="5.714"></ellipse>
			<ellipse fill="#573240" cx="1597.549" cy="772.849" rx="3.5" ry="5"></ellipse>
			<path fill="#FF6E00" d="M1607.737 757.965H1587.6a4.052 4.052 0 0 1-4.052-4.051v-.86a4.051 4.051 0 0 1 4.052-4.051h20.137a4.052 4.052 0 0 1 4.052 4.051v.86a4.052 4.052 0 0 1-4.052 4.051z"></path>
			<path fill="none" stroke="#573240" stroke-width="5" stroke-linecap="round" stroke-miterlimit="10" d="M1583.36 846.462h-45.785c-14.025 0-25.395-11.37-25.395-25.395"></path>
		</g>
	</switch>
</svg>