<svg xmlns="http://www.w3.org/2000/svg" width="5000" height="3500" xml:space="preserve">
	<switch>
		<g>
			<path fill="transparent" d="M0 0h5000v3500H0z"></path>
			<path fill="#FCD4D0" d="M4402.132 1653.402v1056.305c0 133.701-108.377 242.089-242.078 242.089h-679.427c-117.027 0-214.662-83.044-237.192-193.417-.323-6.805-1.413-13.535-3.235-20.2-18.42-67.05-111.677-126.583-250.641-168.546-130.788-39.505-302.074-63.448-489.559-63.448s-358.77 23.943-489.559 63.448c-138.952 41.953-232.199 101.486-250.63 168.525-1.833 6.676-2.933 13.417-3.246 20.233-22.53 110.372-120.165 193.406-237.192 193.406H839.957c-133.7 0-242.089-108.378-242.089-242.078V1653.402c0-182.782 148.184-330.967 330.978-330.967h103.05a470.543 470.543 0 0 1 161.471-140.322c66.856-35.342 142.21-54.593 220.087-54.593h192.51c101.615-107.946 281.27-179.665 485.935-179.665 155.022 0 295.689 41.144 398.966 108 105.401-66.866 248.958-108 407.162-108 208.871 0 392.225 71.708 495.933 179.655h192.597a470.641 470.641 0 0 1 220.076 54.593c63.081 33.347 118.591 81.006 161.482 140.333h103.05c182.793-.001 330.967 148.173 330.967 330.966z"></path>
			<g fill="none" stroke="#FFF" stroke-width="6" stroke-linecap="round" stroke-linejoin="round" stroke-miterlimit="10">
				<path d="M3090.308 2543.504c-32.156-14.477-68.258-27.773-107.21-39.659-129.428-39.505-298.933-63.448-484.468-63.448-185.535 0-355.04 23.943-484.468 63.448-52.42 15.993-99.363 34.541-138.399 55.085M1020.244 1319.199c77.87 0 150.447 39.418 192.841 104.737M1565.989 1123.136c77.87 0 150.447 39.418 192.841 104.736M4021.423 1319.199c-77.87 0-150.447 39.418-192.841 104.737M4147.795 2093.771h-532.47c-122.527 0-221.854 99.328-221.854 221.854M3419.79 1123.136c-77.87 0-150.447 39.418-192.841 104.736M828.581 2134.753h570.218c122.527 0 221.854 99.327 221.854 221.854"></path>
			</g>
			<path fill="#FF6E00" d="m3859.78 1215.41-125.8 417.14s52.31 46.39 79.02 109.59c69.48 164.47-51.26 346.55-229.79 346.55h-327.15c18.61-260.51-100.59-435.78-100.59-435.78h186.98v-143.97l-19.95-45.9c-23.07-53.1-17.9-114.24 13.77-162.71l109.58-167.72a49.57 49.57 0 0 1 41.5-22.46h288.13c55.32 0 96.39 51.28 84.3 105.26z"></path>
			<path fill="#F1B104" d="m2969.849 2864.996 56.484-63.33s134.547-452.468 153.155-712.974-100.394-435.431-100.394-435.431h-113.773c-120.714 0-216.197 102.198-207.995 222.634 20.168 296.147 161.976 886.127 160.935 922.909-2.147 75.862-34.353 108.783-34.353 108.783s50.861-3.258 85.941-42.591z"></path>
			<path fill="#F1B104" d="M2883.908 2907.587s32.206-32.921 34.353-108.783c1.041-36.781-31.839-626.762-52.008-922.909-8.202-120.435 87.281-222.634 207.995-222.634h81.419s119.001 174.924 100.394 435.431-153.155 712.974-153.155 712.974l-56.484 63.33a127.369 127.369 0 0 1-95.055 42.59h-67.459z"></path>
			<path fill="none" stroke="#FFF" stroke-width="6" stroke-linecap="round" stroke-linejoin="round" stroke-miterlimit="10" d="M2913.947 2798.803c1.041-36.781-27.525-626.762-47.694-922.909-8.202-120.435 87.281-222.634 207.995-222.634"></path>
			<path fill="#FF6E00" d="m3051.7 2953.39 43.574-60.907a23.784 23.784 0 0 1 19.343-9.945c13.135 0 23.784 10.648 23.784 23.784v47.068h6.063v-93.863c0-26.207-16.724-49.492-41.559-57.861l-56.688 63.559a126.685 126.685 0 0 1-94.544 42.361h-67.766l-50.054 32.535a15.825 15.825 0 0 0-7.2 13.269H3051.7z"></path>
			<path fill="#F1B104" d="M4099.44 2089.457h-243.197v-131.662h236.34l31.842 97.182c5.571 17.001-7.095 34.48-24.985 34.48z"></path>
			<path fill="#573240" d="M3863.1 2089.457h-13.712c-17.89 0-30.556-17.479-24.986-34.48l31.842-97.182 31.842 97.182c5.57 17.001-7.096 34.48-24.986 34.48z"></path>
			<g fill="none" stroke="#573240" stroke-width="4" stroke-linecap="round" stroke-miterlimit="10">
				<path d="M3856.243 1957.795h120.734l-20.485-32.178a13.742 13.742 0 0 0-11.416-6.094h-12.665"></path>
				<circle cx="3932.943" cy="1928.683" r="9.16"></circle>
			</g>
			<g fill="none" stroke="#573240" stroke-width="4" stroke-linecap="round" stroke-miterlimit="10">
				<path d="M4092.376 1957.795h-120.734l20.486-32.178a13.742 13.742 0 0 1 11.416-6.094h12.665"></path>
				<circle cx="4015.676" cy="1928.683" r="9.16"></circle>
			</g>
			<g fill="#FFF">
				<circle cx="3883.517" cy="1976.671" r="6.196"></circle>
				<circle cx="3911.104" cy="1976.671" r="6.196"></circle>
				<circle cx="3938.691" cy="1976.671" r="6.196"></circle>
				<circle cx="3966.279" cy="1976.671" r="6.196"></circle>
				<circle cx="3993.866" cy="1976.671" r="6.196"></circle>
				<circle cx="4021.453" cy="1976.671" r="6.196"></circle>
				<circle cx="4049.04" cy="1976.671" r="6.196"></circle>
				<circle cx="4076.627" cy="1976.671" r="6.196"></circle>
				<circle cx="3890.606" cy="1997.937" r="6.196"></circle>
				<circle cx="3918.193" cy="1997.937" r="6.196"></circle>
				<circle cx="3945.78" cy="1997.937" r="6.196"></circle>
				<circle cx="3973.367" cy="1997.937" r="6.196"></circle>
				<circle cx="4000.954" cy="1997.937" r="6.196"></circle>
				<circle cx="4028.542" cy="1997.937" r="6.196"></circle>
				<circle cx="4056.129" cy="1997.937" r="6.196"></circle>
				<circle cx="4083.716" cy="1997.937" r="6.196"></circle>
				<circle cx="3898.707" cy="2020.215" r="6.196"></circle>
				<circle cx="3926.294" cy="2020.215" r="6.196"></circle>
				<circle cx="3953.881" cy="2020.215" r="6.196"></circle>
				<circle cx="3981.469" cy="2020.215" r="6.196"></circle>
				<circle cx="4009.056" cy="2020.215" r="6.196"></circle>
				<circle cx="4036.643" cy="2020.215" r="6.196"></circle>
				<circle cx="4064.23" cy="2020.215" r="6.196"></circle>
				<circle cx="4091.817" cy="2020.215" r="6.196"></circle>
				<circle cx="3904.783" cy="2042.494" r="6.196"></circle>
				<circle cx="3932.37" cy="2042.494" r="6.196"></circle>
				<circle cx="3959.957" cy="2042.494" r="6.196"></circle>
				<circle cx="3987.544" cy="2042.494" r="6.196"></circle>
				<circle cx="4015.132" cy="2042.494" r="6.196"></circle>
				<circle cx="4042.719" cy="2042.494" r="6.196"></circle>
				<circle cx="4070.306" cy="2042.494" r="6.196"></circle>
				<circle cx="4097.893" cy="2042.494" r="6.196"></circle>
				<circle cx="3907.821" cy="2065.785" r="6.196"></circle>
				<circle cx="3935.408" cy="2065.785" r="6.196"></circle>
				<circle cx="3962.995" cy="2065.785" r="6.196"></circle>
				<circle cx="3990.582" cy="2065.785" r="6.196"></circle>
				<circle cx="4018.169" cy="2065.785" r="6.196"></circle>
				<circle cx="4045.757" cy="2065.785" r="6.196"></circle>
				<circle cx="4073.344" cy="2065.785" r="6.196"></circle>
				<circle cx="4100.931" cy="2065.785" r="6.196"></circle>
			</g>
			<path fill="#F1B104" d="m3648.968 955.058 49.656 155.089s-88.306 154.8-211.702 154.8c-104.489 0 10.323-154.8 10.323-154.8 33.418 0 60.51-27.091 60.51-60.51v-94.58h91.213z"></path>
			<g fill="#573240">
				<path d="M3557.75 936.68v112.96c0 16.71-6.77 31.84-17.72 42.79s-26.08 17.72-42.79 17.72c0 0-.27.37-.79 1.07-46.17-.25-83.5-31.24-83.5-69.42 0-34.02 29.63-62.32 68.76-68.27 5.18-23.96 26.9-41.93 52.9-41.93 8.28 0 16.13 1.82 23.14 5.08zM3683.27 886.25c-1.09 25.17-19.96 33.76-45.84 33.76-19.32 0-36.47-13.17-43.94-30.33-12.89 9.92-31.53 14.44-50.93 10.81-32.35-6.06-54.55-32.5-49.57-59.06 4.97-26.56 35.23-43.17 67.58-37.11 21.19 3.97 38.02 16.67 45.71 32.43 7.48-4.19 17.71-6.01 31.15-4.75 25.78 2.42 47.25 21.8 45.84 54.25zM3812.88 1044.38c0 39.77-36.64 72.01-81.84 72.01s-81.84-32.24-81.84-72.01c0-15.5 5.57-29.85 15.04-41.6l-20.78-64.91c8.91-8.74 21.55-14.19 35.56-14.19 27.01 0 48.91 20.27 48.91 45.28 0 1.17-.05 2.33-.14 3.48 1.08-.04 2.16-.06 3.25-.06 45.2 0 81.84 32.24 81.84 72z"></path>
			</g>
			<path fill="#F1B104" d="M3693.33 929.32v3.96c0 13.92-11.29 25.21-25.21 25.21h-24.99c-2.22 14.63-12.15 27.17-26.28 32.52l-40.06 15.17c-14.24 5.39-30.02-2.68-33.97-17.39l-5.78-21.47a96.062 96.062 0 0 1-3.3-24.96V906.7c0-26.06 21.13-47.19 47.18-47.19h9.71c-.75 3.63-1.1 7.53-1.1 11.64 0 25.2 22.01 48.86 47.9 48.86 1.67 0 3.32-.04 4.93-.12.27-8.77 7.46-15.79 16.3-15.79h9.46c13.92 0 25.21 11.29 25.21 25.22z"></path>
			<path fill="none" stroke="#573240" stroke-width="5" stroke-linecap="round" stroke-miterlimit="10" d="M3653.136 932.47c0-9.712 7.873-17.585 17.585-17.585M3585.553 960.156s-9.107 8.8-24.09 6.178M3532.865 900.626c5.741-2.92 13.05-2.776 19.674.19 12.456 5.576 8.639 50.187 8.639 50.187M3540.662 989.872c3.955 14.701 19.736 22.776 33.972 17.384l42.212-14.094c16.103-6.099 26.624-15.757 26.624-32.976"></path>
			<ellipse fill="#573240" cx="3543.513" cy="924.542" rx="4.314" ry="6.89"></ellipse>
			<path fill="none" stroke="#573240" stroke-width="5" stroke-linecap="round" stroke-miterlimit="10" d="M3580.365 900.912c7.085-3.815 18.503-3.618 26.219 1.275"></path>
			<ellipse fill="#573240" cx="3591.853" cy="924.542" rx="4.314" ry="6.89"></ellipse>
			<path fill="#573240" d="M2296.75 2669.28v-721.23h209.62l-209.62 721.23zm469.11-972.54-654.33-98.46c-141.34-17.53-234.92 108.41-207.11 248.09l105.43 939.82c19.11-2.47 41.23-3.77 61.8-3.77 69.24 0 132.34 14.8 177.43 38.62l26.46-78.79.01-.02s.62 17.6 21.2 34.67c11.84 9.81 30.3 19.46 59.05 25.47 58.28 12.19 137.73-29.34 208.18 11.76 1.82 1.06 3.57 2.16 5.26 3.3l327.78-900.67c38.48-98.56-26.15-206.99-131.16-220.02z"></path>
			<path fill="#B2DDDA" d="M1945.157 2859.323c-12.316 11.755-4.498 33.503 12.039 33.503H2259.9c19.222 0 35.19-15.278 37.558-35.223-38.643-44.327-125.817-75.18-225.803-75.18-20.637 0-42.823 1.311-61.979 3.791l-64.519 73.109z"></path>
			<path fill="none" stroke="#573240" stroke-width="7" stroke-linecap="round" stroke-miterlimit="10" d="M1934.879 2874.01c.737 9.241 7.667 17.737 18.002 17.737h302.705c19.222 0 39.171-18.285 38.636-40.615"></path>
			<path fill="#B2DDDA" d="M2615.748 2891.747h-251.402l-114.198-73.904 25.402-75.618s1.533 43.686 80.248 60.147c58.283 12.188 137.731-29.343 208.177 11.753 45.659 26.636 51.773 77.622 51.773 77.622z"></path>
			<path fill="none" stroke="#573240" stroke-width="7" stroke-linecap="round" stroke-miterlimit="10" d="M2615.748 2891.747h-251.402l-113.119-73.904"></path>
			<path fill="#FFF" stroke="#573240" stroke-width="4" stroke-linecap="round" stroke-miterlimit="10" d="m2355.93 884.6 84.49-32.98-26.05-70.98-133.77 7.78-5 68.01z"></path>
			<path fill="#FF6E00" d="m2414.292 743.077-3.417-28.896c-1.195-11.154-8.777-20.595-19.42-24.143-38.989-12.995-132.314-46.538-165.164-23.338-37.314 26.353 26.549 69.884 26.549 69.884s60.731 15.685 77.006 14.219c16.276-1.464 84.446-7.726 84.446-7.726z"></path>
			<path fill="#FFF" stroke="#573240" stroke-width="4" stroke-linecap="round" stroke-miterlimit="10" d="m2382.882 786.624-3.51 23.749c-1.889 12.781-12.287 22.603-25.155 23.762l-70.683 6.363c-12.989 1.169-24.466-8.412-25.635-21.401l-6.484-72.021c-2.303-25.586 16.571-48.194 42.156-50.497l27.604-2.485c13.807-1.243 26.771 6.802 31.786 19.726l7.77 20.025a18.034 18.034 0 0 0 18.428 11.437h0c-.833-9.251 5.992-17.426 15.243-18.259l4.812-.433c16.042-1.444 30.217 10.39 31.661 26.432v0c1.444 16.042-10.389 30.217-26.431 31.661l-21.562 1.941z"></path>
			<path fill="none" stroke="#573240" stroke-width="5" stroke-linecap="round" stroke-miterlimit="10" d="M2408.201 742.443c-8.103.729-14.08 7.89-13.351 15.992M2295.848 799.748c9.819 3.501 20.358-.898 23.541-9.824M2276.844 742.354l3.502 38.9c.373 4.139 4.484 6.866 8.442 5.601l8.139-2.238"></path>
			<path fill="#FF6E00" d="m2334.156 744.522-23.785-.811a4.645 4.645 0 0 1-4.484-4.801l.128-3.751a4.645 4.645 0 0 1 4.801-4.484l23.785.811a4.645 4.645 0 0 1 4.484 4.801l-.128 3.751a4.645 4.645 0 0 1-4.801 4.484zM2274.205 733.838l-23.525 3.605a4.645 4.645 0 0 0-3.888 5.295l.569 3.71a4.644 4.644 0 0 0 5.295 3.888l23.524-3.605a4.645 4.645 0 0 0 3.888-5.295l-.569-3.71a4.644 4.644 0 0 0-5.294-3.888z"></path>
			<ellipse transform="rotate(-5.146 2318.241 760.785)" fill="#573240" cx="2319.254" cy="761.072" rx="4.294" ry="6.449"></ellipse>
			<ellipse transform="rotate(-5.146 2262.409 765.81)" fill="#573240" cx="2263.399" cy="766.1" rx="4.294" ry="6.449"></ellipse>
			<path fill="#F1B104" d="M1868.313 1561.258c-58.128-8.774-95.404-66.518-79.469-123.103l97.307-345.535c18.25-66.73 68.96-119.74 134.81-140.95l257.64-64.82 76.45-5 98.88 5 254.53 75.57c64.55 20.79 114.63 72.18 133.74 137.25l78.74 254.13c28.52 92.04-40.27 185.36-136.62 185.36h-18.69l.23 157.58-897.548-135.482z"></path>
			<path fill="#B2DDDA" d="m2489.4 896.63-80.48 27.5-52.91-37.58-50.69 36.5-71.65-24.87 34.93-40a9.566 9.566 0 0 1 10.84-3.22l76.08 24.58 82.18-30.42a7.607 7.607 0 0 1 8.28 1.91l43.42 45.6z"></path>
			<g fill="none" stroke="#F1B104" stroke-width="5" stroke-miterlimit="10">
				<path d="M2600.042 2110.5v570.105c0 123.804 74.526 229.492 179.432 271.112M2546.484 2110.5v570.105c0 128.787-80.646 237.97-192.243 275.823M2546.484 2694.495c0-14.79 11.99-26.779 26.779-26.779 14.79 0 26.779 11.99 26.779 26.779"></path>
			</g>
			<ellipse fill="#FFF" cx="2550.452" cy="1804.251" rx="1111.627" ry="304.941"></ellipse>
			<path fill="#B2DDDA" d="M3385.278 1652.496h-431.644l-115.625-387.544h431.644z"></path>
			<path fill="#573240" d="m2838.009 1264.952 181.998-141.816 43.139 141.816z"></path>
			<path fill="none" stroke="#FFF" stroke-width="6" stroke-linecap="round" stroke-linejoin="round" stroke-miterlimit="10" d="M2991.592 1400.82c15.374-26.003 47.093-43.841 83.739-43.841 36.637 0 68.355 17.838 83.73 43.841M2960.605 1423.494h239.911M2968.155 1448.299h239.91"></path>
			<path fill="#F1B104" d="M3867.869 1197.639a181.85 181.85 0 0 1-32.082 103.155l-221.61 321.78a159.245 159.245 0 0 1-131.158 68.921h-440.372c-26.974 0-53.72-4.948-78.909-14.597l-58.158-22.279c-19.548-7.489-32.455-26.255-32.455-47.188v-112.048c0-14.42 11.69-26.11 26.11-26.11l12.465 42.576a28.856 28.856 0 0 0 27.535 20.748l61.858.326c4.713.025 6.176-6.366 1.92-8.393l-19.28-9.184s-23.252-13.513-22.53-34.975h91.108a31.295 31.295 0 0 1 19.839 7.092l37.76 22.242h311.25a89.566 89.566 0 0 0 74.728-40.193l212.548-321.709a83.914 83.914 0 0 1 70.013-37.657h1.926c48.323 0 87.494 39.172 87.494 87.493z"></path>
			<g fill="none" stroke="#573240" stroke-width="4" stroke-linecap="round" stroke-miterlimit="10">
				<path d="m2945.127 1639.308-41.678-15.966c-19.548-7.489-32.455-24.749-30.032-71.776"></path>
				<path d="m2946.132 1608.032-41.679-15.966c-19.548-7.489-32.417-28.484-31.328-72.935"></path>
				<path d="m2946.839 1572.029-43.416-16.631c-19.548-7.489-30.298-25.176-30.298-46.11"></path>
				<path d="M2873.125 1564.291v-68.909c0-14.42 11.69-26.11 26.11-26.11h0"></path>
			</g>
			<ellipse fill="#FFF" stroke="#B2DDDA" stroke-width="4" stroke-miterlimit="10" cx="2591.271" cy="1646.302" rx="201.853" ry="119.117"></ellipse>
			<g fill="none" stroke="#F1B104" stroke-width="5" stroke-linecap="round" stroke-miterlimit="10">
				<path d="M2731.647 1641.504c-31.8 37.89-119.626 49.542-189.454 39.172-55.863-8.296-83.792-32.568-62.382-54.213 17.128-17.316 67.241-25.974 111.931-19.337 35.752 5.309 53.627 20.844 39.925 34.697-10.962 11.083-43.034 16.623-71.636 12.376-22.881-3.398-34.321-13.34-25.552-22.206 7.016-7.093 27.542-10.639 45.847-7.921 14.644 2.175 21.966 8.537 16.353 14.212-4.49 4.539-17.627 6.809-29.342 5.069-9.372-1.392-14.058-5.464-10.466-9.095M2471.505 1620.268c14.104-19.857 62.159-36.5 107.334-37.174"></path>
				<path d="M2709.698 1659.839c-29.502 37.89-105.591 49.542-170.375 39.172M2498.461 1698.548c22.237-4.819 33.354-18.919 24.832-31.494-6.818-10.059-26.766-15.089-44.556-11.233-14.231 3.084-21.347 12.108-15.893 20.156 4.364 6.438 17.13 9.657 28.516 7.189 9.108-1.974 13.662-7.749 10.171-12.9"></path>
				<path d="M2690.502 1668.444c17.208-4.273 25.812-16.777 19.217-27.927-5.276-8.92-17.478-13.38-31.245-9.961-11.013 2.735-16.955 9.908-13.377 16.795 3.058 5.886 8.943 7.485 17.753 5.297 7.049-1.75 12.108-10.573 6.793-12.517"></path>
			</g>
			<g fill="none" stroke="#573240" stroke-width="4" stroke-linecap="round" stroke-miterlimit="10">
				<path d="m2583.034 1314.591 87.114 260.208M2648.22 1581.823l-16.208-37.689c-5.093-11.841 1.023-25.506 13.246-29.598l7.617-2.198c12.223-4.092 25.333 3.136 28.396 15.657l9.75 39.851"></path>
			</g>
			<circle fill="#FF6E00" cx="2508.533" cy="1604.95" r="23.187"></circle>
			<path fill="none" stroke="#F1B104" stroke-width="5" stroke-linecap="round" stroke-miterlimit="10" d="M2689.951 1540.109c3.969 0 10.594 3.494 6.31 7.515-2.306 2.164-16.542 5.725-36.947 5.725s-34.526-5.849-36.947-7.882c-4.035-3.39-1.327-7.459 2.832-7.459"></path>
			<path fill="none" stroke="#F1B104" stroke-width="5" stroke-linecap="round" stroke-miterlimit="10" d="M2686.074 1550.956c4.998-1.172 6.325 1.593 5.314 4.015-1.219 2.918-7.374 9.103-28.155 12.212s-38.943-.165-39.553-3.268c-.608-3.091 1.832-5.367 8.065-6.441"></path>
			<path fill="none" stroke="#F1B104" stroke-width="5" stroke-linecap="round" stroke-miterlimit="10" d="M2685.891 1560.379c5.887-1.831 17.875 7.049 9.465 14.42-8.409 7.371-89.54-4.82-85.176 16.099 3.552 17.023 113.505 31.827 111.349 5.457-1.124-13.748-32.614-14.617-29.851 1.804"></path>
			<circle fill="#FF6E00" cx="2618.612" cy="1654.524" r="21.424"></circle>
			<circle fill="#FF6E00" cx="2576.371" cy="1664.1" r="12.435"></circle>
			<circle fill="#FF6E00" cx="2690.027" cy="1679.567" r="21.911"></circle>
			<path fill="#F1B104" d="m2392.92 1333.43-356.79 267.52a158.214 158.214 0 0 1-94.86 31.61c-44.84 0-84.39-18.33-112.75-47.22-37.58-38.32-55.46-95.2-39.82-152.56h.01c17.04-62.44 63.71-112.52 124.8-133.92l355.08-124.43c38.28-13.41 55.06-19.95 88.29-22.03-3.02.37-6.02 1-8.99 1.9-36.72 11.1-54.6 58.35-39.94 106.87 12.97 42.91 54.48 80.33 84.97 72.26z"></path>
			<path fill="none" stroke="#573240" stroke-width="4" stroke-linecap="round" stroke-miterlimit="10" d="m1913.507 1298.856 355.082-130.896c45.296-15.876 100.867-14.956 128.966-14.118l11.863 167.22-373.287 279.889"></path>
			<path fill="#573240" d="M2440.922 1220.992c14.661 48.522 1.033 77.947-36.703 106.866-30.446 23.332-81.605-18.168-96.265-66.69-14.661-48.522 3.22-95.772 39.939-106.866 36.717-11.094 78.368 18.168 93.029 66.69z"></path>
			<g stroke="#573240" stroke-width="4" stroke-linecap="round" stroke-miterlimit="10">
				<path fill="#FFF" d="M2489.83 1309.9a7.63 7.63 0 0 1 6.79 4.15c1.9 3.68.51 8.21-3.11 10.2l-13.79 7.57a4.444 4.444 0 0 0-1.7 6.15c4.97 8.44 13.87 13.14 23.01 13.14 4.53 0 9.11-1.15 13.3-3.57l68.01-34.11 22.18 66.4 7.12-4.24a24.842 24.842 0 0 0 11.58-26.54l-21.85-102.23a57.89 57.89 0 0 0-36.12-41.54l-109.01-40.97a159.724 159.724 0 0 0-58.54-10.64l-48.81.63c-36.72 11.1-55.6 58.35-40.94 106.87 6.4 21.17 21.74 40.01 37.29 53.7l26.8-21.21c8.55 10.9 18.71 15.86 31.39 17.17l86.4-.93z"></path>
				<path fill="none" d="m2564.311 1247.191 18.033 66.236M2556.46 1325.29l-18.033-66.235M2533.812 1337.154l-18.033-66.236"></path>
			</g>
			<ellipse fill="#B2DDDA" cx="2873.809" cy="1906.178" rx="137.052" ry="107.534"></ellipse>
			<path fill="#FFF" d="M2983.247 1946.655h-198.341a7.543 7.543 0 0 1-7.543-7.543v-37.833h205.884v45.376z"></path>
			<path fill="#FF6E00" d="M2983.247 1901.278h-205.884s24.337-52.359 99.226-66.537l106.658 66.537z"></path>
			<circle fill="#FCD4D0" cx="2858.726" cy="1840.359" r="8.729"></circle>
			<path fill="#F1B104" d="M2788.645 1851.179c9.133-5.733 21.344-4.214 28.819 4.115a21.724 21.724 0 0 1 2.946 4.135c-9.118 5.75-21.329 4.23-28.804-4.098a23.13 23.13 0 0 1-2.961-4.152z"></path>
			<circle fill="#573240" cx="2822.782" cy="1844.873" r="15.02"></circle>
			<path fill="#F1B104" d="M2853.388 1826.063c1.7 10.648-4.479 21.29-15.069 24.908a21.648 21.648 0 0 1-4.958 1.092c-1.721-10.641 4.458-21.282 15.047-24.901a23.262 23.262 0 0 1 4.98-1.099z"></path>
			<circle fill="#573240" cx="2798.26" cy="1871.357" r="13.145"></circle>
			<circle fill="#573240" cx="2842.047" cy="1853.426" r="9.426"></circle>
			<circle fill="#FCD4D0" cx="2828.376" cy="1859.893" r="9.426"></circle>
			<circle fill="#FCD4D0" cx="2820.41" cy="1880.362" r="7.566"></circle>
			<circle fill="#573240" cx="2862.971" cy="1868.347" r="8.539"></circle>
			<path fill="none" stroke="#573240" stroke-width="4" stroke-linecap="round" stroke-miterlimit="10" d="M2285.563 1453.812c0 22.529-18.27 40.788-40.799 40.788-22.53 0-40.789-18.259-40.789-40.788 0-22.53 18.259-40.789 40.789-40.789 22.529 0 40.799 18.259 40.799 40.789z"></path>
			<path fill="#FF6E00" d="M2188.42 1650.74c6.73-15.77 29.4-27.37 56.34-27.37 27 0 49.73 11.65 56.4 27.48l38.45 116.38c10.57 31.98-13.26 64.94-46.94 64.94h-95.8c-33.68 0-57.5-32.96-46.93-64.94l38.48-116.49z"></path>
			<path fill="none" stroke="#573240" stroke-width="4" stroke-linecap="round" stroke-miterlimit="10" d="M2292.67 1832.167h-95.802c-33.681 0-57.505-32.959-46.936-64.936l54.043-163.607v-149.813c0 22.529 18.259 40.788 40.789 40.788 22.529 0 40.799-18.259 40.799-40.788v149.813l54.043 163.607c10.569 31.977-13.255 64.936-46.936 64.936z"></path>
			<path fill="#FFF" d="M2259.611 1782.014c-12.907 22.594-37.383 24.969-58.884 12.686s-31.887-34.573-18.98-57.166l77.864 44.48z"></path>
			<path fill="none" stroke="#F1B104" stroke-width="4" stroke-linecap="round" stroke-miterlimit="10" d="M2259.51 1784.146c-10.017 18.052-38.21 23.72-59.872 11.613-21.615-12.082-30.732-37.956-20.019-57.173"></path>
			<path fill="#F1B104" d="M2214.009 1788.222c-.224 1.248-1.515 2.005-2.643 1.552-2.061-.828-4.108-1.822-6.125-2.974s-3.913-2.411-5.672-3.766c-.963-.741-.967-2.238-.005-3.065l18.819-16.174-4.374 24.427z"></path>
			<g fill="#F1B104">
				<path d="M2251.163 1779.72c-1.872 2.631-3.967 4.844-6.24 6.656-.892.711-2.157.512-2.745-.423l-13.604-21.667 22.05 12.596c.972.556 1.221 1.88.539 2.838zM2212.743 1755.243l-25.531-.692c-1.105-.03-1.92-1.019-1.76-2.149.407-2.878 1.249-5.806 2.564-8.755.479-1.074 1.746-1.532 2.718-.977l22.009 12.573z"></path>
			</g>
			<g fill="#F1B104">
				<path d="M2236.242 1791.152c-4.964 1.708-10.351 2.055-15.826 1.17-1.015-.164-1.694-1.123-1.523-2.176l4.097-25.255 14.317 23.325c.649 1.059.129 2.525-1.065 2.936zM2214.36 1759.961l-19.436 16.16c-.832.692-2.023.582-2.672-.235-3.354-4.227-5.64-8.971-6.593-14.019-.232-1.23.763-2.401 1.994-2.379l26.707.473z"></path>
			</g>
			<circle fill="#FFF" cx="2248.566" cy="1685.838" r="38.287"></circle>
			<circle fill="none" stroke="#F1B104" stroke-width="4" stroke-linecap="round" stroke-miterlimit="10" cx="2248.566" cy="1685.838" r="38.722"></circle>
			<path fill="#EFAF00" d="m2257.425 1657.879-7.264 21.751c-.352 1.054-2.365 1.09-2.786.05l-8.733-21.611c-.58-1.234.375-2.553 2.068-2.932a32.67 32.67 0 0 1 7.12-.779c2.606 0 5.151.306 7.595.888 1.483.354 2.332 1.509 2 2.633zM2257.425 1715.208l-7.264-21.751c-.352-1.054-2.365-1.09-2.786-.05l-8.733 21.611c-.58 1.234.375 2.553 2.068 2.932a32.67 32.67 0 0 0 7.12.779c2.606 0 5.151-.306 7.595-.888 1.483-.354 2.332-1.509 2-2.633zM2281.453 1686.316c0 1.97-.162 3.904-.468 5.784-.241 1.479-2.272 2.41-4.156 1.877l-21.827-6.661c-1.246-.38-1.169-1.701.116-2.001l21.925-5.121c1.921-.544 3.99.433 4.167 1.947.16 1.367.243 2.761.243 4.175z"></path>
			<g fill="#EFAF00">
				<path d="M2276.197 1700.863a34.576 34.576 0 0 1-7.166 9.89c-1.371 1.319-4.15 1.111-5.17-.371l-11.704-17.816c-.59-.898.667-1.849 1.898-1.435l20.393 6.859c1.529.456 2.302 1.726 1.749 2.873zM2276.485 1674.422l-20.922 7.026c-1.203.404-2.448-.499-1.923-1.394l11.26-19.183c.932-1.521 3.726-1.822 5.153-.527a34.419 34.419 0 0 1 8.201 11.249c.517 1.138-.262 2.38-1.769 2.829z"></path>
			</g>
			<path fill="#EFAF00" d="M2216.969 1686.316c0 1.97.162 3.904.468 5.784.241 1.479 2.272 2.41 4.156 1.877l21.827-6.661c1.246-.38 1.169-1.701-.116-2.001l-21.925-5.121c-1.921-.544-3.99.433-4.167 1.947a35.914 35.914 0 0 0-.243 4.175z"></path>
			<g fill="#EFAF00">
				<path d="M2221.355 1700.863a34.576 34.576 0 0 0 7.166 9.89c1.371 1.319 4.15 1.111 5.17-.371l11.704-17.816c.59-.898-.667-1.849-1.898-1.435l-20.393 6.859c-1.53.456-2.303 1.726-1.749 2.873zM2221.937 1674.422l20.922 7.026c1.203.404 2.448-.499 1.923-1.394l-11.26-19.183c-.932-1.521-3.726-1.822-5.153-.527a34.419 34.419 0 0 0-8.201 11.249c-.518 1.138.262 2.38 1.769 2.829z"></path>
			</g>
			<circle fill="#B2DDDA" cx="1909.381" cy="1803.133" r="38.606"></circle>
			<circle fill="#F1B104" cx="1995.868" cy="1818.388" r="36.371"></circle>
			<path fill="none" stroke="#B2DDDA" stroke-width="4" stroke-miterlimit="10" d="M2053.866 1778.809c0 26.984-44.531 48.866-99.458 48.866s-99.447-21.883-99.447-48.866c0-.162 0-.313.011-.474.518-26.768 44.833-48.381 99.437-48.381s98.93 21.613 99.448 48.381c.009.161.009.312.009.474z"></path>
			<path fill="#FFF" stroke="#B2DDDA" stroke-width="4" stroke-miterlimit="10" d="M1997.52 1903.14c-7.59 6.35-24.03 10.76-43.11 10.76s-35.53-4.41-43.11-10.76l8.61-20.74.43-1.03c10.63 3.88 22.1 5.99 34.07 5.99 11.97 0 23.44-2.11 34.07-5.99l.43 1.03 8.61 20.74z"></path>
			<circle fill="#FCD4D0" cx="1963.415" cy="1749.256" r="35.47"></circle>
			<path fill="#573240" d="M1872.547 1643.225a2.686 2.686 0 0 1 3.839 1.122l65.992 137.187c3.24 6.735 9.378 11.562 16.645 13.307 7.634 1.834 15.016 7.883 19.284 16.757 6.679 13.884 3.198 29.408-7.768 34.683-10.966 5.275-25.267-1.695-31.946-15.579-4.269-8.874-4.388-18.417-1.055-25.526 3.172-6.767 3.232-14.576-.008-21.31l-65.929-137.056c-.608-1.264-.251-2.852.946-3.585z"></path>
			<path fill="#FFF" stroke="#B2DDDA" stroke-width="4" stroke-miterlimit="10" d="M2053.87 1778.81v9.1c0 42.96-27.24 79.56-65.39 93.46-10.63 3.88-22.1 5.99-34.07 5.99-11.97 0-23.44-2.11-34.07-5.99-38.15-13.9-65.38-50.5-65.38-93.46v-9.1c0 26.98 44.52 48.87 99.45 48.87s99.46-21.89 99.46-48.87z"></path>
			<ellipse fill="#FFF" stroke="#B2DDDA" stroke-width="4" stroke-miterlimit="10" cx="3148.014" cy="1794.774" rx="99.889" ry="96.228"></ellipse>
			<path fill="#FFF" stroke="#B2DDDA" stroke-width="4" stroke-miterlimit="10" d="M3095.396 1699.486v74.552c0 25.968 21.051 47.02 47.02 47.02h11.196c25.968 0 47.02-21.051 47.02-47.02v-74.552h-105.236z"></path>
			<ellipse fill="#FFF" stroke="#B2DDDA" stroke-width="4" stroke-miterlimit="10" cx="3148.014" cy="1699.486" rx="52.618" ry="43.203"></ellipse>
			<circle fill="none" stroke="#B2DDDA" stroke-width="4" stroke-miterlimit="10" cx="3219.004" cy="1725.942" r="18.488"></circle>
			<path fill="#573240" d="M3196.45 1710.547c-6.1 17.235-25.486 29.828-48.439 29.828-23.211 0-42.752-12.862-48.625-30.376 12.583-11.879 29.56-19.169 48.243-19.169 18.972 0 36.177 7.506 48.821 19.717z"></path>
			<path fill="#F1B104" d="M3413.116 1835.236a2.692 2.692 0 0 1-2.682 2.98h-152.599c-7.491 0-14.519 3.448-19.253 9.253-4.974 6.099-13.646 10.138-23.517 10.138-15.444 0-27.954-9.89-27.954-22.087s12.511-22.087 27.954-22.087c9.871 0 18.543 4.039 23.517 10.138 4.734 5.805 11.762 9.253 19.253 9.253h152.452c1.408 0 2.687 1.013 2.829 2.412z"></path>
			<path fill="#FF6E00" d="M1752.785 1867.288h-100.299l.011-79.603c.345-22.346 22.659-40.389 50.139-40.389 27.48 0 49.794 18.043 50.139 40.389l.01 79.603z"></path>
			<path fill="none" stroke="#573240" stroke-width="4" stroke-linecap="round" stroke-miterlimit="10" d="M1752.785 1668.5v198.787h-100.299V1668.5c0 22.595 22.454 40.907 50.15 40.907 27.694.001 50.149-18.312 50.149-40.907z"></path>
			<path fill="none" stroke="#573240" stroke-width="4" stroke-linecap="round" stroke-miterlimit="10" d="M1752.785 1668.5c0 22.595-22.454 40.907-50.15 40.907-27.696 0-50.15-18.313-50.15-40.907 0-.172 0-.355.011-.528.345-22.347 22.659-40.389 50.139-40.389 27.48 0 49.794 18.042 50.139 40.389.011.173.011.356.011.528z"></path>
			<g fill="none" stroke="#FF6E00" stroke-width="4" stroke-miterlimit="10">
				<path stroke-linecap="round" d="M1702.635 1703.145v-117.166c0-20.357-15.681-37.278-35.979-38.825l-128.392-9.783"></path>
				<circle cx="1608.958" cy="1558.304" r="15.572"></circle>
			</g>
			<path fill="none" stroke="#FF6E00" stroke-width="4" stroke-linecap="round" stroke-miterlimit="10" d="M1702.635 1715.406v41.032"></path>
			<path fill="#B2DDDA" d="M1728.87 2188.9c-69.42 85.14-165.06 97.39-170.87 98.06l-79.42-138.67a28.357 28.357 0 0 0-24.55-14.04l-78.33.3.78-195.35h126.65c56.07 0 107.63 30.75 134.28 80.09l91.46 169.61z"></path>
			<g fill="#F1B104">
				<path d="M1787.55 2299.17c-72.67 54.17-149.16 74.36-165.5 78.22l-64.33-90.4.28-.03c5.81-.67 101.45-12.92 170.87-98.06.12-.15.25-.3.37-.45l25.7 48.8 32.61 61.92zM1814.67 2350.67c-20.93 9.69-47.74 17.13-73.8 22.26-8.05 1.59-11.84-9.55-4.51-13.24 35.57-17.91 63.12-37.86 63.12-37.86l15.19 28.84z"></path>
			</g>
			<path fill="none" stroke="#FFF" stroke-width="5" stroke-linecap="round" stroke-linejoin="round" stroke-miterlimit="10" d="M1557.715 2291.307s99.873-14.605 171.528-102.858"></path>
			<path fill="#FFF" d="m1855.09 2409.37-188.44 30.06-7.03-9.56 201.83-32.26c2.69-.31 4.28-2.59 4.21-4.89 2.19 7.49-2.67 15.39-10.57 16.65z"></path>
			<path fill="#573240" d="m1861.449 2397.609-201.834 32.261-38.456-52.27c14.241-3.301 92.297-23.198 166.391-78.434l11.931 22.66s-27.547 19.949-63.124 37.861c-7.327 3.689-3.535 14.834 4.513 13.247 26.058-5.138 52.877-12.578 73.805-22.266l.227.436 48.924 38.035c3.367 2.61 1.853 7.995-2.377 8.47z"></path>
			<path fill="#B2DDDA" d="m1600.777 2137.094-22.594 149.899c-110.017 28.623-199.154 0-199.154 0v-133.452c0-10.494-8.498-18.992-18.981-18.992h-150.255c-88.749 0-160.684-71.946-160.684-160.684v-34.663h381.375c105.336-.001 185.996 93.72 170.293 197.892z"></path>
			<g fill="#F1B104">
				<path d="M1482.44 2429.14c39.27 6.65 73.28 6.91 73.28 6.91l-4.86 32.24c-22.59-4.6-48.61-14.5-72.64-25.81-7.42-3.49-3.87-14.71 4.22-13.34zM1578.18 2286.99l-18.64 123.74c-92.42.58-167.08-29.65-180.51-35.43v-88.31s89.14 28.63 199.15 0z"></path>
			</g>
			<path fill="none" stroke="#FFF" stroke-width="5" stroke-linecap="round" stroke-linejoin="round" stroke-miterlimit="10" d="M1049.108 1941.358v32.506c0 88.738 71.935 160.684 160.684 160.684h150.255c10.483 0 18.981 8.498 18.981 18.992v133.452s89.137 28.623 199.154 0l22.594-149.899c15.703-104.171-64.957-197.892-170.294-197.892H1400.4"></path>
			<path fill="#FFF" d="m1567.42 2531.67-.02.27c-.58 7.88-9.02 12.61-16.04 8.99l-172.33-88.87v-11.87l181.69 93.63c2.62 1.51 5.61.2 6.7-2.15z"></path>
			<path fill="#573240" d="m1567.66 2528.4-.24 3.27c-1.09 2.35-4.08 3.66-6.7 2.15l-181.69-93.63v-64.89c13.43 5.78 88.09 36.01 180.51 35.43l-3.82 25.32s-34.01-.26-73.28-6.91c-8.09-1.37-11.64 9.85-4.22 13.34 24.03 11.31 50.05 21.21 72.64 25.81l-.07.48 16.87 59.63z"></path>
			<path fill="#F1B104" d="M1490.063 1711.713c16.12 17.286 100.465 89.866 237.756 85.514 0 0 3.563 14.314-6.257 20.039-6.027 3.514-34.307 13.991-35.148 25.764-.477 6.68 31.49 6.68 44.372-4.771 12.882-11.451 14.791-39.457 42.131-35.64l-11.353 78.184c-8.699 26.41-48.186 45.37-75.831 48.357-74.135 8.009-195.699 10.569-293.448-75.469l97.778-141.978z"></path>
			<path fill="#573240" d="M1255.09 1563.83c-10.45 17.99-31.25 30.26-55.21 30.26-34.45 0-62.38-25.36-62.38-56.64 0-29.94 25.6-54.46 58.01-56.49 3.93-20.75 22.17-36.45 44.07-36.45 11.48 0 21.96 4.32 29.9 11.42v-15.11c0-33.97 28.85-60.78 62.73-58.29l47.77 3.56c25.72 1.92 43.61 26.4 37.63 51.49l-18.81 72.98h.22c26.4 0 47.8 21.4 47.8 47.8s-21.4 47.8-47.8 47.8c-8.656 0-16.774-2.3-23.777-6.323l-120.153-36.007z"></path>
			<path fill="#F1B104" d="M1374.92 1533.08v59.08a121.886 121.886 0 0 0-74.16-33.37c8.47-7.39 13.83-18.26 13.83-30.39 0-7.94-2.29-15.33-6.26-21.56h-20.8c-11.71 0-21.21-9.49-21.21-21.21v-3.33c0-11.71 9.5-21.2 21.21-21.2h5.67c8.67 0 15.7 7.03 15.7 15.7v3.49c0-9.97 7.74-18.15 17.68-18.86 19.71-1.4 51.25-9.25 70.03-42.7 1.57-2.81 5.82-1.95 6.14 1.26l7.31 72.05c2.16 21.33-14.01 39.93-35.14 41.04z"></path>
			<path fill="none" stroke="#573240" stroke-width="4" stroke-linecap="round" stroke-miterlimit="10" d="M1376.164 1535.184h-20.261c-19.427 0-39.422-10.41-49.06-27.279M1298.755 1485.378c0-7.16-5.804-12.965-12.965-12.965"></path>
			<path fill="none" stroke="#573240" stroke-width="4" stroke-linecap="round" stroke-linejoin="round" stroke-miterlimit="10" d="M1382.432 1503.673c-6.917 1.852-15.104-2.253-16.956-9.17l-5.578 4.277"></path>
			<path fill="none" stroke="#573240" stroke-width="4" stroke-linecap="round" stroke-miterlimit="10" d="M1408.656 1455.48c-3.143-7.251-10.048-10.206-18.164-6.789-4.533 1.908-16.537 19.204-8.255 36.686"></path>
			<ellipse fill="#573240" cx="1395.123" cy="1469.715" rx="3.698" ry="5.964"></ellipse>
			<ellipse fill="#573240" cx="1357.376" cy="1469.715" rx="3.698" ry="5.964"></ellipse>
			<path fill="#FF6E00" d="m1490.063 1711.713-111.494-115.925a121.995 121.995 0 0 0-87.928-37.428c-45.725 0-87.61 25.569-108.508 66.239L1020.476 1942.2h379.926l-8.116-88.509 97.777-141.978z"></path>
			<path fill="none" stroke="#573240" stroke-width="4" stroke-linecap="round" stroke-miterlimit="10" d="M1392.286 1853.691c-20.173-15.432-82.676-58.85-109.394-107.516"></path>
		</g>
	</switch>
</svg>