<svg xmlns="http://www.w3.org/2000/svg" width="5000" height="3500" xml:space="preserve">
	<switch>
		<g>
			<path fill="transparent" d="M0 0h5000v3500H0z"></path>
			<path fill="#FF6E00" d="M4188.17 1934.15h-51.21l-82.83-720.6h51.21z"></path>
			<path fill="#FFF" d="m4111.246 1264.903-45.32 51.18-2.91-25.3 45.33-51.18zM4118.576 1328.633l-45.33 51.18-2.91-25.3 45.33-51.18zM4125.896 1392.363l-45.32 51.181-2.91-25.301 45.33-51.18zM4133.226 1456.093l-45.33 51.181-2.91-25.3 45.33-51.18zM4140.546 1519.823l-45.32 51.17-2.91-25.29 45.33-51.179zM4147.876 1583.553l-45.33 51.171-2.91-25.291 45.33-51.179zM4155.206 1647.283l-45.33 51.17-2.91-25.29 45.33-51.179zM4162.526 1711.004l-45.33 51.179-2.9-25.29 45.32-51.179zM4169.856 1774.734l-45.33 51.179-2.91-25.3 45.33-51.17zM4177.176 1838.464l-45.33 51.179-2.9-25.3 45.32-51.17z"></path>
			<path fill="#A9D8D5" d="m4444.22 1934.15-84.62 742c-4.71 40.97-39.39 71.89-80.63 71.89h-276.26c-41.24 0-75.92-30.92-80.63-71.89l-85.12-742h607.26z"></path>
			<path fill="#FFF" d="m4184.51 1902.19-28.31 31.96h-19.23l-.7-6.08 45.33-51.17z"></path>
			<path fill="none" stroke="#A9D8D5" stroke-width="5" stroke-miterlimit="10" d="M4458.656 1814.373 4359.6 2676.15c-4.709 40.969-39.392 71.893-80.63 71.893h-276.267c-41.238 0-75.921-30.925-80.63-71.893l-99.056-861.777h635.639z"></path>
			<path fill="#F1B104" d="m4068.659 2263.65 263.756-189.228c33.825 73.775 14.492 161.353-50.524 207.998-65.016 46.644-154.182 36.907-213.232-18.77z"></path>
			<path fill="#FF6E00" d="m4236.705 2281.885-23.473-95.542 82.894 52.768a133.06 133.06 0 0 1-26.896 25.663 133.057 133.057 0 0 1-32.525 17.111zM4223.39 2172.923l102.328-22.714c.327 25.846-6.106 51.221-18.926 73.224l-83.402-50.51zM4142.854 2281.671l54.589-90.135 21.188 95.45c-25.046 5.237-51.272 3.275-75.777-5.315zM4120.768 2271.852c-11.257-6.136-21.902-13.811-31.586-22.934l91.21-65.437-59.624 88.371zM4219.732 2155.256l92.151-66.112c5.604 12.212 9.484 24.885 11.667 37.657l-103.818 28.455z"></path>
			<path fill="none" stroke="#573240" stroke-width="5" stroke-linecap="round" stroke-miterlimit="10" d="M4443.287 1765.12h-604.902c-27.202 0-49.253 22.052-49.253 49.254h703.408c0-27.203-22.051-49.254-49.253-49.254zM4444.708 1765.12c-29.292-124.852-140.666-213.12-268.907-213.12h-69.931c-128.241 0-239.615 88.268-268.906 213.119h607.744z"></path>
			<path fill="#E0F1F0" d="M4232.025 2695.934h-105.37c-13.167 0-23.84-10.674-23.84-23.84v-105.37c0-13.167 10.673-23.84 23.84-23.84h105.37c13.167 0 23.84 10.674 23.84 23.84v105.37c0 13.166-10.673 23.84-23.84 23.84zM4316.496 2506.259h-82.92c-13.167 0-23.84-10.674-23.84-23.84V2399.5c0-13.167 10.673-23.84 23.84-23.84h82.92c13.167 0 23.84 10.674 23.84 23.84v82.919c-.001 13.166-10.674 23.84-23.84 23.84zM4034.913 2569.996h-82.92c-13.167 0-23.84-10.674-23.84-23.84v-82.919c0-13.167 10.673-23.84 23.84-23.84h82.92c13.167 0 23.84 10.674 23.84 23.84v82.919c-.001 13.167-10.674 23.84-23.84 23.84z"></path>
			<circle fill="none" stroke="#FFF" stroke-width="5" stroke-miterlimit="10" cx="4090.829" cy="2170.254" r="14.132"></circle>
			<circle fill="none" stroke="#FFF" stroke-width="5" stroke-miterlimit="10" cx="4016.488" cy="2377.037" r="14.132"></circle>
			<circle fill="none" stroke="#FFF" stroke-width="5" stroke-miterlimit="10" cx="3982.355" cy="2048.06" r="20"></circle>
			<circle fill="none" stroke="#FFF" stroke-width="5" stroke-miterlimit="10" cx="4322.551" cy="2254.114" r="20"></circle>
			<circle fill="none" stroke="#FFF" stroke-width="5" stroke-miterlimit="10" cx="4160.163" cy="2388.537" r="11.5"></circle>
			<circle fill="none" stroke="#FFF" stroke-width="5" stroke-miterlimit="10" cx="4350.307" cy="2294.372" r="7.5"></circle>
			<circle fill="none" stroke="#FFF" stroke-width="5" stroke-miterlimit="10" cx="4273.003" cy="2042.647" r="12.5"></circle>
			<circle fill="none" stroke="#FFF" stroke-width="5" stroke-miterlimit="10" cx="3944.567" cy="2089.692" r="7.5"></circle>
			<circle fill="none" stroke="#FFF" stroke-width="5" stroke-miterlimit="10" cx="3952.067" cy="2323.347" r="7.5"></circle>
			<path fill="#573240" d="M2992.256 832.133v175.97h-77.08V829.664h-376.92v178.439h-77.08v-175.97l80.17-80.179h370.73z"></path>
			<path fill="#F1B104" d="M2961.26 1008.11V832.13l-80.18-80.18h-370.73l-80.17 80.18v175.98H2121.8l-200 1739.94h1344.7V1008.11h-305.24zm-77.08 0h-376.92V829.66h376.92v178.45z"></path>
			<path fill="#573240" d="M3507.496 2748.044h-241V1008.103h41z"></path>
			<path fill="#FFF" d="M2917.56 1583.73c0 131.2-81.02 242.49-193.3 281.52v-213.32c0-19.38 9.58-37.56 25.71-49.81 16.95-12.87 28.17-35.31 28.17-60.84 0-39.96-27.48-72.32-61.37-72.32s-61.37 32.36-61.37 72.32c0 25.53 11.22 47.97 28.17 60.84 16.13 12.25 25.71 30.43 25.71 49.81v218.05c-23.44 6.65-48.08 10.19-73.51 10.19-25.25 0-49.72-3.49-73.01-10.05v-189.86c0-19.38 9.58-37.56 25.71-49.81 9.42-7.15 17.08-17.28 22.02-29.24 3.94-9.54 6.15-20.26 6.15-31.59v-93.17c0-4.14-3.35-7.49-7.49-7.49h-.01c-4.13 0-7.49 3.35-7.49 7.49v101.01c0 5.37-2.17 10.23-5.69 13.75s-8.38 5.7-13.75 5.7c-10.74 0-19.45-8.71-19.45-19.45v-101.01a7.5 7.5 0 0 0-2.19-5.3 7.5 7.5 0 0 0-5.3-2.19c-4.14 0-7.49 3.35-7.49 7.49v101.01c0 10.74-8.7 19.45-19.44 19.45h-.01c-10.74 0-19.45-8.71-19.45-19.45v-101.01a7.5 7.5 0 0 0-2.19-5.3 7.5 7.5 0 0 0-5.3-2.19c-4.14 0-7.49 3.35-7.49 7.49v93.17c0 11.33 2.21 22.05 6.15 31.59 4.94 11.96 12.59 22.09 22.01 29.24 16.14 12.25 25.72 30.43 25.72 49.81v185.17c-112.54-38.88-193.8-150.31-193.8-281.7 0-163.72 126.16-296.45 281.79-296.45s281.79 132.73 281.79 296.45z"></path>
			<path fill="none" stroke="#573240" stroke-width="5" stroke-linecap="round" stroke-miterlimit="10" d="M2430.176 831.133h531.08"></path>
			<path fill="#F1B104" stroke="#573240" stroke-width="5" stroke-linecap="round" stroke-miterlimit="10" d="m3635.033 2445.774-108.58-218.08c-25.38-50.97-77.41-83.19-134.35-83.19h-705.69c-56.94 0-108.97 32.22-134.35 83.19l-108.58 218.08h1191.55z"></path>
			<path fill="#FFF" d="M3427.913 2514.264c-56.237 60.029-128.912 83.317-182.042 33.542-53.131-49.774-34.628-123.812 21.609-183.842 56.237-60.029 147.545-85.512 191.847-44.008 44.303 41.504 24.823 134.279-31.414 194.308z"></path>
			<circle transform="rotate(-78.918 3332.145 2453.697)" fill="#F1B104" cx="3332.087" cy="2453.556" r="68.883"></circle>
			<path fill="#FFF" d="M4056.549 2395.163c19.978 63.583 7.483 124.142-48.793 141.823-56.276 17.682-101.161-24.848-121.139-88.431-19.978-63.583-1.615-138.165 45.31-152.909 46.925-14.743 104.644 35.934 124.622 99.517z"></path>
			<circle transform="rotate(-45.001 3975.552 2438.682)" fill="#F1B104" cx="3975.561" cy="2438.624" r="55.812"></circle>
			<path fill="#FF6E00" d="m2974.27 2523.483-243.051-133.998c40.691-46.318 112.531-58.4 172.443-25.37 59.912 33.031 88.054 100.234 70.608 159.368z"></path>
			<path fill="none" stroke="#573240" stroke-width="4" stroke-linecap="round" stroke-linejoin="round" stroke-miterlimit="10" d="M2883.756 2423.483c-4.24 7.691-23.339 19.085-23.339 19.085s-.56-22.233 3.68-29.924c4.24-7.691 12.078-11.499 17.507-8.506 5.428 2.993 6.392 11.654 2.152 19.345z"></path>
			<g fill="none" stroke="#573240" stroke-width="4" stroke-linecap="round" stroke-linejoin="round" stroke-miterlimit="10">
				<path d="M2908.437 2462.686c-8.711 1.111-29.177-7.594-29.177-7.594s17.625-13.563 26.337-14.674c8.712-1.111 16.409 2.973 17.194 9.123.784 6.148-5.643 12.034-14.354 13.145zM2817.771 2412.701c3.711 7.96 21.997 20.618 21.997 20.618s2.061-22.144-1.65-30.104-11.274-12.289-16.892-9.669-7.166 11.195-3.455 19.155z"></path>
			</g>
			<path fill="#FF6E00" d="m3637.531 2477.123 201.474-172.266c27.41 52.616 13.825 121.407-35.838 163.871-49.664 42.464-118.957 44.535-165.636 8.395z"></path>
			<path fill="none" stroke="#573240" stroke-width="4" stroke-linecap="round" stroke-linejoin="round" stroke-miterlimit="10" d="M3757.113 2430.294c-5.404-6.473-9.068-27.592-9.068-27.592s19.961 7.185 25.365 13.658c5.403 6.473 6.135 14.84 1.635 18.688-4.5 3.848-12.529 1.72-17.932-4.754z"></path>
			<g fill="none" stroke="#573240" stroke-width="4" stroke-linecap="round" stroke-linejoin="round" stroke-miterlimit="10">
				<path d="M3713.891 2438.936c1.962-8.219 16.635-23.616 16.635-23.616s6.093 20.543 4.131 28.762-8.201 13.731-13.935 12.31c-5.735-1.421-8.793-9.236-6.831-17.456zM3789.048 2374.675c-8.335.585-25.785 12.654-25.785 12.654s18.995 9.511 27.33 8.927c8.335-.585 14.746-5.89 14.32-11.849s-7.53-10.317-15.865-9.732z"></path>
			</g>
			<path fill="#A9D8D5" d="M3286.187 2480.888s-77.31-35.442-73.784-140.338c3.526-104.896 97.254-138.396 114.773-105.595 11.515 21.559-1.99 48.356-39.524 62.222-42.508 15.705-67.791 28.813-61.648 78.814 5.55 45.179 26.466 79.334 60.183 104.897z"></path>
			<path fill="none" stroke="#573240" stroke-width="4" stroke-linecap="round" stroke-linejoin="round" stroke-miterlimit="10" d="M3286.187 2480.888s-89.03-60.161-55.983-158.195c27.504-81.591 82.143-74.433 82.143-74.433"></path>
			<path fill="none" stroke="#573240" stroke-width="4" stroke-linecap="round" stroke-linejoin="round" stroke-miterlimit="10" d="M3244.368 2291.482c5.729-8.103 10.855-21.582 8.156-37.512"></path>
			<circle fill="#A9D8D5" cx="3106.168" cy="2431.959" r="81.932"></circle>
			<g fill="none" stroke="#573240" stroke-width="4" stroke-linecap="round" stroke-linejoin="round" stroke-miterlimit="10">
				<path d="M3118.436 2400.525c-.795 6.065-10.284 18.307-10.284 18.307s-6.014-14.274-5.219-20.339c.795-6.064 4.91-10.526 9.19-9.965 4.282.561 7.107 5.933 6.313 11.997zM3094.285 2464.482c.795-6.065 10.284-18.307 10.284-18.307s6.014 14.274 5.219 20.339c-.795 6.064-4.91 10.526-9.19 9.965-4.282-.561-7.108-5.932-6.313-11.997zM3074.382 2420.428c6.064.795 18.307 10.284 18.307 10.284s-14.274 6.014-20.339 5.219c-6.065-.795-10.526-4.909-9.965-9.19.561-4.282 5.932-7.108 11.997-6.313zM3138.339 2444.579c-6.064-.795-18.307-10.284-18.307-10.284s14.274-6.014 20.339-5.219c6.065.795 10.526 4.909 9.965 9.19-.562 4.282-5.933 7.108-11.997 6.313z"></path>
			</g>
			<circle fill="#FFF" cx="2555.866" cy="2450.959" r="48.67"></circle>
			<path fill="#A9D8D5" d="M2732.951 2445.919c-19.967-.669-42.176-6.58-67.038-15.26-99.134-34.639-98.525-124.601-66.841-132.188 24.803-5.947 43.434 17.544 45.482 57.53 2.332 45.281 10.647 77.322 60.229 86.362 9.431 1.714 18.855 2.936 28.168 3.556z"></path>
			<path fill="none" stroke="#573240" stroke-width="4" stroke-linecap="round" stroke-linejoin="round" stroke-miterlimit="10" d="M2746.95 2446.125c-28.163 1.555-60.623-4.169-92.394-26.468-52.213-36.647-50.067-103.945-50.067-103.945"></path>
			<path fill="#A9D8D5" d="M2740.113 2444.899c3.671.602-55.733-4.815-71.962-56.55-12.077-38.5 17.832-47.422 29.825-35.309 13.373 13.506 2.968 50.538 19.939 75.104 4.922 7.122 4.249 13.81 22.198 16.755z"></path>
			<path fill="none" stroke="#573240" stroke-width="4" stroke-linecap="round" stroke-linejoin="round" stroke-miterlimit="10" d="M2687.123 2364.437s-8.735 65.359 59.827 81.687"></path>
			<path fill="#A9D8D5" d="M3586.545 2447.419c-4.345.891-8.163.694-11.582-.321 32.09-14.511 42.834-46.02 50.491-87.162 8.979-48.299 36.252-73.987 66.611-62.935 38.79 14.108 25.165 123.581-105.52 150.418z"></path>
			<path fill="none" stroke="#573240" stroke-width="4" stroke-linecap="round" stroke-linejoin="round" stroke-miterlimit="10" d="M3467.207 2461.913c35.709 3.479 98.811-1.713 140.491-27.238 68.499-41.948 68.603-117.21 68.603-117.21"></path>
			<path fill="#A9D8D5" d="M3475.969 2460.795c-4.702.532 71.125-2.777 94.758-65.21 17.587-46.461-19.914-59.057-35.862-44.898-17.783 15.788-6.707 61.709-29.707 90.835-6.669 8.446-6.202 16.671-29.189 19.273z"></path>
			<path fill="none" stroke="#573240" stroke-width="4" stroke-linecap="round" stroke-linejoin="round" stroke-miterlimit="10" d="M3548 2365.249s7.308 80.508-80.793 96.664"></path>
			<g fill="none" stroke="#573240" stroke-width="5" stroke-linecap="round" stroke-miterlimit="10">
				<path d="m4116.033 2445.774-108.58-218.08c-25.38-50.97-77.41-83.19-134.35-83.19h-481c56.94 0 108.97 32.22 134.35 83.19l108.58 218.08h481z"></path>
				<path d="m3635.033 2445.774-108.58-218.08c-25.38-50.97-77.41-83.19-134.35-83.19h-705.69c-56.94 0-108.97 32.22-134.35 83.19l-108.58 218.08h1191.55z"></path>
			</g>
			<path fill="#573240" d="M2827.814 2144.504h345.824v165.94h-345.824z"></path>
			<g fill="#FFF">
				<path d="m3635.033 2446.774-108.583 218.084c-25.376 50.967-77.408 83.186-134.344 83.186h-705.698c-56.935 0-108.968-32.219-134.344-83.186l-108.582-218.084h1191.551z"></path>
				<path d="m4116.033 2445.774-108.58 218.08c-25.38 50.97-77.41 83.19-134.35 83.19h-481c56.94 0 108.97-32.22 134.35-83.19l108.58-218.08h481z"></path>
				<path d="m4116.03 2445.77-108.58 218.08c-25.38 50.97-77.41 83.19-134.35 83.19H2686.41c-56.94 0-108.97-32.22-134.35-83.19l-108.58-218.08h1672.55z"></path>
			</g>
			<path fill="none" stroke="#573240" stroke-width="5" stroke-linecap="round" stroke-miterlimit="10" d="M4007.453 2663.854c-25.38 50.97-77.41 83.19-134.35 83.19h-481c56.94 0 108.97-32.22 134.35-83.19l108.58-218.08"></path>
			<path fill="none" stroke="#573240" stroke-width="5" stroke-linecap="round" stroke-miterlimit="10" d="m3635.033 2445.774-108.58 218.08c-25.38 50.97-77.41 83.19-134.35 83.19h-735.69M2409.124 2446.774h1741.268"></path>
			<g fill="none" stroke="#A9D8D5" stroke-width="4" stroke-miterlimit="10">
				<path d="M3031.292 2251.927h-29.762v-29.762c0-30.893 25.044-55.937 55.937-55.937h29.762v29.762c0 30.893-25.044 55.937-55.937 55.937zM3087.229 2166.228l-105.387 105.387"></path>
				<path d="M3055.302 2167.228v30.927h30.927M3025.967 2176.422v51.068h51.068M2976.355 2254.081h7.811v-7.811c0-30.893-25.044-55.937-55.937-55.937h-7.811v7.811c0 30.893 25.044 55.937 55.937 55.937zM2920.418 2190.334l71.353 71.352"></path>
				<path d="M2960.988 2200.916v29.987h-29.987"></path>
			</g>
			<path fill="#573240" d="m3759.125 1919.405-76.8 154.257c-20.816 41.804-63.489 68.229-110.189 68.229h-203.591c46.7 0 89.374-26.426 110.189-68.229l76.8-154.257h203.591z"></path>
			<path fill="#FF6E00" d="m3555.534 1919.405-8.169 16.403-68.631 137.854c-20.816 41.804-63.489 68.229-110.189 68.229H3076.82c-46.7 0-89.374-26.426-110.189-68.229L2898 1935.808l-8.169-16.403h665.703z"></path>
			<path fill="#573240" d="m3555.534 1919.405-12.002 24.367h-641.366l-12.336-24.367z"></path>
			<path fill="#FCD4D0" d="m3787.901 1919.407-92.309-185.401c-21.577-43.332-65.81-70.724-114.218-70.724h-211.4c48.408 0 92.641 27.392 114.218 70.724l92.309 185.401h211.4z"></path>
			<path fill="#FFF" d="m3576.501 1919.407-92.309-185.401c-21.577-43.332-65.81-70.724-114.218-70.724h-302.39c-48.407 0-92.641 27.392-114.218 70.724l-92.309 185.401h715.444z"></path>
			<path fill="#F6ACC1" d="m1990.513 1731.204-68.057 592.14h-927l69.82-607.48h911.559c8.226-.001 14.617 7.167 13.678 15.34z"></path>
			<path fill="#FCD4D0" d="M1850.576 1715.863c-10.998 0-20.248 8.248-21.504 19.174l-7.034 61.194c-5.489 47.749-45.912 83.792-93.976 83.792H991.497c-56.523 0-100.431-49.244-93.976-105.397l5.068-44.087c.961-8.363 8.042-14.676 16.46-14.676h931.527z"></path>
			<ellipse fill="#573240" cx="1563.638" cy="2439.473" rx="288.653" ry="294.35"></ellipse>
			<path fill="#A9D8D5" d="M1512.64 2145.12c-159.42 0-288.66 131.79-288.66 294.35 0 162.57 129.24 294.35 288.66 294.35s288.65-131.78 288.65-294.35c0-162.56-129.23-294.35-288.65-294.35zm0 395.64c-53.67 0-97.17-44.37-97.17-99.09 0-54.72 43.5-99.09 97.17-99.09 53.66 0 97.17 44.37 97.17 99.09 0 54.72-43.51 99.09-97.17 99.09z"></path>
			<path fill="#FFF" d="M1555.259 2197.113h-24.64a4.977 4.977 0 0 1-4.977-4.977v-.34a4.977 4.977 0 0 1 4.977-4.977h24.64a4.977 4.977 0 0 1 4.977 4.977v.34a4.977 4.977 0 0 1-4.977 4.977z"></path>
			<path fill="#573240" d="M1594.974 2302.423h-24.64a4.977 4.977 0 0 1-4.977-4.977v-.34a4.977 4.977 0 0 1 4.977-4.977h24.64a4.977 4.977 0 0 1 4.977 4.977v.34a4.977 4.977 0 0 1-4.977 4.977z"></path>
			<path fill="#FFF" d="m1389.374 2239.625-20.834 13.156a4.976 4.976 0 0 1-6.865-1.551l-.182-.288a4.976 4.976 0 0 1 1.551-6.865l20.834-13.156a4.976 4.976 0 0 1 6.865 1.551l.182.288a4.976 4.976 0 0 1-1.551 6.865zM1710.268 2289.761l-13.446 20.648a4.977 4.977 0 0 1-6.886 1.455l-.285-.186a4.977 4.977 0 0 1-1.455-6.886l13.446-20.648a4.977 4.977 0 0 1 6.886-1.455l.285.186a4.976 4.976 0 0 1 1.455 6.886zM1504.247 2286.815l-20.834 13.156a4.976 4.976 0 0 1-6.865-1.551l-.182-.288a4.976 4.976 0 0 1 1.551-6.865l20.834-13.156a4.976 4.976 0 0 1 6.865 1.551l.182.288a4.977 4.977 0 0 1-1.551 6.865z"></path>
			<path fill="#573240" d="m1451.714 2218.431-14.364-20.021a4.977 4.977 0 0 1 1.143-6.945l.277-.198a4.977 4.977 0 0 1 6.945 1.143l14.364 20.021a4.977 4.977 0 0 1-1.143 6.945l-.277.198a4.978 4.978 0 0 1-6.945-1.143z"></path>
			<path fill="#FF6E00" d="m1651.172 2295.2-14.364-20.021a4.977 4.977 0 0 1 1.143-6.945l.277-.198a4.977 4.977 0 0 1 6.945 1.143l14.364 20.021a4.977 4.977 0 0 1-1.143 6.945l-.277.198a4.978 4.978 0 0 1-6.945-1.143zM1341.636 2302.987l-19.158-15.495a4.978 4.978 0 0 1-.74-7l.214-.265a4.976 4.976 0 0 1 6.999-.74l19.158 15.495a4.977 4.977 0 0 1 .74 7l-.214.265a4.976 4.976 0 0 1-6.999.74z"></path>
			<path fill="#FFF" d="m1638.858 2232.931-19.158-15.495a4.976 4.976 0 0 1-.74-6.999l.214-.265a4.977 4.977 0 0 1 7-.74l19.158 15.495a4.977 4.977 0 0 1 .74 7l-.214.265a4.978 4.978 0 0 1-7 .739z"></path>
			<path fill="#F1B104" d="m1413.603 2297.001 4.195-24.281a4.978 4.978 0 0 1 5.752-4.057l.335.058a4.977 4.977 0 0 1 4.057 5.752l-4.195 24.28a4.978 4.978 0 0 1-5.752 4.057l-.335-.058a4.975 4.975 0 0 1-4.057-5.751zM1383.696 2382.855l4.195-24.281a4.978 4.978 0 0 1 5.752-4.057l.335.058a4.977 4.977 0 0 1 4.057 5.752l-4.195 24.28a4.978 4.978 0 0 1-5.752 4.057l-.335-.058a4.976 4.976 0 0 1-4.057-5.751z"></path>
			<path fill="#FF6E00" d="m1494.385 2238.203 19.354-15.25a4.978 4.978 0 0 1 6.99.829l.211.268a4.978 4.978 0 0 1-.829 6.99l-19.354 15.25a4.978 4.978 0 0 1-6.99-.829l-.211-.267a4.979 4.979 0 0 1 .829-6.991z"></path>
			<path fill="#F1B104" d="m1571.708 2249.454 4.195-24.28a4.978 4.978 0 0 1 5.752-4.057l.335.058a4.977 4.977 0 0 1 4.057 5.752l-4.195 24.28a4.978 4.978 0 0 1-5.752 4.057l-.335-.058a4.978 4.978 0 0 1-4.057-5.752z"></path>
			<path fill="#FFF" d="m1686.799 2596.906 14.658-19.806a4.977 4.977 0 0 1 6.961-1.04l.274.203a4.977 4.977 0 0 1 1.04 6.961l-14.658 19.806a4.977 4.977 0 0 1-6.961 1.04l-.274-.202a4.978 4.978 0 0 1-1.04-6.962z"></path>
			<path fill="#573240" d="m1589.989 2559.342 14.658-19.806a4.977 4.977 0 0 1 6.961-1.04l.274.203a4.977 4.977 0 0 1 1.04 6.961l-14.658 19.806a4.977 4.977 0 0 1-6.961 1.04l-.274-.202a4.979 4.979 0 0 1-1.04-6.962z"></path>
			<path fill="#FFF" d="m1751.308 2438.276 1.819-24.573a4.977 4.977 0 0 1 5.331-4.596l.34.025a4.977 4.977 0 0 1 4.596 5.331l-1.819 24.573a4.977 4.977 0 0 1-5.331 4.596l-.339-.025a4.978 4.978 0 0 1-4.597-5.331zM1615.451 2360.915l1.819-24.573a4.977 4.977 0 0 1 5.331-4.596l.339.025a4.977 4.977 0 0 1 4.596 5.331l-1.819 24.573a4.977 4.977 0 0 1-5.331 4.596l-.34-.025a4.977 4.977 0 0 1-4.595-5.331zM1534.555 2682.608l-8.599-23.091a4.977 4.977 0 0 1 2.927-6.401l.319-.119a4.977 4.977 0 0 1 6.401 2.927l8.599 23.091a4.977 4.977 0 0 1-2.927 6.401l-.319.119a4.977 4.977 0 0 1-6.401-2.927zM1645.04 2502.54l1.819-24.573a4.977 4.977 0 0 1 5.331-4.596l.339.025a4.977 4.977 0 0 1 4.596 5.331l-1.819 24.573a4.977 4.977 0 0 1-5.331 4.596l-.339-.025a4.979 4.979 0 0 1-4.596-5.331z"></path>
			<path fill="#573240" d="m1731.26 2500.993 24.637.364a4.978 4.978 0 0 1 4.903 5.05l-.005.34a4.978 4.978 0 0 1-5.05 4.903l-24.637-.364a4.978 4.978 0 0 1-4.903-5.05l.005-.341a4.977 4.977 0 0 1 5.05-4.902zM1493.343 2584.737l24.637.364a4.978 4.978 0 0 1 4.903 5.05l-.005.341a4.978 4.978 0 0 1-5.05 4.903l-24.638-.364a4.978 4.978 0 0 1-4.903-5.05l.005-.34a4.977 4.977 0 0 1 5.051-4.904z"></path>
			<path fill="#FF6E00" d="m1550.898 2615.653 24.637.364a4.978 4.978 0 0 1 4.903 5.05l-.005.34a4.977 4.977 0 0 1-5.05 4.903l-24.638-.364a4.978 4.978 0 0 1-4.903-5.05l.005-.34a4.978 4.978 0 0 1 5.051-4.903zM1728.775 2362.21l23.852-6.182a4.977 4.977 0 0 1 6.067 3.569l.085.33a4.976 4.976 0 0 1-3.569 6.066l-23.852 6.182a4.976 4.976 0 0 1-6.066-3.569l-.085-.33a4.975 4.975 0 0 1 3.568-6.066zM1645.142 2390.439l23.852-6.182a4.977 4.977 0 0 1 6.067 3.569l.085.33a4.976 4.976 0 0 1-3.569 6.066l-23.852 6.182a4.976 4.976 0 0 1-6.066-3.569l-.085-.33a4.975 4.975 0 0 1 3.568-6.066z"></path>
			<path fill="#FFF" d="m1608.276 2642.797 23.852-6.182a4.978 4.978 0 0 1 6.067 3.569l.085.33a4.976 4.976 0 0 1-3.569 6.066l-23.852 6.182a4.976 4.976 0 0 1-6.066-3.569l-.085-.33a4.976 4.976 0 0 1 3.568-6.066z"></path>
			<path fill="#F1B104" d="m1690.775 2423.619 17.021 17.816a4.977 4.977 0 0 1-.161 7.037l-.246.235a4.978 4.978 0 0 1-7.037-.16l-17.021-17.816a4.977 4.977 0 0 1 .161-7.037l.246-.235a4.977 4.977 0 0 1 7.037.16z"></path>
			<path fill="#FF6E00" d="m1689.982 2523.531.746 24.629a4.977 4.977 0 0 1-4.824 5.125l-.34.01a4.977 4.977 0 0 1-5.125-4.824l-.746-24.629a4.977 4.977 0 0 1 4.824-5.125l.34-.01a4.977 4.977 0 0 1 5.125 4.824z"></path>
			<path fill="#F1B104" d="m1634.942 2578.991 17.021 17.816a4.977 4.977 0 0 1-.161 7.037l-.246.235a4.977 4.977 0 0 1-7.037-.161l-17.021-17.816a4.977 4.977 0 0 1 .161-7.037l.246-.235a4.979 4.979 0 0 1 7.037.161z"></path>
			<path fill="#FFF" d="m1292.865 2513.212 10.849 22.123a4.977 4.977 0 0 1-2.277 6.66l-.306.15a4.977 4.977 0 0 1-6.66-2.277l-10.849-22.123a4.977 4.977 0 0 1 2.277-6.66l.306-.15a4.977 4.977 0 0 1 6.66 2.277z"></path>
			<path fill="#573240" d="m1370.735 2444.514 10.849 22.123a4.977 4.977 0 0 1-2.277 6.66l-.306.15a4.977 4.977 0 0 1-6.66-2.277l-10.849-22.123a4.977 4.977 0 0 1 2.277-6.66l.306-.15a4.977 4.977 0 0 1 6.66 2.277z"></path>
			<path fill="#FFF" d="m1404.073 2643.434 20.985 12.914a4.976 4.976 0 0 1 1.63 6.847l-.178.29a4.976 4.976 0 0 1-6.847 1.63l-20.985-12.914a4.976 4.976 0 0 1-1.63-6.847l.178-.29a4.978 4.978 0 0 1 6.847-1.63zM1294.948 2336.863l24.459 2.981a4.976 4.976 0 0 1 4.338 5.542l-.041.338a4.976 4.976 0 0 1-5.542 4.338l-24.459-2.981a4.976 4.976 0 0 1-4.338-5.542l.041-.338a4.976 4.976 0 0 1 5.542-4.338zM1395.865 2519.518l20.985 12.914a4.976 4.976 0 0 1 1.63 6.847l-.178.29a4.976 4.976 0 0 1-6.847 1.63l-20.985-12.914a4.976 4.976 0 0 1-1.63-6.847l.178-.29a4.976 4.976 0 0 1 6.847-1.63z"></path>
			<path fill="#573240" d="m1357.596 2596.794-11.651 21.711a4.977 4.977 0 0 1-6.739 2.032l-.3-.161a4.977 4.977 0 0 1-2.032-6.739l11.651-21.711a4.977 4.977 0 0 1 6.739-2.032l.3.161a4.977 4.977 0 0 1 2.032 6.739z"></path>
			<path fill="#FF6E00" d="m1338.703 2383.909-11.651 21.711a4.977 4.977 0 0 1-6.739 2.032l-.3-.161a4.977 4.977 0 0 1-2.032-6.739l11.651-21.711a4.977 4.977 0 0 1 6.739-2.032l.3.161a4.977 4.977 0 0 1 2.032 6.739zM1481.981 2658.398l-5.477 24.024a4.977 4.977 0 0 1-5.959 3.746l-.332-.076a4.976 4.976 0 0 1-3.746-5.958l5.477-24.024a4.977 4.977 0 0 1 5.959-3.746l.332.076a4.976 4.976 0 0 1 3.746 5.958z"></path>
			<path fill="#FFF" d="m1281.361 2415.501-5.477 24.024a4.977 4.977 0 0 1-5.959 3.746l-.332-.076a4.977 4.977 0 0 1-3.746-5.959l5.477-24.024a4.977 4.977 0 0 1 5.959-3.746l.332.076a4.978 4.978 0 0 1 3.746 5.959z"></path>
			<path fill="#F1B104" d="m1444.921 2596.418-23.647 6.924a4.977 4.977 0 0 1-6.175-3.378l-.096-.327a4.977 4.977 0 0 1 3.378-6.175l23.647-6.924a4.978 4.978 0 0 1 6.175 3.378l.096.327a4.977 4.977 0 0 1-3.378 6.175z"></path>
			<path fill="#FF6E00" d="m1356.561 2549.776-22.214-10.662a4.976 4.976 0 0 1-2.333-6.64l.147-.307a4.977 4.977 0 0 1 6.641-2.333l22.214 10.662a4.976 4.976 0 0 1 2.333 6.64l-.147.307a4.979 4.979 0 0 1-6.641 2.333z"></path>
			<path fill="#F1B104" d="m1301.317 2473.796 33.2-9.72 2.892 9.878-33.2 9.721z"></path>
			<path fill="#573240" d="M914.456 2009.464c-167.12 0-302.6 138.16-302.6 308.57 0 170.42 135.48 308.58 302.6 308.58s302.6-138.16 302.6-308.58c0-170.41-135.48-308.57-302.6-308.57zm0 404.375c-50.632 0-91.686-41.856-91.686-93.496s41.055-93.504 91.686-93.504c50.641 0 91.695 41.865 91.695 93.504s-41.054 93.496-91.695 93.496z"></path>
			<path fill="#FF6E00" d="M873.456 2009.464c-167.12 0-302.6 138.16-302.6 308.57 0 170.42 135.48 308.58 302.6 308.58s302.6-138.16 302.6-308.58c0-170.41-135.48-308.57-302.6-308.57zm0 414.75c-56.25 0-101.86-46.5-101.86-103.87 0-57.37 45.61-103.88 101.86-103.88 56.26 0 101.87 46.51 101.87 103.88s-45.61 103.87-101.87 103.87z"></path>
			<path fill="#FFF" d="M913.671 2073.032H886.66a4.977 4.977 0 0 1-4.977-4.977v-1.046a4.977 4.977 0 0 1 4.977-4.977h27.012a4.977 4.977 0 0 1 4.977 4.977v1.046a4.979 4.979 0 0 1-4.978 4.977z"></path>
			<path fill="#A9D8D5" d="M1073.246 2301.073h-27.011a4.977 4.977 0 0 1-4.977-4.977v-1.046a4.977 4.977 0 0 1 4.977-4.977h27.011a4.977 4.977 0 0 1 4.977 4.977v1.046a4.977 4.977 0 0 1-4.977 4.977z"></path>
			<path fill="#573240" d="m1134.186 2267.769-25.927 7.576a4.977 4.977 0 0 1-6.173-3.382l-.293-1.004a4.977 4.977 0 0 1 3.381-6.173l25.927-7.575a4.977 4.977 0 0 1 6.173 3.381l.293 1.004a4.976 4.976 0 0 1-3.381 6.173z"></path>
			<path fill="#FFF" d="M735.933 2291.238h-27.012a4.977 4.977 0 0 1-4.977-4.977v-1.046a4.977 4.977 0 0 1 4.977-4.977h27.012a4.977 4.977 0 0 1 4.977 4.977v1.046a4.977 4.977 0 0 1-4.977 4.977z"></path>
			<path fill="#F1B104" d="m1028.821 2257.957-25.981-7.39a4.977 4.977 0 0 1-3.425-6.149l.286-1.006a4.978 4.978 0 0 1 6.149-3.426l25.981 7.39a4.977 4.977 0 0 1 3.425 6.149l-.286 1.006a4.977 4.977 0 0 1-6.149 3.426zM654.31 2216.464h-27.012a4.977 4.977 0 0 1-4.977-4.977v-1.046a4.977 4.977 0 0 1 4.977-4.977h27.012a4.977 4.977 0 0 1 4.977 4.977v1.046a4.979 4.979 0 0 1-4.977 4.977z"></path>
			<path fill="#573240" d="M942.944 2177.924h-27.012a4.977 4.977 0 0 1-4.977-4.977v-1.046a4.977 4.977 0 0 1 4.977-4.977h27.012a4.977 4.977 0 0 1 4.977 4.977v1.046a4.977 4.977 0 0 1-4.977 4.977z"></path>
			<path fill="#F6ACC1" d="m1072.343 2149.942-23.393-13.506a4.978 4.978 0 0 1-1.822-6.799l.523-.906a4.978 4.978 0 0 1 6.799-1.822l23.393 13.506a4.978 4.978 0 0 1 1.822 6.799l-.523.906a4.977 4.977 0 0 1-6.799 1.822z"></path>
			<path fill="#FFF" d="m750.669 2121.236-22.839 14.422a4.976 4.976 0 0 1-6.865-1.551l-.559-.885a4.976 4.976 0 0 1 1.551-6.865l22.839-14.422a4.976 4.976 0 0 1 6.865 1.551l.559.885a4.976 4.976 0 0 1-1.551 6.865zM1091.806 2191.566l-14.74 22.636a4.977 4.977 0 0 1-6.886 1.455l-.877-.571a4.977 4.977 0 0 1-1.455-6.886l14.74-22.636a4.977 4.977 0 0 1 6.886-1.455l.877.571a4.977 4.977 0 0 1 1.455 6.886zM869.795 2179.387l-22.839 14.422a4.976 4.976 0 0 1-6.865-1.551l-.559-.885a4.976 4.976 0 0 1 1.551-6.865l22.839-14.422a4.976 4.976 0 0 1 6.865 1.551l.559.885a4.977 4.977 0 0 1-1.551 6.865z"></path>
			<path fill="#F1B104" d="m794.269 2174.869-9.338-25.346a4.978 4.978 0 0 1 2.949-6.391l.982-.362c2.579-.95 5.44.37 6.391 2.949l9.338 25.346a4.978 4.978 0 0 1-2.949 6.391l-.982.362a4.976 4.976 0 0 1-6.391-2.949z"></path>
			<path fill="#573240" d="m802.886 2096.088-15.746-21.947a4.977 4.977 0 0 1 1.143-6.945l.85-.61a4.977 4.977 0 0 1 6.945 1.143l15.746 21.948a4.977 4.977 0 0 1-1.143 6.945l-.85.61a4.978 4.978 0 0 1-6.945-1.144zM1032.002 2192.104l-15.746-21.948a4.977 4.977 0 0 1 1.143-6.945l.85-.61a4.977 4.977 0 0 1 6.945 1.143l15.746 21.948a4.977 4.977 0 0 1-1.143 6.945l-.85.61a4.976 4.976 0 0 1-6.945-1.143z"></path>
			<path fill="#A9D8D5" d="m685.329 2177.675-21.002-16.986a4.978 4.978 0 0 1-.74-7l.658-.813a4.976 4.976 0 0 1 6.999-.74l21.002 16.986a4.978 4.978 0 0 1 .74 7l-.658.813a4.977 4.977 0 0 1-6.999.74z"></path>
			<path fill="#F1B104" d="m1002.925 2111.52-21.002-16.986a4.978 4.978 0 0 1-.74-7l.658-.813a4.977 4.977 0 0 1 7-.74l21.002 16.986a4.978 4.978 0 0 1 .74 7l-.658.813a4.977 4.977 0 0 1-7 .74z"></path>
			<path fill="#A9D8D5" d="m639.19 2293.596-16.718-21.216a4.978 4.978 0 0 1 .829-6.99l.822-.647a4.978 4.978 0 0 1 6.99.829l16.718 21.216a4.978 4.978 0 0 1-.829 6.99l-.822.647a4.978 4.978 0 0 1-6.99-.829z"></path>
			<path fill="#F6ACC1" d="m733.064 2209.201 4.599-26.617a4.978 4.978 0 0 1 5.752-4.057l1.031.178a4.977 4.977 0 0 1 4.057 5.752l-4.599 26.617a4.977 4.977 0 0 1-5.752 4.057l-1.031-.178a4.978 4.978 0 0 1-4.057-5.752z"></path>
			<path fill="#A9D8D5" d="m837.33 2127.836 21.216-16.718a4.978 4.978 0 0 1 6.99.829l.647.822a4.978 4.978 0 0 1-.829 6.99l-21.216 16.718a4.978 4.978 0 0 1-6.99-.829l-.647-.822a4.978 4.978 0 0 1 .829-6.99z"></path>
			<path fill="#573240" d="m672.284 2250.89 21.216-16.718a4.978 4.978 0 0 1 6.99.829l.647.822a4.978 4.978 0 0 1-.829 6.99l-21.216 16.718a4.978 4.978 0 0 1-6.99-.829l-.647-.822a4.978 4.978 0 0 1 .829-6.99z"></path>
			<path fill="#F6ACC1" d="m930.848 2129.297 4.599-26.617a4.978 4.978 0 0 1 5.752-4.057l1.031.178a4.977 4.977 0 0 1 4.057 5.752l-4.599 26.617a4.977 4.977 0 0 1-5.752 4.057l-1.031-.178a4.977 4.977 0 0 1-4.057-5.752z"></path>
			<path fill="#A9D8D5" d="m962.701 2211.823 17.981-20.157a4.978 4.978 0 0 1 7.027-.401l.781.697a4.977 4.977 0 0 1 .401 7.027l-17.981 20.157a4.977 4.977 0 0 1-7.027.401l-.781-.697a4.977 4.977 0 0 1-.401-7.027z"></path>
			<path fill="#FFF" d="m837.465 2567.957 27.008.412a4.977 4.977 0 0 1 4.9 5.052l-.016 1.046a4.976 4.976 0 0 1-5.052 4.9l-27.008-.412a4.977 4.977 0 0 1-4.9-5.052l.016-1.046a4.977 4.977 0 0 1 5.052-4.9z"></path>
			<path fill="#A9D8D5" d="m681.387 2337.509 27.008.412a4.977 4.977 0 0 1 4.9 5.052l-.016 1.046a4.978 4.978 0 0 1-5.052 4.901l-27.008-.412a4.977 4.977 0 0 1-4.9-5.052l.016-1.046a4.976 4.976 0 0 1 5.052-4.901z"></path>
			<path fill="#573240" d="m619.946 2369.878 26.04-7.179a4.977 4.977 0 0 1 6.121 3.475l.278 1.009a4.977 4.977 0 0 1-3.475 6.121l-26.04 7.179a4.978 4.978 0 0 1-6.121-3.475l-.278-1.008a4.979 4.979 0 0 1 3.475-6.122z"></path>
			<path fill="#FFF" d="m1018.511 2352.487 27.008.412a4.977 4.977 0 0 1 4.9 5.052l-.016 1.046a4.977 4.977 0 0 1-5.052 4.9l-27.008-.412a4.977 4.977 0 0 1-4.9-5.052l.016-1.046a4.976 4.976 0 0 1 5.052-4.9z"></path>
			<path fill="#F1B104" d="m725.15 2381.296 25.865 7.785a4.976 4.976 0 0 1 3.331 6.2l-.302 1.002a4.977 4.977 0 0 1-6.2 3.331l-25.865-7.785a4.976 4.976 0 0 1-3.331-6.2l.302-1.002a4.978 4.978 0 0 1 6.2-3.331zM1098.984 2428.498l27.008.412a4.977 4.977 0 0 1 4.9 5.052l-.016 1.046a4.977 4.977 0 0 1-5.052 4.9l-27.008-.412a4.977 4.977 0 0 1-4.9-5.052l.016-1.046a4.977 4.977 0 0 1 5.052-4.9z"></path>
			<path fill="#573240" d="m809.796 2462.63 27.008.412a4.977 4.977 0 0 1 4.9 5.052l-.016 1.046a4.977 4.977 0 0 1-5.052 4.9l-27.008-.412a4.977 4.977 0 0 1-4.9-5.052l.016-1.046a4.976 4.976 0 0 1 5.052-4.9z"></path>
			<path fill="#F6ACC1" d="m679.984 2488.635 23.184 13.861a4.978 4.978 0 0 1 1.718 6.826l-.537.898a4.978 4.978 0 0 1-6.826 1.718l-23.184-13.861a4.978 4.978 0 0 1-1.718-6.826l.537-.898a4.978 4.978 0 0 1 6.826-1.718z"></path>
			<path fill="#FFF" d="m1001.183 2522.244 23.057-14.072a4.977 4.977 0 0 1 6.841 1.655l.545.893a4.977 4.977 0 0 1-1.655 6.841l-23.057 14.072a4.976 4.976 0 0 1-6.841-1.656l-.545-.893a4.976 4.976 0 0 1 1.655-6.84zM661.159 2446.719l15.083-22.408a4.977 4.977 0 0 1 6.908-1.35l.868.584a4.977 4.977 0 0 1 1.35 6.908l-15.083 22.408a4.977 4.977 0 0 1-6.908 1.35l-.868-.584a4.977 4.977 0 0 1-1.35-6.908zM882.958 2462.283l23.057-14.072a4.976 4.976 0 0 1 6.841 1.656l.545.893a4.977 4.977 0 0 1-1.655 6.841l-23.057 14.072a4.976 4.976 0 0 1-6.841-1.656l-.545-.893a4.977 4.977 0 0 1 1.655-6.841z"></path>
			<path fill="#F1B104" d="m958.406 2467.952 8.951 25.486a4.977 4.977 0 0 1-3.047 6.345l-.987.346a4.977 4.977 0 0 1-6.345-3.046l-8.951-25.486a4.977 4.977 0 0 1 3.047-6.345l.987-.347a4.978 4.978 0 0 1 6.345 3.047z"></path>
			<path fill="#573240" d="m948.589 2546.593 15.409 22.185a4.977 4.977 0 0 1-1.248 6.927l-.859.597a4.977 4.977 0 0 1-6.927-1.249l-15.409-22.185a4.977 4.977 0 0 1 1.248-6.927l.859-.597a4.977 4.977 0 0 1 6.927 1.249zM720.964 2447.093l15.409 22.185a4.977 4.977 0 0 1-1.248 6.927l-.859.597a4.977 4.977 0 0 1-6.927-1.249l-15.409-22.185a4.977 4.977 0 0 1 1.248-6.927l.859-.597a4.979 4.979 0 0 1 6.927 1.249z"></path>
			<path fill="#A9D8D5" d="m1067.377 2466.809 20.741 17.305a4.977 4.977 0 0 1 .633 7.01l-.67.803a4.977 4.977 0 0 1-7.01.633l-20.741-17.305a4.977 4.977 0 0 1-.633-7.01l.67-.803a4.977 4.977 0 0 1 7.01-.633z"></path>
			<path fill="#F1B104" d="m748.809 2528.111 20.741 17.305a4.977 4.977 0 0 1 .633 7.01l-.67.803a4.977 4.977 0 0 1-7.01.633l-20.741-17.305a4.977 4.977 0 0 1-.633-7.01l.67-.803a4.978 4.978 0 0 1 7.01-.633z"></path>
			<path fill="#A9D8D5" d="m1115.279 2351.605 16.393 21.469a4.977 4.977 0 0 1-.935 6.976l-.831.635a4.977 4.977 0 0 1-6.976-.935l-16.393-21.469a4.977 4.977 0 0 1 .935-6.976l.831-.635a4.976 4.976 0 0 1 6.976.935z"></path>
			<path fill="#F6ACC1" d="m1020.128 2434.559-5.005 26.544a4.977 4.977 0 0 1-5.813 3.969l-1.028-.194a4.977 4.977 0 0 1-3.969-5.813l5.005-26.544a4.977 4.977 0 0 1 5.813-3.969l1.028.194a4.975 4.975 0 0 1 3.969 5.813z"></path>
			<path fill="#A9D8D5" d="m914.633 2514.323-21.469 16.393a4.977 4.977 0 0 1-6.976-.935l-.635-.831a4.977 4.977 0 0 1 .935-6.976l21.469-16.393a4.977 4.977 0 0 1 6.976.935l.635.831a4.976 4.976 0 0 1-.935 6.976z"></path>
			<path fill="#573240" d="m1081.537 2393.801-21.469 16.393a4.977 4.977 0 0 1-6.976-.935l-.635-.832a4.977 4.977 0 0 1 .935-6.976l21.469-16.393a4.977 4.977 0 0 1 6.976.935l.635.832a4.976 4.976 0 0 1-.935 6.976z"></path>
			<path fill="#F6ACC1" d="m821.149 2511.436-5.005 26.544a4.977 4.977 0 0 1-5.813 3.969l-1.028-.194a4.977 4.977 0 0 1-3.969-5.813l5.005-26.544a4.977 4.977 0 0 1 5.813-3.969l1.028.194a4.977 4.977 0 0 1 3.969 5.813z"></path>
			<path fill="#A9D8D5" d="m790.558 2428.434-18.286 19.88a4.976 4.976 0 0 1-7.032.294l-.77-.708a4.976 4.976 0 0 1-.294-7.032l18.286-19.88a4.976 4.976 0 0 1 7.032-.294l.77.708a4.976 4.976 0 0 1 .294 7.032z"></path>
			<path fill="#FDE5E3" d="m1827.95 1744.83-.81 7h-927l.81-7zM1811.63 1829.77c-1.26 2.4-2.64 4.73-4.1 7H912.04a94.335 94.335 0 0 1-4.12-7h903.71zM1823.07 1787.3l-.81 7H897.3c-.22-2.31-.35-4.64-.39-7h926.16z"></path>
			<path fill="#F6ACC1" d="M1542.481 2323.347h379.317v424.7h-379.317z"></path>
			<path fill="#FCD4D0" d="M507.46 2323.347h1035.021v424.7H507.46z"></path>
			<path fill="#FDE5E3" d="M507.46 2362.316h1035.479v7H507.46zM507.46 2404.787h1035.021v7H507.46zM507.46 2447.257h1035.021v7H507.46zM507.46 2489.727h1035.021v7H507.46zM507.46 2532.196h1035.021v7H507.46zM507.46 2574.667h1035.021v7H507.46zM507.46 2659.606h1035.021v7H507.46zM507.46 2617.137h1035.021v7H507.46zM507.46 2702.076h1035.021v7H507.46z"></path>
			<path fill="#FABFD6" d="M1542.939 2362.316h378.858v7h-378.858zM1542.48 2404.787h379.317v7H1542.48zM1542.48 2447.257h379.317v7H1542.48zM1542.48 2489.727h379.317v7H1542.48zM1542.48 2532.196h379.317v7H1542.48zM1542.48 2574.667h379.317v7H1542.48zM1542.48 2659.606h379.317v7H1542.48zM1542.48 2617.137h379.317v7H1542.48zM1542.48 2702.076h379.317v7H1542.48z"></path>
			<path fill="#FFF" d="m2312.569 1963.686-90.15 784.36h-447.78l-90.15-784.36z"></path>
			<path fill="#E0F1F0" d="m2312.566 1963.683-90.15 784.361h-97.55l86.7-754.361h-523.63l-3.45-30z"></path>
			<path fill="#573240" d="M2361.186 1963.683h-725.31l5.75-32.07c2.46-13.7 14.38-23.68 28.3-23.68h12.44l9.13-34.81c6.4-24.45 28.5-41.5 53.78-41.5h506.51c25.28 0 47.37 17.05 53.78 41.5l9.12 34.81h12.45c13.92 0 25.84 9.98 28.29 23.68l5.76 32.07z"></path>
			<path fill="none" stroke="#573240" stroke-width="5" stroke-linecap="round" stroke-miterlimit="10" d="M1774.639 2748.046h447.78"></path>
			<ellipse fill="#A9D8D5" cx="1981.424" cy="2302.9" rx="140.5" ry="150"></ellipse>
			<g fill="#573240">
				<path d="m2003.358 2260.275-50.246 77.162c-2.654 4.076-8.53 4.334-11.535.51-12.632-16.075-12.96-41.512.709-62.504 13.67-20.992 37.062-30.975 56.872-25.923 4.714 1.202 6.854 6.679 4.2 10.755zM2021.77 2327.199c-13.534 20.784-36.603 30.773-56.28 26.077-4.762-1.137-6.945-6.67-4.273-10.773l50.053-76.866c2.671-4.103 8.615-4.344 11.581-.45 12.254 16.095 12.453 41.228-1.081 62.012z"></path>
			</g>
		</g>
	</switch>
</svg>