<svg xmlns="http://www.w3.org/2000/svg" width="5000" height="3500" xml:space="preserve">
	<switch>
		<g>
			<path fill="transparent" d="M0 0h5000v3500H0z"></path>
			<path fill="#FDE5E3" d="M4405.003 2571.59H431.817l678.614-268.647H4029.27z"></path>
			<path fill="#FFF" d="M1120.064 2302.943h5v268.646h-5zM1054.43 2325.11v246.48h-5v-244.5zM983.81 2353.07v218.52h-5v-216.54zM913.18 2381.03v190.56h-5v-188.58zM842.55 2408.99v162.6h-5v-160.62zM771.92 2436.95v134.64h-5v-132.66zM701.29 2464.91v106.68h-5v-104.7zM630.66 2492.87v78.72h-5v-76.74zM560.03 2520.83v50.76h-5v-48.78zM1755.729 2302.943h5v268.646h-5zM1685.1 2302.943h5v268.646h-5zM1614.47 2302.943h5v268.646h-5zM1543.841 2302.943h5v268.646h-5zM1473.211 2302.943h5v268.646h-5zM1402.582 2302.943h5v268.646h-5zM1331.953 2302.943h5v268.646h-5zM1261.323 2302.943h5v268.646h-5zM1190.694 2302.943h5v268.646h-5zM2391.394 2302.943h5v268.646h-5zM2320.765 2302.943h5v268.646h-5zM2250.135 2302.943h5v268.646h-5zM2179.506 2302.943h5v268.646h-5zM2108.876 2302.943h5v268.646h-5zM2038.247 2302.943h5v268.646h-5zM1967.617 2302.943h5v268.646h-5zM1896.988 2302.943h5v268.646h-5zM1826.358 2302.943h5v268.646h-5zM3027.059 2302.943h5v268.646h-5zM2956.43 2302.943h5v268.646h-5zM2885.8 2302.943h5v268.646h-5zM2815.171 2302.943h5v268.646h-5zM2744.541 2302.943h5v268.646h-5zM2673.912 2302.943h5v268.646h-5zM2603.282 2302.943h5v268.646h-5zM2532.653 2302.943h5v268.646h-5zM2462.023 2302.943h5v268.646h-5zM3662.724 2302.943h5v268.646h-5zM3592.095 2302.943h5v268.646h-5zM3521.465 2302.943h5v268.646h-5zM3450.836 2302.943h5v268.646h-5zM3380.206 2302.943h5v268.646h-5zM3309.576 2302.943h5v268.646h-5zM3238.947 2302.943h5v268.646h-5zM3168.317 2302.943h5v268.646h-5zM3097.688 2302.943h5v268.646h-5zM4303.39 2498.94v72.65h-5v-76.23zM4232.76 2448.44v123.15h-5v-126.73zM4162.13 2397.94v173.65h-5v-177.23zM4091.5 2347.43v224.16h-5v-227.73zM4015.871 2302.943h5v268.646h-5zM3945.241 2302.943h5v268.646h-5zM3874.612 2302.943h5v268.646h-5zM3803.982 2302.943h5v268.646h-5zM3733.354 2302.943h5v268.646h-5z"></path>
			<path fill="#FFF" d="M4334.22 2520.98H559.65l.38-.15 12.25-4.85h3754.94zM4259.92 2467.86H693.84l2.45-.97 2.18-.86 2.82-1.12 5.18-2.05h3546.46zM4185.65 2414.75H828l9.55-3.78 3.08-1.22h3338.02zM4111.37 2361.64H981.45v-5h3122.92z"></path>
			<path fill="#E0F1F0" d="M2772.463 1125.693c83.81-71.596 193.098-69.597 275.299 5.036l303.187 232.327c46.84 35.892 112.689 32.971 156.166-6.929 86.505-79.389 204.846-66.521 279.816 30.427l485.274 516.505-3170.756-5.367 520.752-355.614c142.727-97.466 311.476-114.833 473.562 41.914 14.802 14.315 37.756 5.034 54.426-7.055l622.274-451.244z"></path>
			<path fill="#A9D8D5" d="m2188.556 1697.824 12.941 40.782c6.204 19.558-18.035 34.263-32.51 19.722l-218.462-219.354c-54.583-50.773-99.207-72.65-150.84-68.645 2.133-.305 4.354-.642 6.65-1.023 94.244-10.187 193.015 21.441 289.425 114.684 14.802 14.312 37.756 5.039 54.43-7.053l102.679-74.457c-61.298 44.449-97.402 112.153-64.313 195.344zM3694.964 1315.81c-67.872 2.667-127.821 46.594-150.394 111.473l-12.843 36.885c-25.74 73.978-119.755 95.963-175.644 41.076l-357.71-351.332c-38.235-41.881-75.512-79.3-125.47-76.623l37.92-3.037c11.319 0 22.573.936 33.675 2.765 36.428 7.249 71.834 25.164 103.266 53.712l303.182 232.328c46.844 35.895 112.692 32.967 156.173-6.933 37.963-34.839 82.043-51.905 125.905-51.905 20.929-.001 41.805 3.885 61.94 11.591zM2762.487 1899.118c-10.274-33.838-33.838-63.573-67.894-80.77-40.902-20.646-87.365-18.361-124.74 2.035 13.148-64.912-17.904-133.143-79.899-164.434-74.359-37.539-165.054-7.695-202.593 66.664-20.156 39.933-20.886 85.156-5.714 124.131-7.074-3.091-14.878-4.8-23.085-4.8-31.933 0-57.826 25.893-57.826 57.837l561.751-.663z"></path>
			<path fill="none" stroke="#573240" stroke-width="5" stroke-linecap="round" stroke-miterlimit="10" d="M2430.344 1896.122v-94.545"></path>
			<g fill="none" stroke="#A9D8D5" stroke-width="5" stroke-miterlimit="10">
				<path d="M4050.711 1902.985c-11.902 0-18.637-13.647-11.398-23.094l34.789-45.403c7.239-9.447.503-23.094-11.398-23.094h-6.778c-11.65 0-18.451-13.142-11.723-22.653l31.535-44.582c6.728-9.511-.073-22.653-11.723-22.653-11.83 0-18.585-13.502-11.493-22.969l105.305-140.576c5.744-7.667 17.242-7.668 22.986 0l105.314 140.576c7.093 9.468.337 22.97-11.493 22.97h-.008c-11.65 0-18.452 13.143-11.723 22.654l31.54 44.58c6.729 9.511-.072 22.654-11.723 22.654h-6.784c-11.902 0-18.638 13.648-11.398 23.095l34.794 45.401c7.24 9.447.504 23.095-11.398 23.095M4168.621 1552.29v350.695"></path>
			</g>
			<g fill="none" stroke="#573240" stroke-width="5" stroke-linecap="round" stroke-linejoin="round" stroke-miterlimit="10">
				<path d="M2665.284 1895.427c-13.915 0-21.233-16.502-11.892-26.816l34.006-37.547c8.654-9.555 3.076-24.898-9.694-26.664l-8.154-1.128c-14.441-1.998-18.949-20.664-7.011-29.032l25.139-17.622c11.9-8.341 7.467-26.941-6.916-29.019l-2.556-.369c-13.284-1.919-18.48-18.328-8.723-27.544l21.615-20.416c9.527-8.998 4.833-25.004-8.045-27.432l-.29-.055c-11.961-2.255-17.155-16.486-9.456-25.915l23.996-29.391c7.595-9.303 2.653-23.346-9.094-25.842l-.004-.001c-11.692-2.484-16.66-16.421-9.176-25.741l105.285-131.115 105.277 131.116c7.483 9.32 2.515 23.256-9.176 25.74h0c-11.747 2.496-16.688 16.538-9.095 25.841l23.994 29.394c7.697 9.429 2.504 23.658-9.457 25.913l-.288.054c-12.877 2.428-17.571 18.432-8.046 27.431l21.913 20.701c9.703 9.166 4.623 25.482-8.568 27.52l-2.713.419c-13.684 2.115-18.444 19.405-7.771 28.225l25.853 21.365c10.73 8.867 5.852 26.257-7.926 28.248l-9.188 1.328c-12.802 1.85-18.264 17.312-9.466 26.794l32.107 34.6c9.528 10.268 2.246 26.959-11.761 26.959M2783.858 1417.905v477.913"></path>
			</g>
			<path fill="none" stroke="#A9D8D5" stroke-width="5" stroke-miterlimit="10" d="M3956.415 1902.985h407.446"></path>
			<circle fill="none" stroke="#F1B104" stroke-width="5" stroke-linecap="round" stroke-miterlimit="10" cx="1975.927" cy="873.803" r="152.375"></circle>
			<ellipse transform="rotate(-26.87 3619.754 1273.784)" fill="#F1B104" cx="3619.866" cy="1273.663" rx="119.567" ry="184.59"></ellipse>
			<path fill="#573240" d="M3635.29 1263.08c10.76 14.41 54.03 66.53 112.28 59.46 175.93-21.33 239.7 245.76 52.59 270.34l17.85-51.08c6.92-16.03 9.9-52.2-29.57-84.64-38.88-31.94-68.03-49.31-72.53-51.7-78.4-41.65-93.3-110.18-98.9-140.89-1.29.91-2.59 2.06-3.87 3.47-2.8 3.07-10.23-1.15-5.73-9.07 3.64-6.4 3.66-12.14 1.73-17.34-9.59-3.12-49.77-16.69-66.3-29.78-.43-.34-.84-.67-1.25-1.01-9.55 23.8-32.57 88.76-2.63 96.11 1.06.26 2.14.47 3.23.62-9.81 47.98-75.25 90.27-121.06 113.46-58.21-38.65-63.21-101.56 27.4-131.69 62.57-20.81 87.15-78.86 88.58-82.35-17.56-15.97-17.48-27.92-11.11-34.78 6.99-7.55 24.41-7.17 42 13.53l67.29 77.34z"></path>
			<path fill="#F6ACC1" d="M3715.91 1405.46c-194.91 95.19-294.98 37.01-313.12 24.36 44.15-19.92 128.17-67.36 139.4-122.24-1.09-.16-2.17-.37-3.23-.63-29.94-7.36-6.92-72.31 2.63-96.11.41.34.82.67 1.25 1.01 16.53 13.09 56.71 26.66 66.3 29.78 1.93 5.2 1.91 10.94-1.73 17.34-2.27 3.99-1.5 7.04.17 8.69l6.59-3.12c4.81-5.53 13.06-6.77 19.34-2.67l6.87 4.47c8.17 5.32 10.47 16.26 5.14 24.42a17.638 17.638 0 0 1-14.77 7.98c-1.86 0-3.73-.29-5.54-.9 8.46 30.6 31.01 74.61 90.7 107.62z"></path>
			<path fill="none" stroke="#573240" stroke-width="4" stroke-linecap="round" stroke-miterlimit="10" d="M3602.43 1286.21c-19.241 13.909-41.729 28.09-63.472 22.743M3619.271 1276.073c3.798-5.485 11.273-6.951 16.862-3.307M3536.905 1227.529s16.206 6.345 9.065 41.784"></path>
			<ellipse transform="rotate(-78.486 3535.825 1249.654)" fill="#573240" cx="3535.931" cy="1249.686" rx="6.518" ry="2.941"></ellipse>
			<ellipse transform="rotate(-78.486 3568.565 1255.985)" fill="#573240" cx="3568.672" cy="1256.016" rx="6.518" ry="2.941"></ellipse>
			<path fill="none" stroke="#573240" stroke-width="4" stroke-linecap="round" stroke-miterlimit="10" d="M3566.114 1236.757s8.325.14 17.287 10.082"></path>
			<path fill="#FF6E00" d="M3810.47 2278.56h-.23c-137.32-46.36-389.19-123.59-542.68-123.32h-260.24c-24.03 0-46.75 5.62-66.92 15.6 66.87-68.2 194.18-165.67 435.43-280.02v-157.4s-67.71-29.09-63.05-81.52c4.66-52.43 63.05-210.81 63.05-210.81s10.82-3.99 26.96-11.27c18.14 12.65 118.21 70.83 313.12-24.36 1.11.61 2.25 1.23 3.4 1.84 114.05 60.83 101.44 112.61 101.44 112.61l-81.65 246.24s-20.95 61.35 71.08 158.51c78.76 83.15 98.49 236.23.29 353.9z"></path>
			<path fill="#F6ACC1" d="M4226.8 2483.9H3007.32c-83.38 0-150.98-67.6-150.98-150.98v-26.69c0-83.39 67.6-150.99 150.98-150.99h260.24c219.27-.39 639.33 157.39 639.33 157.39l37.98-33.27c15.8-13.84 39.12-14.77 55.97-2.23l236.22 175.8c13.28 9.88 6.29 30.97-10.26 30.97z"></path>
			<path fill="none" stroke="#573240" stroke-width="5" stroke-linecap="round" stroke-miterlimit="10" d="M3183.928 2481.198c-90.757 0-164.33-72.362-164.33-161.626v0c0-89.263 73.573-161.626 164.33-161.626M3929.606 2295.499l-32.501 30.231M4196.872 2469.753c17.595 0 25.025-22.427 10.91-32.932M4225.296 2482.583c15.259 0 21.703-19.45 9.462-28.561"></path>
			<path fill="#F1B104" d="m3384.574 1335.771 154.323-48.088c3.963-1.235 7.892 2.104 7.432 6.351-2.168 20.028-20.405 72.524-142.003 133.209l-19.752-91.472z"></path>
			<path fill="none" stroke="#FFF" stroke-width="5" stroke-linecap="round" stroke-miterlimit="10" d="M3545.383 1291.852c-1.077 18.118-14.667 72.316-141.056 135.392"></path>
			<ellipse transform="rotate(-1.621 3446.73 1341.17)" fill="#FFF" cx="3448.729" cy="1341.197" rx="11.569" ry="11.942"></ellipse>
			<ellipse transform="rotate(-1.621 3504.183 1327.864)" fill="#FF6E00" cx="3506.21" cy="1327.872" rx="11.569" ry="11.942"></ellipse>
			<ellipse transform="rotate(-1.621 3445.923 1352.896)" fill="none" stroke="#573240" stroke-width="4" stroke-linecap="round" stroke-miterlimit="10" cx="3447.924" cy="1352.928" rx="11.569" ry="11.942"></ellipse>
			<path fill="none" stroke="#A9D8D5" stroke-width="5" stroke-linecap="round" stroke-miterlimit="10" d="m3486.223 1316.488-4.271 23.436M3424.752 1379.62l26.828 3.509"></path>
			<path fill="#F6ACC1" d="M3417.82 1338.847c-2.716 30.831-19.921 94.202-111.737 127.48l69.75-25.236s-58.396 158.381-63.055 210.808c-3.324 37.444 30.27 62.997 49.735 74.538l-53.808 141.514c-20.472 51.643-70.395 85.552-125.947 85.552-39.071 0-72.992-16.024-97.128-40.968-36.543-37.76-50.695-95.958-26.5-149.942l132.887-296.349a200.15 200.15 0 0 1 116.816-107.136l93.243-32.47c8.124-2.832 16.505 3.641 15.744 12.209z"></path>
			<path fill="none" stroke="#573240" stroke-width="5" stroke-linecap="round" stroke-miterlimit="10" d="m3333.114 1370.886 68.175-23.371c6.911-2.41 14.04 3.097 13.393 10.386M3324.407 1394.83l68.175-23.371c6.911-2.41 14.04 3.097 13.393 10.386M3315.7 1419.872l62.102-21.256c6.382-2.225 12.965 2.86 12.367 9.59"></path>
			<path fill="none" stroke="#573240" stroke-width="5" stroke-linecap="round" stroke-miterlimit="10" d="M3417.82 1338.847c-2.716 30.831-19.921 94.202-111.737 127.48M3218.312 1780.133l87.771-313.803h-27.92"></path>
			<path fill="#F6ACC1" d="m3818.009 1541.795-110.625 316.519c-20.705 59.24-76.6 98.915-139.354 98.915h-242.914a29.312 29.312 0 0 0-21.11 8.975l-47.57 38.078a57.491 57.491 0 0 1-39.927 17.583l-95.335 3.384c-10.691.274-16.415-12.437-9.153-20.289 41.729-45.124 167.275-163.077 451.573-204.913l128.193-309.814c17.52-37.491 64.102-54.158 98.866-31.709 26.526 17.13 37.841 53.485 27.356 83.271z"></path>
			<path fill="none" stroke="#573240" stroke-width="5" stroke-linecap="round" stroke-miterlimit="10" d="M3548.469 1799.428s18.934-3.092 46.103-2.645M3153.825 2021.985c-10.691.274-16.415-12.437-9.153-20.29 10.052-10.87 24.968-25.966 45.795-43.206M3188.654 2021.985c-10.692.274-16.415-12.437-9.153-20.29 10.052-10.87 24.968-25.966 45.795-43.206M3217.609 2020.035c-5.78-3.828-7.637-12.45-2.191-18.339 10.052-10.87 24.968-25.966 45.795-43.206M3330.752 1939.107l-21.502 22.798M3166.712 1950.894c34.026-25.963 80.698-55.305 139.895-81.441"></path>
			<path fill="none" stroke="#FFF" stroke-width="5" stroke-linecap="round" stroke-miterlimit="10" d="M3312.778 1651.899c-4.658 52.427 63.055 79.349 63.055 79.349 27.981 4.395 43.098 3.265 43.098 3.265"></path>
			<path fill="#573240" d="m1326.758 2408.439-71.247 18.914c-123.19 32.704-249.567-40.65-282.271-163.84l-15.198-90.366 698.071-462.91c86.198-58.755 204.111-32.416 257.116 57.432 43.781 74.213 29.001 169.024-35.293 226.388l-551.178 414.382z"></path>
			<path fill="#573240" d="m1933.677 1899.78-31.475 395.719-279.448 72.181 10.781-440.968z"></path>
			<path fill="#573240" d="m958.041 2173.148 814.836-290.388c100.5-35.625 210.009 16.179 238.79 119.387 23.773 85.248-15.669 175.512-94.179 215.533l-405.838 206.877c-76.535 39.014-161.129 59.344-246.929 59.344h-75.298c-130.193 0-231.382-106.171-231.382-237.141v-73.612z"></path>
			<path fill="none" stroke="#FFF" stroke-width="5" stroke-miterlimit="10" d="m1416.219 2011.02 368.63-130.437c100.5-35.625 210.009 24.886 238.79 128.094M1916.4 2222.034l-281.304 143.098"></path>
			<g stroke="#F1B104" stroke-width="5" stroke-linecap="round" stroke-miterlimit="10">
				<path fill="#FFF" d="m1900.307 2291.02-277.553 77.748c-25.565 7.161-43.238 30.465-43.238 57.014v0c0 32.7 26.509 59.208 59.209 59.208H1933.2a97.61 97.61 0 0 0 66.482-26.141h0c53.475-49.745 35.378-138.445-33.31-163.266l-6.564-2.372a97.615 97.615 0 0 0-59.501-2.191z"></path>
				<path fill="none" d="M1622.754 2368.768v114.046M1600.986 2380.623v90.336M1645.61 2363.326v121.665M1668.466 2356.796v128.195M1691.322 2350.265v134.726M1714.178 2343.735v141.256M1737.035 2337.205v147.786M1759.891 2330.674v154.317M1782.747 2325.232v159.759M1805.603 2318.702v166.289M1828.459 2312.172v172.819M1851.316 2305.641v179.35M1874.172 2299.111v185.88M1897.028 2292.581v192.41M1919.884 2288.227v196.764M1942.74 2289.198v194.822M1965.597 2295.728v182.85M1988.453 2307.701v158.905M2011.309 2329.469v115.369"></path>
			</g>
			<path fill="#F1B104" d="M1416.219 2013.197a287.961 287.961 0 0 0-152.565 125.703l-42.899 73.004c-55.638 94.682-157.248 152.829-267.067 152.829V1761.42c0-133.742 57.227-261.093 157.232-349.896 96.576-85.758 248.079-70.273 325.002 33.478l143.594 199.874-163.297 368.321z"></path>
			<path fill="#FCD4D0" d="M1345.511 1314.504v59.328c-27.808-11.809-57.75-17.817-87.79-17.817-36.2 0-72.541 8.718-105.443 26.524l91.425-125.72 101.808 57.685z"></path>
			<path fill="#FF6E00" d="M1383.506 1171.718c0 11.635-5.856 21.909-14.791 28.015a33.322 33.322 0 0 1-9.197 4.441c-8.304 3.015-23.781 4.811-49.609-4.647-.011 0-.022-.011-.033-.011v.011a43.914 43.914 0 0 1 2.492 14.661c0 18.655-11.483 34.404-27.199 39.432a35.328 35.328 0 0 1-10.764 1.676c-20.973 0-37.963-18.405-37.963-41.109s16.99-41.109 37.963-41.109h41.261a27.716 27.716 0 0 1-.033-1.36c0-18.753 15.194-33.947 33.936-33.947s33.937 15.194 33.937 33.947z"></path>
			<path fill="#FCD4D0" d="M1395.065 1266.07h-1.665c-6.476 0-11.308 5.91-10.046 12.255l2.144 10.677c2.743 13.659-7.695 26.415-21.637 26.415h-40.444a32.58 32.58 0 0 1-29.343-18.416l-7.325-15.151c-1.589 4.822-6.117 8.294-11.472 8.294h-17.773a23.999 23.999 0 0 1-17.022-7.053 23.96 23.96 0 0 1-7.053-17.023c0-13.3 10.775-24.075 24.075-24.075h12.571c7.423 0 13.746 4.68 16.195 11.243 15.151-5.388 26.1-20.832 26.1-39.051 0-5.17-.881-10.1-2.492-14.661h.033c25.827 9.458 41.304 7.662 49.609 4.647a33.266 33.266 0 0 0 9.197-4.441l31.825 56.857c2.436 4.215-.601 9.483-5.477 9.483z"></path>
			<path fill="#FF6E00" d="m1357.318 1222.826-19.48 2.845a4.24 4.24 0 0 1-4.809-3.583l-.236-1.618a4.24 4.24 0 0 1 3.583-4.809l19.48-2.845a4.24 4.24 0 0 1 4.809 3.583l.236 1.618a4.242 4.242 0 0 1-3.583 4.809z"></path>
			<ellipse fill="#573240" cx="1350.001" cy="1240.016" rx="3.702" ry="6.139"></ellipse>
			<g fill="none" stroke="#573240" stroke-width="4" stroke-linecap="round" stroke-miterlimit="10">
				<path d="M1237.535 1280.62c4.326 6.404 11.653 10.615 19.963 10.615M1274.291 1267.16c0-7.285-5.906-13.191-13.191-13.191M1291.894 1298.089a32.6 32.6 0 0 0 29.351 18.415h21.938"></path>
			</g>
			<path fill="#FF6E00" d="M2077.107 1601.851c-2.92 10.098-34.798 18.053-73.678 18.053-38.889 0-70.758-7.955-73.678-18.053l27.433 188.409c3.196 7.168 22.685 12.675 46.245 12.675s43.049-5.507 46.245-12.675l27.433-188.409z"></path>
			<path fill="none" stroke="#FFF" stroke-width="5" stroke-linecap="round" stroke-miterlimit="10" d="M1957.184 1791.348c3.196 7.168 22.685 12.675 46.245 12.675s43.049-5.507 46.245-12.675M2033.941 1799.109l19.567-184.476M2018.208 1802.059l11.701-183.492M1971.894 1799.109l-19.567-184.476M1987.627 1802.059l-11.701-183.492M2003.429 1619.904v183.03"></path>
			<path fill="#FFF" d="M1926.732 1601.393c0 .571.072 1.13.225 1.679v.011c3.031 11.271 36.108 20.149 76.472 20.149 40.354 0 73.441-8.878 76.472-20.149v-.011a6.178 6.178 0 0 0 .225-1.679c0-12.072-34.343-21.849-76.697-21.849-42.364 0-76.697 9.778-76.697 21.849z"></path>
			<ellipse fill="none" stroke="#573240" stroke-width="5" stroke-linecap="round" stroke-miterlimit="10" cx="2003.606" cy="1596.807" rx="15.979" ry="5.701"></ellipse>
			<path fill="none" stroke="#FF6E00" stroke-width="5" stroke-miterlimit="10" d="m2002.387 1599.825-9.441-60.068a26.473 26.473 0 0 0-16.1-19.715l-35.093-14.199"></path>
			<path fill="#FCD4D0" d="M2068.915 1692.273h-13.562c-6.853 0-10.897-6.083-9.032-13.587 1.865-7.504 8.932-13.587 15.785-13.587h13.562c6.853 0 10.897 6.083 9.032 13.587-1.865 7.504-8.932 13.587-15.785 13.587zM2062.162 1719.448H2048.6c-6.853 0-10.897-6.083-9.032-13.587 1.865-7.504 8.932-13.587 15.785-13.587h13.562c6.853 0 10.897 6.083 9.032 13.587-1.865 7.504-8.932 13.587-15.785 13.587zM2055.408 1746.622h-13.562c-6.853 0-10.897-6.083-9.032-13.587 1.865-7.504 8.932-13.587 15.785-13.587h13.562c6.853 0 10.897 6.083 9.032 13.587-1.864 7.504-8.932 13.587-15.785 13.587zM2048.655 1773.797h-13.562c-6.853 0-10.897-6.083-9.032-13.587 1.865-7.504 8.932-13.587 15.785-13.587h13.562c6.853 0 10.897 6.083 9.032 13.587-1.865 7.504-8.932 13.587-15.785 13.587z"></path>
			<path fill="none" stroke="#573240" stroke-width="5" stroke-linecap="round" stroke-miterlimit="10" d="M2054.473 1691.046h15.471M2045.398 1720.229h17.023M2038.613 1747.617h18.112"></path>
			<path fill="#FCD4D0" d="m2003.736 1664.095-.566 6.204c-.99 11.145-10.34 19.689-21.528 19.689h-16.62c-13.039 0-23.041 11.57-21.158 24.467l7.793 48.412c3.668 24.51-8.511 48.662-30.388 60.308l-240.099 96.105c31.683-12.843 59.306-33.893 73.183-61.472 13.812-27.438 17.98-56.988 13.757-84.263-1.328-16.184-4.114-36.82-7.945-60.308h98.673c37.223-60.95 77.08-53.255 77.08-53.255h64.052a3.778 3.778 0 0 1 3.766 4.113z"></path>
			<path fill="none" stroke="#573240" stroke-width="5" stroke-linecap="round" stroke-miterlimit="10" d="M1924.836 1764.101c14.273-8.593 21.913-29.478 21.913-46.138"></path>
			<path fill="#F1B104" d="m1378.638 1280.37 130.536-.873a28.503 28.503 0 0 1 23.508 12.111l10.46 14.88c6.44 9.161-.113 21.777-11.311 21.777h-53.219l-101.616-38.828c-4.843-1.851-3.543-9.032 1.642-9.067z"></path>
			<circle fill="#FF6E00" cx="1510.715" cy="1295.381" r="9.796"></circle>
			<circle fill="#FFF" cx="1455.207" cy="1295.381" r="10.34"></circle>
			<circle fill="none" stroke="#573240" stroke-width="4" stroke-linecap="round" stroke-miterlimit="10" cx="1463.914" cy="1300.823" r="10.34"></circle>
			<path fill="none" stroke="#A9D8D5" stroke-width="5" stroke-miterlimit="10" d="m1487.74 1303.531 18.046 13.971M1414.888 1291.235h18.779"></path>
			<path fill="#FCD4D0" d="m1318.998 1769.757 194.407-217.555 49.133 69.381V1379.89l-67.818-26.818a25.767 25.767 0 0 1-16.151-21.354l-.381-3.722h53.766c11.33 0 17.839-12.887 11.112-22.007l-11.33-15.357a27.367 27.367 0 0 0-22.214-11.134l-54.344.359 22.53-24.239a21.459 21.459 0 0 1 15.727-6.857l74.522-.109s60.571 5.317 103.343 84.677c13.993 25.963 87.989 332.302 96.812 440.21 4.223 27.275.055 56.825-13.757 84.263-32.304 64.215-139.064 92.97-198.207 65.445l-237.15-153.49z"></path>
			<path fill="none" stroke="#FFF" stroke-width="5" stroke-linecap="round" stroke-miterlimit="10" d="M1760.515 1715.352c3.654 22.61 6.315 42.496 7.598 58.187 4.223 27.275.055 56.825-13.757 84.263-32.304 64.215-139.064 92.97-198.207 65.445l-393.23-255.726"></path>
			<path fill="none" stroke="#573240" stroke-width="4" stroke-linecap="round" stroke-miterlimit="10" d="M1562.538 1379.89h29.878M1562.538 1615.053v82.896"></path>
			<path fill="none" stroke="#FFF" stroke-width="5" stroke-miterlimit="10" d="m1274.401 1739.085 208.959-228.053"></path>
			<path fill="#F1B104" d="m3293.143 2417.572-.26 1.829-15.728 107.99c-3.537 7.934-25.109 14.029-51.187 14.029s-47.65-6.095-51.187-14.029l-15.727-107.99-.261-1.829c.413-9.73 30.333-17.588 67.175-17.588 36.853 0 66.761 7.858 67.175 17.588z"></path>
			<path fill="none" stroke="#FFF" stroke-width="5" stroke-miterlimit="10" d="M3158.792 2417.572c.413-9.73 30.333-17.588 67.175-17.588 36.853 0 66.762 7.858 67.175 17.588"></path>
			<path fill="none" stroke="#FF6E00" stroke-width="5" stroke-miterlimit="10" d="M3304.763 2226.06h-31.853c-15.878 0-29.767 10.688-33.833 26.037l-35.66 192.38"></path>
			<g fill="none" stroke="#573240" stroke-width="5" stroke-linecap="round" stroke-miterlimit="10">
				<path d="M3144.415 2318.844c3.232 11.178 38.518 19.983 81.553 19.983 43.046 0 78.321-8.805 81.553-19.983l-30.365 208.546c-3.537 7.934-25.109 14.029-51.187 14.029s-47.65-6.095-51.187-14.029l-30.367-208.546zM3192.195 2537.187l-21.658-204.193M3209.609 2540.452l-12.951-203.105M3260.873 2537.187l21.658-204.193M3243.458 2540.452l12.951-203.105M3225.968 2338.827v202.593"></path>
			</g>
			<path fill="#FFF" d="M3310.862 2318.338c0 .632-.08 1.251-.25 1.859v.012c-3.355 12.475-39.967 22.302-84.645 22.302-44.667 0-81.291-9.827-84.646-22.302v-.012a6.857 6.857 0 0 1-.249-1.859c0-13.362 38.013-24.185 84.894-24.185 46.894 0 84.896 10.823 84.896 24.185z"></path>
			<ellipse fill="none" stroke="#573240" stroke-width="5" stroke-linecap="round" stroke-miterlimit="10" cx="3225.772" cy="2313.262" rx="17.687" ry="6.31"></ellipse>
			<path fill="none" stroke="#FF6E00" stroke-width="5" stroke-miterlimit="10" d="M3304.763 2226.06h-31.853c-15.878 0-29.767 10.688-33.833 26.037l-11.957 64.505"></path>
			<path fill="#A9D8D5" d="M2190.789 2302.943h528.25l171.531 166.894h-860.416z"></path>
			<path fill="#F1B104" d="M2189.929 2302.573V1992.48h528.838v310.463zM2030.154 2469.837h860.416v24.663h-860.416zM2481.716 2376.05l220.268 6.53c0 30.954-108.36 56.052-242.036 56.052-133.666 0-242.025-25.098-242.025-56.052s108.36-56.052 242.025-56.052l21.768 49.522z"></path>
			<path fill="none" stroke="#FFF" stroke-width="3" stroke-linecap="round" stroke-miterlimit="10" d="m2323.265 2335.269 157.363 39.693"></path>
			<path fill="none" stroke="#573240" stroke-width="6" stroke-linecap="round" stroke-miterlimit="10" d="M2701.984 2382.581c0 30.954-108.36 56.052-242.036 56.052-133.666 0-242.025-25.098-242.025-56.052s108.36-56.052 242.025-56.052"></path>
			<ellipse fill="#FF6E00" cx="2423.852" cy="2409.743" rx="27.445" ry="12.601"></ellipse>
			<path fill="#FF6E00" d="M2475.359 2361.596a55.73 55.73 0 0 1-5.464.261c-15.161 0-24.184-5.769-24.184-12.876 0-6.204 6.106-11.396 18.568-12.604l11.08 25.219z"></path>
			<ellipse fill="#FFF" cx="2503.771" cy="2395.354" rx="9.874" ry="9.509"></ellipse>
			<ellipse fill="none" stroke="#573240" stroke-width="4" stroke-linecap="round" stroke-miterlimit="10" cx="2374.452" cy="2371.208" rx="8.558" ry="4.898"></ellipse>
			<ellipse fill="none" stroke="#FFF" stroke-width="3" stroke-linecap="round" stroke-miterlimit="10" cx="2430.941" cy="2345.103" rx="6.868" ry="4.898"></ellipse>
			<ellipse fill="none" stroke="#573240" stroke-width="4" stroke-linecap="round" stroke-miterlimit="10" cx="2481.007" cy="2417.991" rx="7.619" ry="6.53"></ellipse>
			<path fill="none" stroke="#A9D8D5" stroke-width="6" stroke-miterlimit="10" d="m2413.015 2337.467-18.201 6.319M2447.367 2381.334l19.461 20.222M2532.302 2387.295l-9.149 18.604M2394.814 2387.478l-28.92 18.421"></path>
			<ellipse fill="#FF6E00" cx="2323.265" cy="2367.453" rx="27.445" ry="11.389"></ellipse>
			<ellipse fill="#FF6E00" cx="2570.424" cy="2397.595" rx="27.445" ry="11.389"></ellipse>
			<path fill="none" stroke="#A9D8D5" stroke-width="6" stroke-miterlimit="10" d="m2277.87 2377.754 23.397 15.867M2615.069 2389.472l16.612 16.427"></path>
			<ellipse fill="#FFF" cx="2334.581" cy="2400.214" rx="12.301" ry="10.742"></ellipse>
			<ellipse fill="none" stroke="#FFF" stroke-width="3" stroke-linecap="round" stroke-miterlimit="10" cx="2551.616" cy="2416.102" rx="5.726" ry="4.898"></ellipse>
			<ellipse fill="none" stroke="#FFF" stroke-width="3" stroke-linecap="round" stroke-miterlimit="10" cx="2255.921" cy="2382.581" rx="5.726" ry="4.898"></ellipse>
			<ellipse fill="none" stroke="#573240" stroke-width="4" stroke-linecap="round" stroke-miterlimit="10" cx="2646.996" cy="2394.291" rx="8.558" ry="4.898"></ellipse>
			<path fill="#A9D8D5" d="M4492.87 2137.926c-9.246 25.726-28.206 42.46-28.206 42.46s-3.97-24.975 5.275-50.701c9.246-25.726 21.874-44.736 28.206-42.46s3.971 24.975-5.275 50.701zM4320.93 2175.651c31.308 1.666 55.963 16.629 55.963 16.629s-26.104 12.263-57.412 10.597c-31.308-1.666-56.363-9.111-55.963-16.629s26.104-12.263 57.412-10.597zM4351.38 2086.391c4.526 31.024-7.867 58.517-7.867 58.517s-19.731-22.806-24.257-53.83-1.003-57.222 7.867-58.517c8.872-1.294 19.731 22.807 24.257 53.83zM4504.289 2506.863c-14.595 18.988-37.948 30.211-37.948 30.211s5.752-26.093 20.348-45.08c14.595-18.988 27.946-27.186 32.506-23.681 4.559 3.505-.311 19.562-14.906 38.55zM4546.725 2285.774c-21.275 10.997-48.001 10.066-48.001 10.066s14.173-23.354 35.448-34.351 38.129-12.178 41.595-5.472-7.767 18.76-29.042 29.757z"></path>
			<path fill="none" stroke="#573240" stroke-width="4" stroke-linecap="round" stroke-miterlimit="10" d="M4465.486 2612.227v-437.93M4518.671 2245.472l-53.185 142.633M4343.402 2141.52l122.084 175.269"></path>
			<path fill="#573240" d="M4500.569 2020.609c-6.804 18.933-21.665 30.922-21.665 30.922s-3.829-18.707 2.975-37.639c6.804-18.933 16.504-32.777 21.665-30.922s3.829 18.706-2.975 37.639zM4466.394 2100.938c9.229 43.215.558 81.697.558 81.697s-23.634-31.583-32.863-74.798-9.479-79.792-.558-81.697 23.635 31.584 32.863 74.798zM4543.332 2215.559c-10.852 36.403-37.655 64.459-37.655 64.459s-7.031-37.494 3.821-73.897c10.852-36.403 26.736-60.535 35.478-57.929 8.743 2.606 9.209 30.964-1.644 67.367zM4442.286 2431.38c19.058 28.292 23.2 58.844 23.2 58.844s-26.756-15.32-45.813-43.612c-19.057-28.292-29.444-54.637-23.2-58.844s26.756 15.319 45.813 43.612z"></path>
			<path fill="#A9D8D5" d="M4432.96 2458.845c19.958 11.475 30.693 30.244 30.693 30.244s-21.622.164-41.58-11.311-33.7-25.016-30.693-30.244c3.007-5.228 21.623-.164 41.58 11.311z"></path>
			<circle fill="none" stroke="#573240" stroke-width="4" stroke-linecap="round" stroke-miterlimit="10" cx="4306.19" cy="2148.9" r="7.632"></circle>
			<circle fill="none" stroke="#573240" stroke-width="4" stroke-linecap="round" stroke-miterlimit="10" cx="4576.411" cy="2214.019" r="7.632"></circle>
			<circle fill="none" stroke="#573240" stroke-width="4" stroke-linecap="round" stroke-miterlimit="10" cx="4446.646" cy="2514.469" r="7.632"></circle>
			<path fill="none" stroke="#A9D8D5" stroke-width="5" stroke-linecap="round" stroke-linejoin="round" stroke-miterlimit="10" d="m4140.919 2615.748-36.885-82.703 61.752 58.111-30.876-164.672 109.111 169.006 77.838-103.167"></path>
			<path fill="none" stroke="#A9D8D5" stroke-width="5" stroke-miterlimit="10" d="M3947.741 2615.748h701.606M1090.263 2612.227c-63.793 0-99.094-51.455-157.531-98.945-85.726-69.667-159.746 18.54-127.095 31.193 38.765 15.023 63.56-132.226-29.885-132.226-71.492 0-149.929 171.145-210.043 199.744"></path>
			<path fill="#A9D8D5" d="M429.514 2248.771c12.453 33.891 10.317 75.669 10.317 75.669s-28.679-30.455-41.132-64.346c-12.453-33.891-12.475-55.257-3.966-58.384 8.51-3.126 22.328 13.171 34.781 47.061zM605.074 2109.83c-7.944 45.381-37.041 90.131-37.041 90.131s-12.166-51.973-4.222-97.354 21.595-68.981 32.99-66.986c11.394 1.995 16.217 28.828 8.273 74.209z"></path>
			<path fill="#573240" d="M544.987 1976.363c-7.944 45.381-37.041 90.131-37.041 90.131s-12.166-51.973-4.222-97.354 21.595-68.981 32.99-66.986 16.217 28.828 8.273 74.209z"></path>
			<path fill="#A9D8D5" d="M720.133 1887.307c-9.198 46.771-34.018 81.272-34.018 81.272s-9.906-41.33-.707-88.101 24.429-83.158 34.018-81.272c9.589 1.886 9.905 41.33.707 88.101z"></path>
			<path fill="none" stroke="#573240" stroke-width="4" stroke-linecap="round" stroke-miterlimit="10" d="m512.633 1802.916-7.055 809.311M691.558 1955.402l-183.114 366.14M759.197 1961.251l-93.739 46.03M427.814 2305.942l78.429 124.997"></path>
			<path fill="#A9D8D5" d="M795.211 1970.34c-29.443 9.07-63.763 3.232-63.763 3.232s24.622-25.646 54.064-34.716 49.878-6.823 52.557 1.871c2.678 8.694-13.416 20.543-42.858 29.613z"></path>
			<path fill="#573240" d="M763.411 1953.937c-19.221 20.882-50.326 32.071-50.326 32.071s7.691-31.836 26.912-52.718c19.221-20.882 36.526-28.579 42.692-22.903 6.166 5.675-.057 22.667-19.278 43.55z"></path>
			<circle fill="none" stroke="#573240" stroke-width="4" stroke-linecap="round" stroke-miterlimit="10" cx="769.703" cy="1852.331" r="11.917"></circle>
			<path fill="#573240" d="M631.463 2166.226c-25.864 20.804-62.883 31.216-62.883 31.216s18.104-33.928 43.967-54.732 44.469-27.099 49.693-20.605-4.913 23.317-30.777 44.121zM572.674 2447.793c-14.584 23.564-44.433 39.821-44.433 39.821s1.234-33.967 15.817-57.531c14.584-23.564 29.093-32.693 36.995-27.803 7.902 4.891 6.204 21.949-8.379 45.513zM396.66 1965.713c15.909 17.709 22.11 46.242 22.11 46.242s-27.707-9.213-43.616-26.922c-15.909-17.709-19.935-31.875-13.996-37.21s19.593.18 35.502 17.89z"></path>
			<circle fill="none" stroke="#573240" stroke-width="4" stroke-linecap="round" stroke-miterlimit="10" cx="652.68" cy="2085.843" r="7.222"></circle>
			<circle fill="none" stroke="#573240" stroke-width="4" stroke-linecap="round" stroke-miterlimit="10" cx="482.802" cy="1915.801" r="7.222"></circle>
			<circle fill="none" stroke="#573240" stroke-width="4" stroke-linecap="round" stroke-miterlimit="10" cx="362.589" cy="2265.754" r="9.935"></circle>
			<path fill="#A9D8D5" d="M541.758 1764.844c-9.123 33.468-29.581 57.039-29.581 57.039s-5.666-30.692 3.457-64.16c9.123-33.469 22.367-59.006 29.581-57.04s5.666 30.692-3.457 64.161z"></path>
			<path fill="#573240" d="M504.161 1781.527c10.744 18.823 7.98 40.631 7.98 40.631s-20.183-8.71-30.927-27.533-14.317-37.014-7.98-40.631c6.336-3.617 20.183 8.71 30.927 27.533zM396.261 2304.781c21.661 1.873 43.636 16.686 43.636 16.686s-24.191 10.821-45.852 8.948c-21.661-1.873-33.2-8.652-32.588-15.731.611-7.078 13.143-11.776 34.804-9.903z"></path>
			<path fill="#A9D8D5" d="M503.147 2008.86c15.89 43.244 8.612 97.825 8.612 97.825s-40.057-37.587-55.948-80.831c-15.89-43.244-14.367-71.077-1.597-75.77 12.772-4.693 33.043 15.532 48.933 58.776z"></path>
			<path fill="none" stroke="#A9D8D5" stroke-width="5" stroke-miterlimit="10" d="M361.433 2612.227h761.131"></path>
			<path fill="none" stroke="#A9D8D5" stroke-width="5" stroke-linecap="round" stroke-linejoin="round" stroke-miterlimit="10" d="m406.759 2585.739-46.895-94.504 82.317 86.901 10.883-107.177 54.269 141.268 49.775-66.122"></path>
		</g>
	</switch>
</svg>