<svg xmlns="http://www.w3.org/2000/svg" width="5000" height="3500" xml:space="preserve">
	<switch>
		<g>
			<path fill="transparent" d="M0 0h5000v3500H0z"></path>
			<path fill="#E0F1F0" d="m730.557 1690.86 687.364-966.924h411.981l687.364 966.924z"></path>
			<path fill="none" stroke="#573240" stroke-width="5" stroke-linecap="round" stroke-miterlimit="10" d="M1620.486 394.38v240.876"></path>
			<path fill="#F6ACC1" d="M1829.667 725.03h-412.23c.5-2.13 1.1-4.73 1.73-7.46a30.416 30.416 0 0 1 23.37-22.93l61.566-5.645a80.94 80.94 0 0 0 61.435-38.006l2.259-3.649a33.743 33.743 0 0 1 25.88-12.08h59.75c9.99 0 19.47 4.42 25.88 12.08l2.259 3.649a80.943 80.943 0 0 0 61.435 38.006l61.566 5.645a30.416 30.416 0 0 1 23.37 22.93c.63 2.73 1.23 5.33 1.73 7.46z"></path>
			<ellipse fill="#573240" cx="1623.669" cy="723.936" rx="206.234" ry="17.094"></ellipse>
			<circle fill="none" stroke="#F1B104" stroke-width="5" stroke-linecap="round" stroke-miterlimit="10" cx="1620.486" cy="750.937" r="30.525"></circle>
			<path fill="#E0F1F0" d="m2164.934 1690.86 687.363-966.924h411.982l687.364 966.924z"></path>
			<path fill="none" stroke="#573240" stroke-width="5" stroke-linecap="round" stroke-miterlimit="10" d="M3054.863 394.38v240.876"></path>
			<path fill="#F6ACC1" d="M3264.044 725.03h-412.23c.5-2.13 1.1-4.73 1.73-7.46a30.416 30.416 0 0 1 23.37-22.93l61.566-5.645a80.94 80.94 0 0 0 61.435-38.006l2.259-3.649a33.743 33.743 0 0 1 25.88-12.08h59.75c9.99 0 19.47 4.42 25.88 12.08l2.259 3.649a80.942 80.942 0 0 0 61.435 38.006l61.566 5.645a30.416 30.416 0 0 1 23.37 22.93c.63 2.73 1.23 5.33 1.73 7.46z"></path>
			<ellipse fill="#573240" cx="3058.046" cy="723.936" rx="206.234" ry="17.094"></ellipse>
			<circle fill="none" stroke="#F1B104" stroke-width="5" stroke-linecap="round" stroke-miterlimit="10" cx="3054.863" cy="750.937" r="30.525"></circle>
			<path fill="#FF6E00" d="M2220.27 930.91c-12.71 0-23.02-11.09-23.02-24.78s10.31-24.79 23.02-24.79c4.79 0 9.24 1.58 12.93 4.28 1-2.16 2.43-4.06 4.3-5.61 8.44-6.98 22.52-3.9 31.46 6.89 2.46 2.98 4.27 6.23 5.42 9.52 9.77-7.36 23.09-8.49 33.56-1.8 13.65 8.72 19.477 29.634 8.13 46.77l-95.8-10.48z"></path>
			<path fill="#FFF" stroke="#573240" stroke-width="5" stroke-linecap="round" stroke-miterlimit="10" d="M2311.032 1041.818v-63.206h-87.257l-23.038 71.67 57.597 94.084z"></path>
			<path fill="#FFF" stroke="#573240" stroke-width="5" stroke-linecap="round" stroke-miterlimit="10" d="M2310.025 941.514c10.452 0 18.923 8.47 18.923 18.912 0 5.231-2.12 9.962-5.541 13.382a18.864 18.864 0 0 1-13.382 5.54h-18.07l-2.248 8.95c-3.048 12.125-13.958 20.627-26.455 20.627h-46.997c-10.175 0-17.612-9.621-15.055-19.476l16.771-64.492c3.388-13.009 15.13-22.087 28.565-22.087h17.302c12.083 0 21.586 10.324 20.595 22.374l-.298 3.569c-.565 6.776 4.784 12.583 11.592 12.583l14.298.118z"></path>
			<path fill="none" stroke="#573240" stroke-width="5" stroke-linecap="round" stroke-miterlimit="10" d="M2303.899 961.432a8.2 8.2 0 0 1 8.199-8.199"></path>
			<path fill="none" stroke="#573240" stroke-width="4" stroke-linecap="round" stroke-linejoin="round" stroke-miterlimit="10" d="M2240.062 980.77c5.836 2.506 12.599-.194 15.105-6.03l4.043 4.69"></path>
			<ellipse fill="#573240" cx="2222.451" cy="949.635" rx="3.419" ry="5.284"></ellipse>
			<ellipse fill="#573240" cx="2257.794" cy="949.635" rx="3.419" ry="5.284"></ellipse>
			<path fill="none" stroke="#573240" stroke-width="4" stroke-linecap="round" stroke-miterlimit="10" d="M2228.064 930.565a4.91 4.91 0 0 1 4.91 4.91v28.831a5.434 5.434 0 0 0 5.434 5.434h3.27"></path>
			<path fill="#FF6E00" d="M2231.699 937.097h-17.321a3.172 3.172 0 0 1-3.172-3.172v-2.774a3.172 3.172 0 0 1 3.172-3.172h17.321a3.172 3.172 0 0 1 3.172 3.172v2.774a3.172 3.172 0 0 1-3.172 3.172zM2269.681 937.097h-16.892a3.172 3.172 0 0 1-3.172-3.172v-2.774a3.172 3.172 0 0 1 3.172-3.172h16.892a3.172 3.172 0 0 1 3.172 3.172v2.774a3.172 3.172 0 0 1-3.172 3.172z"></path>
			<path fill="#96CFCE" d="M2017.891 2983.525s113.883 23.863 216.265 7.444c0 0 122.468-298.805 41.516-628.952l24.156-344.846s147.91 617.471 133.638 966.353c0 0 126.891 21.407 224.799 7.817 0 0 52.254-414.827-50.581-733.031 0 0-56.611-277.293-91.646-558.237h-467.451c-3.767 277.718 1.19 1215.167-30.696 1283.452z"></path>
			<path fill="#573240" d="M2250.772 3079.621h-73.085c-1.455-8.678-8.293-15.259-16.511-15.259-8.229 0-15.066 6.581-16.521 15.259h-196.102c-7.456 0-10.333-9.697-4.085-13.766 28.413-18.505 62.536-49.939 73.43-82.335 0 0 116.057 21.69 214.995 7.49-.001 0 24.513 4.825 17.879 88.611zM2676.348 3079.621h-73.085c-1.455-8.678-8.293-15.259-16.511-15.259-8.229 0-15.066 6.581-16.521 15.259h-206.102c-7.456 0-10.333-9.697-4.085-13.766 28.413-18.505 62.537-49.939 73.43-82.335 0 0 126.057 21.69 224.995 7.49-.001 0 24.513 4.825 17.879 88.611z"></path>
			<path fill="#A9D8D5" d="m2483.019 1333.893 59.336 77.247-50.341 7 37.834 170.553h77.04c112.35 0 184.255-119.645 131.526-218.854l-111.432-209.66a171.038 171.038 0 0 0-125.776-78.047l-165.146-20.05-11.84-19.155a14.664 14.664 0 0 0-12.648-6.953l-28.992.348a14.064 14.064 0 0 0-13.715 12.312l-9.464 75.49-17.095-76.069a14.063 14.063 0 0 0-13.721-10.98h-26.316a14.663 14.663 0 0 0-11.198 5.197l-17.583 20.801-80.41 3.475a240.291 240.291 0 0 0-53.242 8.349L1662.868 1179.2v33.991c0 79.814 4.702 144.516 84.516 144.516h283.387c15.109 0 27.024 12.855 25.88 27.92l-1.907 25.121 417.271-2.608-13.811-62.403c-3.208-14.593 15.487-23.516 24.815-11.844z"></path>
			<path fill="#573240" d="m2634.299 2056.531-648.563-.06 105.364-981.22c.66-6 5.73-10.54 11.77-10.54h32.79v145.79c0 20.462 16.588 37.05 37.05 37.05h172.51c20.462 0 37.05-16.588 37.05-37.05v-142.96l21.66 2.09c9.53 1.11 17.3 8.17 19.3 17.56l211.069 969.34z"></path>
			<path fill="#FFF" stroke="#573240" stroke-width="5" stroke-linecap="round" stroke-miterlimit="10" d="m2016.882 985.963-165.998 308.725c-18.574 38.528-57.569 63.019-100.341 63.019h0c-93.848 0-145.636-108.945-86.383-181.722l277.638-294.643 75.084 104.621z"></path>
			<path fill="#F6ACC1" d="M2177.46 1077.52c-6.14-7.43-17.06-8.93-25-3.22-8.24 5.93-10.15 17.39-4.29 25.67l-43.13-56.11c-19.42 11.63-44.83 6.62-58.27-12.09l-142.33-198.05-.08-.1c-8.41-11.96 6-36.88 32.25-55.75 26.26-18.87 54.47-24.58 63.13-12.79l.07.1 142.33 198.04c13.45 18.71 10.09 44.39-7.11 59.09l42.43 55.21z"></path>
			<path fill="#573240" d="m2178.163 1078.417.07.098c5.953 8.283 4.058 19.816-4.225 25.769-8.275 5.947-19.811 4.066-25.763-4.217l-.07-.098c-5.867-8.283-3.955-19.742 4.287-25.666 8.25-5.929 19.721-4.087 25.701 4.114z"></path>
			<path fill="#FF6E00" d="M2313.51 1380.93v47.61c0 16.58-13.45 30.03-30.04 30.03h-39.46c-16.59 0-30.04-13.45-30.04-30.03v-47.61c.06 16.18 22.32 29.27 49.77 29.27 27.44 0 49.71-13.09 49.77-29.27z"></path>
			<path fill="#FFF" d="M2313.51 1380.86v.07c-.06 16.18-22.33 29.27-49.77 29.27-27.45 0-49.71-13.09-49.77-29.27v-.07c0-16.2 22.28-29.34 49.77-29.34 27.48 0 49.77 13.14 49.77 29.34z"></path>
			<path fill="#F1B104" d="M2313.508 1349.49v31.37c0 12.58-13.43 23.31-32.29 27.48-20.59-3.39-38.42-16.96-47-36.48l-5.271-11.98-4.24-9.63a121.003 121.003 0 0 1-10.25-48.74v-42.89a74.57 74.57 0 0 0-10.69-38.48 74.604 74.604 0 0 0-29-27.46 50.035 50.035 0 0 1-26.59-44.2v-61.51c12.782-.198 23.25 10.109 23.25 22.893v2.767c0 16.97 9.45 32.53 24.52 40.34l24.2 7.38a91.065 91.065 0 0 1 35.88 33.53c8.5 14 13.24 30.29 13.24 47.29a84.322 84.322 0 0 0 24.13 59.08 70.346 70.346 0 0 1 20.111 49.24z"></path>
			<g stroke="#573240" stroke-width="5" stroke-linecap="round" stroke-miterlimit="10">
				<path fill="#FFF" d="M2620.634 1588.692h-374.626c-37.878 0-68.583-30.706-68.583-68.583v-65.805c0-15.967 12.944-28.911 28.911-28.911h4.633v3.143c0 16.589 13.448 30.037 30.037 30.037h45.465c16.589 0 30.037-13.448 30.037-30.037v-29.769h12.904a27.638 27.638 0 0 1 18.556 7.156l13.307 19.997 259.359-17c49.648 0 89.894 40.252 89.886 89.9v0c-.007 49.637-40.249 89.872-89.886 89.872z"></path>
				<path fill="none" d="m2177.459 1513.789 25.297 30.089a30.473 30.473 0 0 0 22.568 9.997h39.734M2177.459 1482.789l25.297 30.089a30.473 30.473 0 0 0 22.568 9.997h39.734M2177.459 1450.789l25.297 30.089a30.473 30.473 0 0 0 22.568 9.997h39.734"></path>
			</g>
			<g stroke="#573240" stroke-width="5" stroke-linecap="round" stroke-miterlimit="10">
				<path fill="#FFF" d="M2035.946 810.717h0c9.45-9.455 25.075-8.38 33.14 2.28l52.239 69.044c8.563 11.318 8.183 27.048-.917 37.938l-30.491 36.491c-7.812 9.349-22.297 8.978-29.62-.759l-36.386-48.382a23.39 23.39 0 0 1 .559-28.832l20.284-24.901a24.185 24.185 0 0 0 .888-29.388l-9.696-13.491z"></path>
				<path fill="none" d="m2106.408 900.979-30.491 36.491c-7.812 9.349-22.297 8.978-29.62-.759M2091.408 880.979l-30.491 36.491c-7.812 9.349-22.297 8.978-29.62-.759M2077.408 860.979l-30.492 36.491c-6.835 8.18-18.78 8.919-26.565 2.452"></path>
			</g>
			<path fill="#FDE5E3" d="M740.497 1688.86h3250.056v1395.848H740.497z"></path>
			<path fill="none" stroke="#573240" stroke-width="5" stroke-linecap="round" stroke-miterlimit="10" d="M4075 1689.503H656.03M4075 1734.503H656.03"></path>
			<path fill="none" stroke="#573240" stroke-width="6" stroke-linecap="round" stroke-miterlimit="10" d="M2496.022 1861.44h-142.745v-.981c0-36.947 29.952-66.899 66.899-66.899h8.946c36.948 0 66.899 29.952 66.899 66.899v.981z"></path>
			<path fill="#573240" d="M2558.127 2056.531h-311.076l38.373-189.249a13.623 13.623 0 0 1 13.351-10.916h259.351v200.165z"></path>
			<path fill="#FFF" d="M2378.125 1827.5h189.874v189.874h-189.874z"></path>
			<path fill="none" stroke="#FF6E00" stroke-width="6" stroke-miterlimit="10" d="M2538.638 1861.44h-142.745v-.981c0-36.947 29.952-66.899 66.899-66.899h8.946c36.948 0 66.899 29.952 66.899 66.899v.981z"></path>
			<path fill="#FF6E00" d="M2634.299 2056.531h-305.061V1869.99c0-7.524 6.099-13.623 13.623-13.623h239.713c6.48 0 12.063 4.565 13.351 10.916l38.374 189.248z"></path>
			<g stroke-width="5" stroke-linecap="round" stroke-miterlimit="10">
				<g fill="none" stroke="#F1B104">
					<path d="m2579.466 2088.322 126.415 996.386M2281.881 2088.322l-126.415 996.386M2685.669 2925.43c-4.5-34.198-33.649-59.763-68.142-59.763h-373.29c-34.793 0-64.098 26.001-68.24 60.547"></path>
				</g>
				<path fill="#FFF" stroke="#573240" d="M2648.621 2088.322h-435.895c-8.796 0-15.926-7.13-15.926-15.926h0c0-8.796 7.13-15.926 15.926-15.926h435.895c8.796 0 15.926 7.13 15.926 15.926h0c0 8.796-7.13 15.926-15.926 15.926z"></path>
			</g>
			<path fill="#A9D8D5" d="M4190.416 1671.361v1294.886h-287.809V2803.41l-199.202-252.424a270.785 270.785 0 0 1-57.028-193.099l54.763-582.367 4.338-99.45 484.938-4.709z"></path>
			<path fill="none" stroke="#573240" stroke-width="5" stroke-linecap="round" stroke-miterlimit="10" d="m4189.797 2768.318-259.237-403.011 41.306-461.785 43.124-9.161M3903.607 2808.411l137.403 152.504"></path>
			<path fill="#FFF" d="M3944.92 2966.19h202.938v40.058H3944.92z"></path>
			<path fill="#FF6E00" d="M3962.389 2966.19h4v40.058h-4zM3983.389 2966.19h4v40.058h-4zM4004.389 2966.19h4v40.058h-4zM4025.389 2966.19h4v40.058h-4zM4046.389 2966.19h4v40.058h-4zM4067.389 2966.19h4v40.058h-4zM4088.389 2966.19h4v40.058h-4zM4109.389 2966.19h4v40.058h-4zM4130.389 2966.19h4v40.058h-4z"></path>
			<path fill="#573240" d="m3944.455 3006.248-45.444 73.272c-6.503 10.485 1.038 24.035 13.376 24.035h209.584c14.153 0 25.61-11.503 25.555-25.656l-.282-71.651h-202.789z"></path>
			<path fill="#FFF" d="m4084.48 2994.19-40.47-37.28 124.89-161.1 37.16 41.9z"></path>
			<path fill="#FF6E00" d="m4094.64 2981.12-2.46 3.16-42.48-34.71 2.45-3.16zM4106 2966.49l-2.45 3.16-42.5-34.72 2.45-3.16zM4117.36 2951.87l-2.45 3.15-42.51-34.73 2.45-3.16zM4129.2 2936.63l-2.45 3.16-42.53-34.74 2.45-3.17zM4140.56 2922.01l-2.45 3.16-42.55-34.76 2.46-3.16zM4152.82 2906.23l-2.46 3.16-42.96-34.25 2.45-3.16zM4163.76 2892.15l-2.45 3.16-42.58-34.78 2.45-3.16zM4176.5 2875.75l-2.45 3.16-42.6-34.79 2.45-3.17zM4189.67 2858.8l-2.45 3.16-42.61-34.81 2.45-3.17zM4202.34 2842.49l-2.45 3.16-42.56-34.91 2.45-3.16z"></path>
			<path fill="#573240" d="m4283.616 2866.458-43.711 74.877-19.332-8.351-15.468 67.945v.01l-52.458 89.841a25.755 25.755 0 0 1-22.244 12.774h-66.761s42.226-55.677 20.842-109.363l108.461-142.697c10.349-13.612 29.034-17.723 44.14-9.713l46.531 24.677z"></path>
			<path fill="none" stroke="#FFF" stroke-width="5" stroke-linecap="round" stroke-miterlimit="10" d="M4063.641 3105.62s46.367-74.996 20.842-114.428"></path>
			<path fill="#FFF" d="m3710.21 1533.27-257.45-5.17 168.02-303.47c35.49-63.3 102.41-102.5 174.98-102.5h386.93c78.79 0 148.06 52.18 169.8 127.91l92.26 282.98c41.06 141.79-128.56 249.29-239.26 151.64l-1.29-1.14c-17.78 43.36-70.83 133.6-209.67 156.73l-22.34-93.57-13.55 98.12c-183.75 18.14-243.78-50.35-257.29-69.36l8.86-242.17z"></path>
			<path fill="none" stroke="#573240" stroke-width="5" stroke-linecap="round" stroke-miterlimit="10" d="M4205.491 1684.659c110.702 97.656 280.321-9.846 239.262-151.641l-92.266-282.976c-21.738-75.734-91.004-127.915-169.795-127.915h-386.93c-72.574 0-139.49 39.198-174.981 102.502l-168.02 303.467M3684.112 1519.875l67.521-131.312M3709.873 1550.576v-79.923"></path>
			<path fill="#F1B104" d="m4053.27 1122.13-56.19 184.22-66.24-184.22 11.68-59.12a26.203 26.203 0 0 0 16.81 6.06h40.51c14.3 0 26.34-9.65 29.97-22.79h14.59l8.87 75.85z"></path>
			<path fill="#F1B104" d="M4066.56 1020.55v5.06c0 11.41-9.26 20.67-20.67 20.67h-16.08c-3.63 13.14-15.67 22.79-29.97 22.79h-40.51c-6.39 0-12.25-2.27-16.81-6.06-5.85-4.83-9.57-12.14-9.57-20.32v-61.85c0-15.07 14.38-25.98 28.89-21.92l38.89 10.87a19.778 19.778 0 0 1 14.45 19.05v18.51c0 4.5 3.43 7.84 7.43 8.29v-1.82c0-7.7 6.24-13.94 13.94-13.94h9.34c11.41 0 20.67 9.26 20.67 20.67z"></path>
			<path fill="#573240" d="M4048.06 982.07c0 2.88-2.25 11.11-4.23 17.81h-7.28c-7.7 0-13.94 6.24-13.94 13.94v1.72l-.2.07-.04.01s-.04-.01-.11-.04h-.01c-.3-.09-1.18-.37-2.53-.81-2.63-1.35-4.54-4.06-4.54-7.42v-18.51c0-8.88-5.91-16.66-14.45-19.05l-38.89-10.87c-12.73-3.56-25.35 4.39-28.26 16.57-.22-.22-.43-.44-.63-.65-17.13-18.16-17.48-52.05 5.48-59.25 22.96-7.19 109.63 61.34 109.63 66.48z"></path>
			<path fill="none" stroke="#573240" stroke-width="4" stroke-linecap="round" stroke-linejoin="round" stroke-miterlimit="10" d="M3963.312 1041.761c6.433 2.762 13.887-.213 16.65-6.646"></path>
			<path fill="#573240" d="M3953.244 995.971h-19.74a3.172 3.172 0 0 1-3.172-3.172v-3.707a3.172 3.172 0 0 1 3.172-3.172h19.74a3.172 3.172 0 0 1 3.172 3.172v3.707a3.172 3.172 0 0 1-3.172 3.172zM3995.11 995.971h-19.268a3.172 3.172 0 0 1-3.172-3.172v-3.707a3.172 3.172 0 0 1 3.172-3.172h19.268a3.172 3.172 0 0 1 3.172 3.172v3.707a3.172 3.172 0 0 1-3.172 3.172z"></path>
			<ellipse fill="#573240" cx="3940.377" cy="1009.791" rx="3.769" ry="5.825"></ellipse>
			<ellipse fill="#573240" cx="3981.683" cy="1009.791" rx="3.769" ry="5.825"></ellipse>
			<path fill="none" stroke="#573240" stroke-width="4" stroke-linecap="round" stroke-miterlimit="10" d="M3948.913 988.771a5.412 5.412 0 0 1 5.412 5.412v31.78a5.989 5.989 0 0 0 5.989 5.989h3.604"></path>
			<g fill="none" stroke="#FF6E00" stroke-width="4" stroke-miterlimit="10">
				<path d="M3951.404 1022.58h-24.885a2.921 2.921 0 0 1-2.921-2.921v-20.792a2.921 2.921 0 0 1 2.921-2.921h24.885a2.92 2.92 0 0 1 2.921 2.921v20.792a2.921 2.921 0 0 1-2.921 2.921zM3998.404 1022.58h-24.885a2.921 2.921 0 0 1-2.921-2.921v-20.792a2.921 2.921 0 0 1 2.921-2.921h24.885a2.92 2.92 0 0 1 2.921 2.921v20.792a2.921 2.921 0 0 1-2.921 2.921zM3954.325 1006.223h16.273M4001.325 1006.223h26.52"></path>
			</g>
			<path fill="none" stroke="#573240" stroke-width="5" stroke-linecap="round" stroke-miterlimit="10" d="M4031.044 1049.892c-4.415 11.803-15.796 20.206-29.14 20.206h-56.003"></path>
			<path fill="none" stroke="#573240" stroke-width="4" stroke-linecap="round" stroke-miterlimit="10" d="M4035.006 1023.919c0-7.001 5.676-12.677 12.677-12.677"></path>
			<path fill="#573240" d="m4086.83 1145.68-50.09 101.19h.17l-28.17 56.67 40.46 334.26-46.42 71.31-53.29-70.64 36.02-332.63-86.82-158.8c-7.81-14.29-3.92-32.16 9.13-41.91l30.94-23.1-5.83 29.52a38.974 38.974 0 0 0 1.55 20.72l41.21 114.6h39.53l35.67-116.95a38.79 38.79 0 0 0 1.43-15.88l-3.74-32.01 29.42 23.63c11.97 9.62 15.65 26.27 8.83 40.02z"></path>
			<path fill="#F1B104" d="M4415.424 1653.166c-14.24 55.639-72.296 81.91-120.211 81.91-40.666 0-81.476-21.169-102.025-65.377L4063.6 1422.957h-62.548c-41.584 0-75.29-33.716-75.29-75.301v-73.174c0-15.252 12.361-27.613 27.612-27.613l19.321 35.461a37.882 37.882 0 0 0 2.014 3.284c0 .01.01.01.01.01a37.872 37.872 0 0 0 31.228 16.46h47.719c5.38 0 9.749-4.368 9.749-9.748a9.718 9.718 0 0 0-2.861-6.888 9.716 9.716 0 0 0-6.888-2.86h-8.571c-8.417 0-16.006-3.47-21.448-9.046l13.26-26.673h56.052a77.65 77.65 0 0 1 66.204 37.062l242.58 281.294a113.005 113.005 0 0 1 13.681 87.941z"></path>
			<path fill="none" stroke="#573240" stroke-width="5" stroke-linecap="round" stroke-miterlimit="10" d="M4090.232 1419.871h-36.573M3927.823 1352.821l26.123 31.072a31.467 31.467 0 0 0 23.305 10.324h41.031M3927.823 1320.809l26.123 31.072a31.467 31.467 0 0 0 23.305 10.324h41.031M3927.823 1287.764l26.123 31.072a31.467 31.467 0 0 0 23.305 10.324h41.031"></path>
			<path fill="#F1B104" d="M3927.742 1733.782c-14.262 5.541-30.447.079-38.434-12.972l-5.608-9.105a8.62 8.62 0 0 0-15.615 6.926l32.135 110.557c3.566 10.03-4.253 20.45-14.88 19.829l-90.281-5.276a33.306 33.306 0 0 1-28.329-21.134l-35.513-94.962-206.641-56.822c-64.813-12.804-101.828-81.579-76.816-142.727 23.035-56.316 88.971-81.313 143.552-54.424l286.126 162.036a35.306 35.306 0 0 1 19.433 19.72l30.871 78.354z"></path>
			<path fill="none" stroke="#573240" stroke-width="5" stroke-linecap="round" stroke-miterlimit="10" d="m3772.633 1757.958 23.911 63.691a33.306 33.306 0 0 0 28.329 21.134M3804.446 1759.999l23.911 63.691a33.308 33.308 0 0 0 28.329 21.134M3835.885 1761.079l23.911 63.691a33.308 33.308 0 0 0 28.329 21.134M3736.603 1745.062a64.998 64.998 0 0 1 5.207-57.568"></path>
			<path fill="#F6ACC1" d="m3022.303 2826.2 4.679-18.236a68.846 68.846 0 0 1 52.425-50.241l12.021-2.545c-25.88-38.82 105.88-268.755 102.894-440.958-2.986-172.202-69.677-257.732-69.677-257.732l-257.897-.018 94.533 582.153a320.88 320.88 0 0 1-21.199 227.043l55.027-12.855a36.695 36.695 0 0 0 27.194-26.611z"></path>
			<path fill="#573240" d="m3134.128 2876.27-9.08 2.23-11.639-33.967c-4.46-13.016-17.556-21.011-31.171-19.03l-.568.083c-12.865 1.872-22.924 11.804-24.938 24.529-1.535 9.699-3.326 21.005-4.767 30.095a25.737 25.737 0 0 1-19.293 20.969l-115.748 28.416c-4.664 1.145-8.505-3.734-6.299-7.999l29.453-56.926 55.036-12.858a36.692 36.692 0 0 0 27.193-26.611l4.833-18.834a68.845 68.845 0 0 1 51.557-50.052c23.931-5.39 47.076 11.702 48.964 36.16l6.467 83.795z"></path>
			<path fill="#F6ACC1" d="m2971.303 2838.2 4.679-18.236a68.846 68.846 0 0 1 52.425-50.241l12.021-2.545c-25.88-38.82 35.88-268.755 32.894-440.958-2.986-172.202-79.677-269.732-79.677-269.732l-237.897-.018 154.533 594.153a320.88 320.88 0 0 1-21.199 227.043l55.027-12.855a36.695 36.695 0 0 0 27.194-26.611z"></path>
			<path fill="#FFF" d="m3083.128 2889.27-9.08 2.23-11.639-33.967c-4.46-13.016-17.556-21.011-31.171-19.03l-.568.083c-12.865 1.872-22.924 11.804-24.938 24.529-1.535 9.699-3.326 21.005-4.767 30.095a25.737 25.737 0 0 1-19.293 20.969l-115.748 28.416c-4.664 1.145-8.505-3.734-6.299-7.999l29.453-56.926 55.036-12.858a36.692 36.692 0 0 0 27.193-26.611l4.833-18.834a68.845 68.845 0 0 1 51.557-50.052c23.931-5.39 47.076 11.702 48.964 36.16l6.467 83.795z"></path>
			<path fill="none" stroke="#573240" stroke-width="5" stroke-linecap="round" stroke-miterlimit="10" d="M3076.427 2363.05c16.084-194.101-83.782-308.562-83.782-308.562"></path>
			<g stroke="#573240" stroke-width="5" stroke-linecap="round" stroke-miterlimit="10">
				<path fill="#FFF" d="M3478.122 2088.322h-435.895c-8.796 0-15.926-7.13-15.926-15.926h0c0-8.796 7.13-15.926 15.926-15.926h435.895c8.796 0 15.926 7.13 15.926 15.926h0c0 8.796-7.131 15.926-15.926 15.926z"></path>
				<g fill="none">
					<path d="m3408.967 2088.322 126.414 996.386M3111.381 2088.322l-126.414 996.386M3515.169 2925.43c-4.5-34.198-33.649-59.763-68.142-59.763h-373.29c-34.793 0-64.098 26.001-68.24 60.547"></path>
				</g>
			</g>
			<path fill="#573240" d="M3387.758 2056.47h-632.01l-13.04-65.81c-16.3-82.28 32.75-163.43 113.18-187.25l384.609-113.91-37.819-126.74s-74.66 2.98-91.58-49.77c-15.225-47.474 42.081-224.7 53.716-259.732a8.82 8.82 0 0 1 8.375-6.038h65.459c14.66 0 28.17 7.94 35.3 20.76l48.23 86.68a60.182 60.182 0 0 0 52.58 30.92c16.62 0 31.67-6.73 42.55-17.63 10.9-10.88 17.63-25.93 17.63-42.55v-49.888c0-17.861-13.051-33.042-30.71-35.722l-7.71-1.17 41.2 5.83c28.47 4.03 51.2 25.79 56.479 54.06l95.98 514.25c23.65 126.68-73.56 243.71-202.419 243.71z"></path>
			<path fill="#F6ACC1" d="M3434.94 1275.51v49.89c0 16.62-6.73 31.67-17.63 42.55-10.88 10.9-25.93 17.63-42.55 17.63a60.182 60.182 0 0 1-52.58-30.92l-48.23-86.68a40.387 40.387 0 0 0-35.3-20.76h8.55c13.89 0 25.16-11.27 25.16-25.16v-34.81c-4.99.38-10.36.37-16.11-.14-6.47-.57-11.4-6.05-11.3-12.54.12-7.3.32-17.37.67-27.27h-8.7c-2.64 0-4.41-2.71-3.34-5.13l13.63-30.99h53.29c6.25 0 11.32 5.07 11.32 11.32v11.29c0 1.91 1.7 3.36 3.58 3.07l5.84-.9v-1.55c0-6.41 5.19-11.6 11.6-11.6H3344c11.16 0 20.22 9.05 20.22 20.22v2.54c0 9.84-7.04 18.04-16.35 19.85l16.97 47.38a39.55 39.55 0 0 0 31.68 25.82l7.71 1.17c17.66 2.68 30.71 17.86 30.71 35.72z"></path>
			<path fill="#FF6E00" d="M3428.63 1054.17c0 22.09-17.91 40-40 40-2.64 0-5.22-.26-7.71-.75 4.11 8.71 5.71 18.77 3.9 29.13-2.57 14.72-11.57 26.93-23.81 33.94 2.04-3.15 3.21-6.89 3.21-10.92v-2.54c0-11.17-9.06-20.22-20.22-20.22h-11.16c-6.41 0-11.6 5.19-11.6 11.6v1.55l-5.84.9a3.104 3.104 0 0 1-3.58-3.07v-11.29c0-6.25-5.07-11.32-11.32-11.32h-63.29v-4.9c0-22.57 18.29-40.86 40.86-40.86h58.71c4.93 0 9.67.72 14.12 2.07a39.976 39.976 0 0 1-2.27-13.32c0-22.09 17.91-40 40-40s40 17.91 40 40z"></path>
			<path fill="none" stroke="#573240" stroke-width="4" stroke-linecap="round" stroke-miterlimit="10" d="M3258.908 1114.654c5.759-1.268 11.789-.122 16.457 3.681"></path>
			<ellipse fill="#573240" cx="3264.823" cy="1129.889" rx="3.555" ry="5.558"></ellipse>
			<path fill="none" stroke="#573240" stroke-width="4" stroke-linecap="round" stroke-miterlimit="10" d="M3333.236 1143.41c0-6.407 5.194-11.602 11.602-11.602M3326.118 1163.65s-16.288 22.683-52.235 25.561"></path>
			<path fill="#F6ACC1" d="M3239.16 1685.01H2908.3c-9.13 0-12.54-11.97-4.77-16.78 39.44-24.45 130.22-58.72 299.19-105.35l36.44 122.13z"></path>
			<path fill="#573240" d="M3131.318 1128.67c0 2.131-1.495 4.173-4.244 6.057-9.701 6.678-34.997 11.443-64.67 11.443-29.655 0-54.932-4.755-64.652-11.433-2.756-1.884-4.261-3.936-4.261-6.067 0-9.667 30.853-17.5 68.913-17.5 38.061 0 68.914 7.833 68.914 17.5z"></path>
			<path fill="none" stroke="#573240" stroke-width="5" stroke-linecap="round" stroke-miterlimit="10" d="M3062.409 1235.034v57.686"></path>
			<circle fill="#F1B104" cx="3039.94" cy="1140.03" r="15.699"></circle>
			<path fill="none" stroke="#573240" stroke-width="5" stroke-linecap="round" stroke-linejoin="round" stroke-miterlimit="10" d="m3127.961 1131.81-35.203 82.11c-2.767 6.44-7.095 11.72-12.373 15.39-5.269 3.66-11.479 5.72-17.98 5.72-12.994 0-24.829-8.23-30.354-21.11l-35.185-82.1c9.853 6.77 35.477 11.59 65.539 11.59 30.08 0 55.722-4.83 65.556-11.6z"></path>
			<path fill="none" stroke="#573240" stroke-width="5" stroke-linecap="round" stroke-miterlimit="10" d="M3034.98 1121.808s-7.604-24.742-26.844-28.724M3040.367 1292.72h42.816"></path>
			<path fill="#F6ACC1" d="M3111.738 1175.475h-9.408c-4.754 0-7.559-4.22-6.266-9.426 1.294-5.206 6.197-9.426 10.951-9.426h9.408c4.754 0 7.56 4.22 6.266 9.426-1.295 5.206-6.197 9.426-10.951 9.426zM3107.052 1194.327h-9.408c-4.754 0-7.559-4.22-6.266-9.426 1.294-5.206 6.197-9.426 10.951-9.426h9.408c4.754 0 7.559 4.22 6.266 9.426-1.294 5.206-6.196 9.426-10.951 9.426zM3102.367 1213.179h-9.408c-4.754 0-7.559-4.22-6.266-9.426 1.294-5.206 6.197-9.426 10.951-9.426h9.408c4.754 0 7.559 4.22 6.266 9.426-1.294 5.205-6.196 9.426-10.951 9.426z"></path>
			<path fill="#F6ACC1" d="M3097.683 1232.03h-9.408c-4.754 0-7.559-4.22-6.266-9.426 1.294-5.206 6.196-9.426 10.95-9.426h9.408c4.754 0 7.559 4.22 6.266 9.426-1.294 5.206-6.196 9.426-10.95 9.426z"></path>
			<path fill="none" stroke="#573240" stroke-width="5" stroke-linecap="round" stroke-miterlimit="10" d="M3101.719 1174.624h10.732M3096.933 1195.624h10.3M3091.472 1214.624h10.299"></path>
			<path fill="#F6ACC1" d="M3031.821 1219.298c1.16 6.63 1.109 17.892-.281 24.552l-38.84 186.52 118.91-152.03a81.05 81.05 0 0 1 63.82-31.11h19.71c33.88 0 61.34 27.46 61.34 61.34v22.01c0 20-7.39 39.29-20.76 54.17l-244.19 266.72c-18.89 21.02-45.83 34.03-74.1 34.03-56.55 0-92.67-46.98-92.67-100.37 0-9.03 1.23-18.24 3.84-27.44l104.76-318.4c30.75-79.39 72.72-79.39 72.72-79.39h47.7c1.65 0 2.95 1.42 2.8 3.06l-.41 4.63c-.74 8.3-7.7 14.66-16.04 14.66h-8.18c-6.77.48-11.43 6.46-10.83 12.75l10.701 24.298z"></path>
			<path fill="none" stroke="#573240" stroke-width="5" stroke-linecap="round" stroke-miterlimit="10" d="M3007.11 1225.882a35.379 35.379 0 0 0 17.131-30.311M2991.699 1430.37l-41.852 49.769M3035.221 1605.651l-44.694 48.819c-18.894 21.024-45.83 35.033-74.096 35.033"></path>
			<path fill="#FFF" d="M2020.729 3084.708h-377.832c-30.312 0-54.885-24.573-54.885-54.885V2826.71c0-30.312 24.573-54.885 54.885-54.885h377.832c30.312 0 54.885 24.573 54.885 54.885v203.113c0 30.312-24.573 54.885-54.885 54.885z"></path>
			<path fill="none" stroke="#573240" stroke-width="5" stroke-linecap="round" stroke-miterlimit="10" d="M2075.614 2823.908h0c0 18.842-12.379 35.445-30.437 40.822l-213.364 63.535-213.364-63.535c-18.058-5.377-30.437-21.98-30.437-40.822v0c0-28.796 23.344-52.14 52.14-52.14h383.322c28.796 0 52.14 23.344 52.14 52.14z"></path>
			<path fill="#FFF" stroke="#573240" stroke-width="5" stroke-linecap="round" stroke-miterlimit="10" d="M1825.485 2904.542h13.935v40.479h-13.935z"></path>
			<path fill="none" stroke="#573240" stroke-width="5" stroke-linecap="round" stroke-miterlimit="10" d="M1900.9 2771.768h-159.262v-5.806c0-35.234 28.563-63.797 63.797-63.797h31.668c35.234 0 63.797 28.563 63.797 63.797v5.806z"></path>
			<path fill="#F1B104" d="M1925.688 2771.16v190.119l32.839 24.885 32.193-21.567v-192.766c0-22.177-17.978-40.155-40.155-40.155h-64.361c21.807 0 39.484 17.677 39.484 39.484z"></path>
			<path fill="#573240" d="M1925.688 2771.16c0-21.806-17.677-39.484-39.484-39.484-18.325 0-33.18 14.855-33.18 33.18v6.304h72.664z"></path>
			<g fill="#573240">
				<path d="M1925.717 2950.993a4.983 4.983 0 1 1 0 9.968v-9.968zM1990.72 2950.993a4.983 4.983 0 1 0 0 9.968v-9.968z"></path>
				<circle cx="1948.216" cy="2955.977" r="4.984"></circle>
				<circle cx="1968.222" cy="2955.977" r="4.984"></circle>
				<circle cx="1936.967" cy="2941.977" r="4.984"></circle>
				<circle cx="1958.219" cy="2941.977" r="4.984"></circle>
				<circle cx="1958.219" cy="2972.977" r="4.984"></circle>
				<circle cx="1979.471" cy="2941.977" r="4.984"></circle>
			</g>
			<g fill="#573240">
				<path d="M1925.717 2919.993a4.983 4.983 0 1 1 0 9.968v-9.968zM1990.72 2919.993a4.983 4.983 0 1 0 0 9.968v-9.968z"></path>
				<circle cx="1948.216" cy="2924.977" r="4.984"></circle>
				<circle cx="1968.222" cy="2924.977" r="4.984"></circle>
				<circle cx="1936.967" cy="2910.977" r="4.984"></circle>
				<circle cx="1958.219" cy="2910.977" r="4.984"></circle>
				<circle cx="1979.471" cy="2910.977" r="4.984"></circle>
			</g>
			<g fill="#573240">
				<path d="M1925.717 2888.993a4.983 4.983 0 1 1 0 9.968v-9.968zM1990.72 2888.993a4.983 4.983 0 1 0 0 9.968v-9.968z"></path>
				<circle cx="1948.216" cy="2893.977" r="4.984"></circle>
				<circle cx="1968.222" cy="2893.977" r="4.984"></circle>
				<circle cx="1936.967" cy="2879.977" r="4.984"></circle>
				<circle cx="1958.219" cy="2879.977" r="4.984"></circle>
				<circle cx="1979.471" cy="2879.977" r="4.984"></circle>
			</g>
			<g fill="#573240">
				<path d="M1925.717 2857.993a4.983 4.983 0 1 1 0 9.968v-9.968zM1990.72 2857.993a4.983 4.983 0 1 0 0 9.968v-9.968z"></path>
				<circle cx="1948.216" cy="2862.977" r="4.984"></circle>
				<circle cx="1968.222" cy="2862.977" r="4.984"></circle>
				<circle cx="1936.967" cy="2848.977" r="4.984"></circle>
				<circle cx="1958.219" cy="2848.977" r="4.984"></circle>
				<circle cx="1979.471" cy="2848.977" r="4.984"></circle>
			</g>
			<g fill="#573240">
				<path d="M1925.717 2826.993a4.983 4.983 0 1 1 0 9.968v-9.968zM1990.72 2826.993a4.983 4.983 0 1 0 0 9.968v-9.968z"></path>
				<circle cx="1948.216" cy="2831.977" r="4.984"></circle>
				<circle cx="1968.222" cy="2831.977" r="4.984"></circle>
				<circle cx="1936.967" cy="2817.977" r="4.984"></circle>
				<circle cx="1958.219" cy="2817.977" r="4.984"></circle>
				<circle cx="1979.471" cy="2817.977" r="4.984"></circle>
			</g>
			<g fill="#573240">
				<path d="M1925.717 2795.993a4.983 4.983 0 1 1 0 9.968v-9.968zM1990.72 2795.993a4.983 4.983 0 1 0 0 9.968v-9.968z"></path>
				<circle cx="1948.216" cy="2800.977" r="4.984"></circle>
				<circle cx="1968.222" cy="2800.977" r="4.984"></circle>
				<circle cx="1936.967" cy="2786.977" r="4.984"></circle>
				<circle cx="1958.219" cy="2786.977" r="4.984"></circle>
				<circle cx="1979.471" cy="2786.977" r="4.984"></circle>
			</g>
			<g fill="#573240">
				<path d="M1924.717 2763.993c3.492 0 5.984 2.231 5.984 4.984s-2.231 4.984-4.984 4.984l-1-9.968zM1990.718 2771.83v2.13a4.98 4.98 0 0 1-4.98-4.98c0-2.5 1.83-4.56 4.22-4.92.499 2.51.76 5.11.76 7.77z"></path>
				<circle cx="1948.216" cy="2768.977" r="4.984"></circle>
				<circle cx="1968.222" cy="2768.977" r="4.984"></circle>
				<circle cx="1936.967" cy="2754.977" r="4.984"></circle>
				<circle cx="1958.219" cy="2754.977" r="4.984"></circle>
				<circle cx="1979.471" cy="2754.977" r="4.984"></circle>
			</g>
			<g fill="#573240">
				<circle cx="1923.967" cy="2740.977" r="4.984"></circle>
				<circle cx="1945.219" cy="2740.977" r="4.984"></circle>
				<circle cx="1966.471" cy="2740.977" r="4.984"></circle>
			</g>
			<path fill="#FFF" d="M1801.84 2982.3c-107.38 36.68-181.44 7.22-181.44 7.22l-6.32-13.07 183.6-1.51 4.16 7.36z"></path>
			<path fill="#FF6E00" d="M1620.401 2989.52s-34.171 11.249-34.036 95.188l304.085-2.062-.167-3.51c-.557-11.669-6.909-22.318-16.97-28.254-22.451-13.246-46.551-35.247-71.467-68.582-.002-.001-92.212 37.504-181.445 7.22z"></path>
			<path fill="none" stroke="#573240" stroke-width="6" stroke-linecap="round" stroke-miterlimit="10" d="m1586.364 3082.708 304.085-2.063M1785.448 3011.002l40.001-11.357M1797.448 3027.002l40.001-11.357"></path>
			<path fill="#FFF" d="M1209.565 2715.197v19.428s63.705 52.424 177.179 51.76l7.59-17.816-184.769-53.372z"></path>
			<path fill="#FF6E00" d="M1209.565 2734.625s-39.152 9.29-65.696 88.921l288.981 94.667.956-3.381c3.18-11.241.541-23.356-7.113-32.182-17.079-19.693-45.082-58.471-39.949-96.265 0 0-102.193 5.309-177.179-51.76z"></path>
			<path fill="none" stroke="#573240" stroke-width="6" stroke-linecap="round" stroke-miterlimit="10" d="m1143.869 2823.547 288.981 94.666M1369.635 2834.367l36.215 1.846M1359.635 2813.367l36.215 1.846"></path>
			<path fill="#573240" d="M901.06 2043.71c15.36 8.15 32.87 12.76 51.46 12.76h335.47l509.3 918.39-231.05 1c-46.83-43.49-113.82-130.74-170.72-210.15l-494.46-722z"></path>
			<path fill="#573240" d="M952.519 2056.47h391.628c13.474 0 21.321 15.258 13.444 26.189-49.742 69.026-175.573 294.564-148.026 632.537l184.769 53.373 294.003-704.855c47.682-115.583-18.658-246.507-140.061-276.414l-313.495-77.227H842.46v236.336c0 60.786 49.275 110.061 110.059 110.061z"></path>
			<path fill="none" stroke="#FFF" stroke-width="5" stroke-linecap="round" stroke-miterlimit="10" d="m1383.334 2788.57 136.951-315.068M1354.591 2082.66c-39.609 54.964-126.095 196.262-144.967 422.189"></path>
			<path fill="#F1B104" d="m1196.293 1124.122 167.366 48.634c62.401 18.133 105.324 75.304 105.324 140.286v143.453c0 15.498 11.666 28.511 27.072 30.197l247.038 27.037v175.774h-362.457c-66.627 0-120.639-54.012-120.639-120.639l10-142.807v290.027l61.982 17.935s-93.88 354.304-574.985 322.452l41.235-366.967h-34.834c-73.081 0-127.417-67.599-111.705-138.971l59.012-268.058c11.646-52.901 51.607-95.015 103.824-109.42l177.381-48.932h204.386z"></path>
			<g opacity="0.29">
				<path fill="#FFF" d="M1743.097 1513.73v175.77h-2v-175.99zM650.968 1554.05v42.43c-1.83-9.58-2.44-19.54-1.67-29.67.09-1.33.22-2.66.36-4 .319-2.91.759-5.83 1.31-8.76zM696.557 1346.7v321.29c-1.36-.99-2.69-2-4-3.03v-300.09l4-18.17zM742.147 1219.17v468.37c-1.34-.24-2.68-.52-4-.82v-462.63c1.29-1.67 2.63-3.31 4-4.92z"></path>
				<g fill="#FFF">
					<path d="M787.737 1183.37v506.13h-4v-504.04c1.32-.72 2.65-1.42 4-2.09zM787.737 1782.87v273.6h-4v-238l2.66-23.72.45-4z"></path>
				</g>
				<path fill="#FFF" d="M833.327 1167.86v888.61h-4v-887.5zM878.907 1155.29v901.18h-4v-900.08zM924.497 1142.71v908.4c-1.33.19-2.66.38-4 .56v-907.85l4-1.11zM970.087 1130.14v912.77c-1.33.29-2.66.57-4 .85v-912.52l4-1.1zM1015.677 1124.33v906.76c-1.33.4-2.66.8-4 1.19v-907.95h4zM1061.267 1124.33v890.73c-1.32.54-2.66 1.07-4 1.59v-892.32h4zM1106.857 1124.33v869.75c-1.32.69-2.66 1.38-4 2.07v-871.82h4zM1152.447 1124.33v842.71c-1.32.89-2.66 1.78-4 2.65v-845.36h4zM1198.027 1124.33v807.99c-1.32 1.14-2.65 2.27-4 3.41v-811.4h4zM1243.617 1137.87v749.22c-1.31 1.5-2.64 3-4 4.5v-754.88l4 1.16z"></path>
				<g fill="#FFF">
					<path d="M1289.207 1151.12v496.45c-1.38-1.6-2.72-3.24-4-4.91v-492.7l4 1.16zM1289.207 1721.64v104.05c-1.3 2.08-2.63 4.19-4 6.31v-111.52l4 1.16z"></path>
				</g>
				<g fill="#FFF">
					<path d="M1331.977 1734.02s-.37 1.39-1.18 4v-4.34l1.18.34zM1334.797 1164.37v516.11c-1.35-.55-2.68-1.12-4-1.73v-515.54l4 1.16z"></path>
				</g>
				<path fill="#FFF" d="M1380.387 1178.74v510.76c-1.34 0-2.67-.03-4-.08v-512.31c1.34.52 2.68 1.07 4 1.63zM1471.557 1468.74v220.76h-4v-396.87l.09.65c.89 6.48 1.34 13.08 1.34 19.76v143.46c0 4.34.92 8.48 2.57 12.24zM1562.737 1493.99v195.51h-4v-195.95zM1653.917 1503.97v185.53h-4v-185.97zM1517.147 1489v200.5h-4v-200.94zM1425.977 1209.53v479.97h-4v-483.81c1.36 1.25 2.69 2.53 4 3.84zM1608.327 1498.98v190.52h-4v-190.96zM1699.508 1508.96v180.54h-4v-180.98zM1051.987 2018.7c-3.57 1.36-7.19 2.69-10.85 4h-280.35l.45-4h290.75zM1143.167 1973.11c-2.11 1.34-4.24 2.68-6.4 4h-370.85l.45-4h376.8zM1203.487 1927.52c-1.5 1.34-3.01 2.67-4.54 4h-427.91l.45-4h432zM1248.077 1881.93a244.74 244.74 0 0 1-3.44 4h-468.48l.45-4h471.47zM1282.377 1836.34c-.87 1.32-1.76 2.66-2.67 4h-498.43l.45-4h500.65zM1308.847 1790.75c-.66 1.32-1.34 2.65-2.04 4h-520.41l.45-4h522zM1328.437 1745.17c-.44 1.24-.91 2.58-1.43 4h-535.48l.45-4h536.46zM1269.997 1699.58v4h-473.35l.45-4z"></path>
				<g fill="#FFF">
					<path d="M1269.997 1653.99v4h-585.44c-1.37-1.29-2.7-2.63-4-4h589.44zM1743.097 1653.99v4h-443.76c-1.43-1.3-2.82-2.63-4.19-4h447.95z"></path>
				</g>
				<path fill="#FFF" d="M1743.097 1608.4v4H655.218c-.47-1.32-.9-2.66-1.31-4h1089.189zM1743.097 1562.81v4h-1093.8c.09-1.33.22-2.66.36-4h1093.44zM1743.097 1517.22v4H658.137l.88-4zM1475.777 1475.63h-807.6l.88-4h803.98a29.57 29.57 0 0 0 2.74 4zM1468.987 1426.05v4h-790.78l.88-4zM1468.987 1334.87v4h-770.71l.88-4zM1453.557 1247.69h-730.42c.68-1.35 1.39-2.68 2.12-4h726.22c.72 1.32 1.41 2.65 2.08 4zM1307.747 1156.51h-433.26l.42-.12 4-1.1 10.08-2.78h404.99zM1467.647 1293.28h-759.33l.88-4h758.36v3.35l.09.65zM1468.987 1380.46v4h-780.74l.88-4zM1417.957 1202.1h-658.64c1.63-1.37 3.29-2.71 4.98-4h648.77c1.66 1.3 3.29 2.64 4.89 4z"></path>
			</g>
			<path fill="#F1B104" stroke="#573240" stroke-width="5" stroke-linecap="round" stroke-miterlimit="10" d="M1196.293 1124.122H991.906l17.007-26.043a14.285 14.285 0 0 1 11.959-6.474h146.959a16.103 16.103 0 0 1 13.849 7.887l14.613 24.63z"></path>
			<g fill="none" stroke="#573240" stroke-width="5" stroke-linecap="round" stroke-miterlimit="10">
				<path d="m798.229 1689.503 22.797-287.571M896.537 2057.531l15.291-198.272M1269.998 1476.056v109.826c0 57.228 46.393 103.621 103.621 103.621h389.393"></path>
				<circle cx="1694.434" cy="1659.961" r="12.391"></circle>
				<circle cx="1653.434" cy="1659.961" r="12.391"></circle>
				<path d="M1270.997 1564.35c33.17-10.34 74.08 9.09 96.49 47.91 14.82 25.66 18.25 54.08 11.51 77.21M652.997 1561.35c33.17-10.34 74.08 9.09 96.49 47.91 14.82 25.66 18.25 54.08 11.51 77.21"></path>
			</g>
			<g stroke-width="5" stroke-linecap="round" stroke-miterlimit="10">
				<g fill="none" stroke="#F1B104">
					<path d="m1220.34 2088.322 126.414 996.386M922.754 2088.322 796.34 3084.708M1326.542 2925.43c-4.5-34.198-33.649-59.763-68.142-59.763H885.11c-34.793 0-64.098 26.001-68.24 60.547"></path>
				</g>
				<path fill="#FFF" stroke="#573240" d="M1289.494 2088.322H853.599c-8.796 0-15.926-7.13-15.926-15.926h0c0-8.796 7.13-15.926 15.926-15.926h435.895c8.796 0 15.926 7.13 15.926 15.926h0c0 8.796-7.13 15.926-15.926 15.926z"></path>
			</g>
			<path fill="#FF6E00" d="m1959.7 1451.97-31.5 237.53h-87.04l-31.5-237.53c5.58 20.72 37.05 36.59 75.02 36.59s69.44-15.87 75.02-36.59z"></path>
			<path fill="#573240" d="m1960.57 1445.39-.87 6.57v.01c-5.58 20.72-37.05 36.59-75.02 36.59s-69.44-15.87-75.02-36.59v-.01l-.87-6.57c0-23.85 33.98-43.18 75.89-43.18 41.91 0 75.89 19.33 75.89 43.18z"></path>
			<path fill="#573240" d="m1808.79 1445.39.87 6.57c-.57-2.14-.87-4.34-.87-6.57zM1960.57 1445.39c0 2.23-.3 4.43-.87 6.57l.87-6.57z"></path>
			<g stroke="#573240" stroke-width="5" stroke-linecap="round" stroke-miterlimit="10">
				<path fill="#FFF" d="M1796.181 1522.941h97.207v5.766a23.128 23.128 0 0 1-14.18 21.328l-24.57 10.31v0c1.038 8.789 8.488 15.411 17.338 15.411h28.506a34.794 34.794 0 0 0 29.705-16.676l22.045-36.14h0c9.383 0 16.989 7.606 16.989 16.989v78.951c0 39.003-31.618 70.621-70.621 70.621h-102.418v-166.56z"></path>
				<path fill="none" d="M1969.221 1590.881c0 39.003-31.618 70.621-70.621 70.621h-21.418"></path>
				<path fill="none" d="M1969.221 1564.881c0 39.003-31.618 70.621-70.621 70.621h-21.418"></path>
				<path fill="none" d="M1968.221 1536.881c0 39.003-30.618 70.621-69.621 70.621h-22.418"></path>
				<path fill="#FFF" d="M1743.094 1522.941h53.087v166.562h-53.087z"></path>
			</g>
			<path fill="#FFF" stroke="#573240" stroke-width="5" stroke-linecap="round" stroke-miterlimit="10" d="m1034.713 1091.605 27.207-56.059h107.456l-.373 56.059z"></path>
			<path fill="#573240" d="m1180.389 1035.97 6.818 25.509c2.094 7.836-3.811 15.527-11.922 15.527h-41.467c-16.837 0-30.486-13.649-30.486-30.487v-28.043c0-11.142-9.032-20.174-20.174-20.174h-3.544l-2.563-21.779a33.867 33.867 0 0 1 11.014-29.164 33.86 33.86 0 0 1 32.481-7.198c27.338 8.323 77.218 23.539 91.611 28.138 12.865 4.111-2.632 28.262-22.423 33.42l-9.345 34.251z"></path>
			<g stroke="#573240" stroke-width="5" stroke-linecap="round" stroke-miterlimit="10">
				<path fill="#FFF" d="M1105.544 1013.593v30.383h-29.785c-14.426 0-26.121-11.695-26.121-26.121v0c0-14.426 11.695-26.121 26.121-26.121h7.927c12.072.001 21.858 9.787 21.858 21.859z"></path>
				<path fill="none" d="M1077.01 1005.735c8.027 0 14.534 6.507 14.534 14.535"></path>
			</g>
			<path fill="#FFF" stroke="#573240" stroke-width="5" stroke-linecap="round" stroke-miterlimit="10" d="m1188.858 988.524 2.865 43.217a3.966 3.966 0 0 1-3.958 4.229h-37.777c-14.65 0-26.997-10.933-28.771-25.475l-2.928-24.008c-1.676-13.741 9.048-25.852 22.891-25.852h0c3.419 0 6.796.76 9.885 2.226l30.034 14.25a13.63 13.63 0 0 1 7.759 11.413z"></path>
			<path fill="#573240" d="m1166.981 992.159-14.357.959a4.749 4.749 0 1 1-.633-9.477l14.357-.959a4.749 4.749 0 1 1 .633 9.477z"></path>
			<ellipse fill="#573240" cx="1161.131" cy="1003.802" rx="3.473" ry="5.538"></ellipse>
		</g>
	</switch>
</svg>