<svg xmlns="http://www.w3.org/2000/svg" width="5000" height="3500" xml:space="preserve">
	<switch>
		<g>
			<path fill="transparent" d="M0 0h5000v3500H0z"></path>
			<path fill="#CBE8E6" d="M4100.859 961.423v1271.78l-1842.13 1.15V961.423z"></path>
			<g fill="#A9D8D5">
				<path d="M4100.859 961.423v615.78l-696.26-615.78zM3167.219 961.423l-908.49 1124.12V961.423z"></path>
			</g>
			<path fill="none" stroke="#573240" stroke-width="4" stroke-linecap="round" stroke-linejoin="round" stroke-miterlimit="10" d="m4126.002 2265.526-1892.418 1.189V935.961h1892.418z"></path>
			<path fill="#A9D8D5" d="M2922.089 1866.463v27.48l117.14 31.59c25.94 7 47.17 25.65 57.43 50.48l91.57 221.47c4.9 11.86 7.17 23.94 7.18 35.72h-646.03c-6.33-22.33-5.73-47.19 4.22-71.81l79.08-195.66a82.456 82.456 0 0 1 62.58-50.38l123.26-25.95 33.32-51.03h1.11a12.68 12.68 0 0 1-9.13-12.18v-2.84c0-7 5.68-12.68 12.69-12.68h3.71c.44 0 .87.02 1.29.06v-17.73c0-8.505 6.895-15.4 15.4-15.4h23.76c.62-11.65 10.69-20.9 23.02-20.9 12.73 0 23.05 9.86 23.05 22.03 0 8.62-5.17 16.08-12.71 19.69l8.757 37.083a3.182 3.182 0 0 1-3.077 3.997h-5.588l2.828 18.598c.529 4.23-2.697 7.998-6.958 8.125l-7.902.237z"></path>
			<g fill="#A9D8D5">
				<path d="m3784.796 2233.927-5.822-1.447 18.849-75.816c6.228-25.048.682-51.075-15.215-71.408s-39.817-31.995-65.628-31.995v-6c27.669 0 53.312 12.502 70.354 34.3s22.986 49.699 16.311 76.551l-18.849 75.815z"></path>
				<path d="M3714.069 2233.203h-334.59l6.39-47.56 135.18-23.88c-6.87-3.76-23.93-15.14-33.67-39.38-4.33-10.78-2.99-23.02 3.43-32.71l89.41-135.06 1.96-58.15-9.4 2.2c-10.39 2-19.247-6.409-19.02-16.99.58-26.985 13.986-79.56 54.51-79.56 50.18 0 50.908 59.667 28.09 74.26 0 0 12.78 55.87 59.19 83.26 59.04 34.84 91.3 89.29 18.52 273.57z"></path>
				<circle cx="3665.16" cy="1780.771" r="33.766"></circle>
			</g>
			<g fill="none" stroke="#FFF" stroke-width="4" stroke-linecap="round" stroke-miterlimit="10">
				<path d="M2382.713 1212.689H2261.59c-6.009 0-10.88-4.871-10.88-10.88v-235.04c0-6.009 4.871-10.88 10.88-10.88h121.123c6.009 0 10.88 4.871 10.88 10.88v235.04c.001 6.009-4.871 10.88-10.88 10.88z"></path>
				<path d="M2382.713 1469.489H2261.59c-6.009 0-10.88-4.871-10.88-10.88v-235.04c0-6.009 4.871-10.88 10.88-10.88h121.123c6.009 0 10.88 4.871 10.88 10.88v235.04c.001 6.008-4.871 10.88-10.88 10.88z"></path>
				<path d="M2382.713 1726.289H2261.59c-6.009 0-10.88-4.871-10.88-10.88v-235.04c0-6.009 4.871-10.88 10.88-10.88h121.123c6.009 0 10.88 4.871 10.88 10.88v235.04c.001 6.009-4.871 10.88-10.88 10.88z"></path>
				<path d="M2382.713 1983.089H2261.59c-6.009 0-10.88-4.871-10.88-10.88v-235.04c0-6.009 4.871-10.88 10.88-10.88h121.123c6.009 0 10.88 4.871 10.88 10.88v235.04c.001 6.008-4.871 10.88-10.88 10.88zM2382.713 2239.889H2261.59c-6.009 0-10.88-4.871-10.88-10.88v-235.04c0-6.009 4.871-10.88 10.88-10.88h121.123c6.009 0 10.88 4.871 10.88 10.88v235.04c.001 6.009-4.871 10.88-10.88 10.88zM2525.839 1212.689h-121.123c-6.009 0-10.88-4.871-10.88-10.88v-235.04c0-6.009 4.871-10.88 10.88-10.88h121.123c6.009 0 10.88 4.871 10.88 10.88v235.04c0 6.009-4.871 10.88-10.88 10.88z"></path>
				<path d="M2525.839 1469.489h-121.123c-6.009 0-10.88-4.871-10.88-10.88v-235.04c0-6.009 4.871-10.88 10.88-10.88h121.123c6.009 0 10.88 4.871 10.88 10.88v235.04c0 6.008-4.871 10.88-10.88 10.88z"></path>
				<path d="M2525.839 1726.289h-121.123c-6.009 0-10.88-4.871-10.88-10.88v-235.04c0-6.009 4.871-10.88 10.88-10.88h121.123c6.009 0 10.88 4.871 10.88 10.88v235.04c0 6.009-4.871 10.88-10.88 10.88z"></path>
				<path d="M2525.839 1983.089h-121.123c-6.009 0-10.88-4.871-10.88-10.88v-235.04c0-6.009 4.871-10.88 10.88-10.88h121.123c6.009 0 10.88 4.871 10.88 10.88v235.04c0 6.008-4.871 10.88-10.88 10.88zM2525.839 2239.889h-121.123c-6.009 0-10.88-4.871-10.88-10.88v-235.04c0-6.009 4.871-10.88 10.88-10.88h121.123c6.009 0 10.88 4.871 10.88 10.88v235.04c0 6.009-4.871 10.88-10.88 10.88zM2668.965 1212.689h-121.123c-6.009 0-10.88-4.871-10.88-10.88v-235.04c0-6.009 4.871-10.88 10.88-10.88h121.123c6.009 0 10.88 4.871 10.88 10.88v235.04c0 6.009-4.871 10.88-10.88 10.88z"></path>
				<path d="M2668.965 1469.489h-121.123c-6.009 0-10.88-4.871-10.88-10.88v-235.04c0-6.009 4.871-10.88 10.88-10.88h121.123c6.009 0 10.88 4.871 10.88 10.88v235.04c0 6.008-4.871 10.88-10.88 10.88z"></path>
				<path d="M2668.965 1726.289h-121.123c-6.009 0-10.88-4.871-10.88-10.88v-235.04c0-6.009 4.871-10.88 10.88-10.88h121.123c6.009 0 10.88 4.871 10.88 10.88v235.04c0 6.009-4.871 10.88-10.88 10.88z"></path>
				<path d="M2668.965 1983.089h-121.123c-6.009 0-10.88-4.871-10.88-10.88v-235.04c0-6.009 4.871-10.88 10.88-10.88h121.123c6.009 0 10.88 4.871 10.88 10.88v235.04c0 6.008-4.871 10.88-10.88 10.88zM2668.965 2239.889h-121.123c-6.009 0-10.88-4.871-10.88-10.88v-235.04c0-6.009 4.871-10.88 10.88-10.88h121.123c6.009 0 10.88 4.871 10.88 10.88v235.04c0 6.009-4.871 10.88-10.88 10.88zM2812.091 1212.689h-121.123c-6.009 0-10.88-4.871-10.88-10.88v-235.04c0-6.009 4.871-10.88 10.88-10.88h121.123c6.009 0 10.88 4.871 10.88 10.88v235.04c0 6.009-4.871 10.88-10.88 10.88z"></path>
				<path d="M2812.091 1469.489h-121.123c-6.009 0-10.88-4.871-10.88-10.88v-235.04c0-6.009 4.871-10.88 10.88-10.88h121.123c6.009 0 10.88 4.871 10.88 10.88v235.04c0 6.008-4.871 10.88-10.88 10.88z"></path>
				<path d="M2812.091 1726.289h-121.123c-6.009 0-10.88-4.871-10.88-10.88v-235.04c0-6.009 4.871-10.88 10.88-10.88h121.123c6.009 0 10.88 4.871 10.88 10.88v235.04c0 6.009-4.871 10.88-10.88 10.88z"></path>
				<path d="M2812.091 1983.089h-121.123c-6.009 0-10.88-4.871-10.88-10.88v-235.04c0-6.009 4.871-10.88 10.88-10.88h121.123c6.009 0 10.88 4.871 10.88 10.88v235.04c0 6.008-4.871 10.88-10.88 10.88zM2812.091 2239.889h-121.123c-6.009 0-10.88-4.871-10.88-10.88v-235.04c0-6.009 4.871-10.88 10.88-10.88h121.123c6.009 0 10.88 4.871 10.88 10.88v235.04c0 6.009-4.871 10.88-10.88 10.88zM2955.217 1212.689h-121.123c-6.009 0-10.88-4.871-10.88-10.88v-235.04c0-6.009 4.871-10.88 10.88-10.88h121.123c6.009 0 10.88 4.871 10.88 10.88v235.04c0 6.009-4.871 10.88-10.88 10.88z"></path>
				<path d="M2955.217 1469.489h-121.123c-6.009 0-10.88-4.871-10.88-10.88v-235.04c0-6.009 4.871-10.88 10.88-10.88h121.123c6.009 0 10.88 4.871 10.88 10.88v235.04c0 6.008-4.871 10.88-10.88 10.88z"></path>
				<path d="M2955.217 1726.289h-121.123c-6.009 0-10.88-4.871-10.88-10.88v-235.04c0-6.009 4.871-10.88 10.88-10.88h121.123c6.009 0 10.88 4.871 10.88 10.88v235.04c0 6.009-4.871 10.88-10.88 10.88z"></path>
				<path d="M2955.217 1983.089h-121.123c-6.009 0-10.88-4.871-10.88-10.88v-235.04c0-6.009 4.871-10.88 10.88-10.88h121.123c6.009 0 10.88 4.871 10.88 10.88v235.04c0 6.008-4.871 10.88-10.88 10.88zM2955.217 2239.889h-121.123c-6.009 0-10.88-4.871-10.88-10.88v-235.04c0-6.009 4.871-10.88 10.88-10.88h121.123c6.009 0 10.88 4.871 10.88 10.88v235.04c0 6.009-4.871 10.88-10.88 10.88zM3098.343 1212.689H2977.22c-6.009 0-10.88-4.871-10.88-10.88v-235.04c0-6.009 4.871-10.88 10.88-10.88h121.123c6.009 0 10.88 4.871 10.88 10.88v235.04c0 6.009-4.871 10.88-10.88 10.88z"></path>
				<path d="M3098.343 1469.489H2977.22c-6.009 0-10.88-4.871-10.88-10.88v-235.04c0-6.009 4.871-10.88 10.88-10.88h121.123c6.009 0 10.88 4.871 10.88 10.88v235.04c0 6.008-4.871 10.88-10.88 10.88z"></path>
				<path d="M3098.343 1726.289H2977.22c-6.009 0-10.88-4.871-10.88-10.88v-235.04c0-6.009 4.871-10.88 10.88-10.88h121.123c6.009 0 10.88 4.871 10.88 10.88v235.04c0 6.009-4.871 10.88-10.88 10.88z"></path>
				<path d="M3098.343 1983.089H2977.22c-6.009 0-10.88-4.871-10.88-10.88v-235.04c0-6.009 4.871-10.88 10.88-10.88h121.123c6.009 0 10.88 4.871 10.88 10.88v235.04c0 6.008-4.871 10.88-10.88 10.88zM3098.343 2239.889H2977.22c-6.009 0-10.88-4.871-10.88-10.88v-235.04c0-6.009 4.871-10.88 10.88-10.88h121.123c6.009 0 10.88 4.871 10.88 10.88v235.04c0 6.009-4.871 10.88-10.88 10.88zM3241.469 1212.689h-121.123c-6.009 0-10.88-4.871-10.88-10.88v-235.04c0-6.009 4.871-10.88 10.88-10.88h121.123c6.009 0 10.88 4.871 10.88 10.88v235.04c0 6.009-4.871 10.88-10.88 10.88z"></path>
				<path d="M3241.469 1469.489h-121.123c-6.009 0-10.88-4.871-10.88-10.88v-235.04c0-6.009 4.871-10.88 10.88-10.88h121.123c6.009 0 10.88 4.871 10.88 10.88v235.04c0 6.008-4.871 10.88-10.88 10.88z"></path>
				<path d="M3241.469 1726.289h-121.123c-6.009 0-10.88-4.871-10.88-10.88v-235.04c0-6.009 4.871-10.88 10.88-10.88h121.123c6.009 0 10.88 4.871 10.88 10.88v235.04c0 6.009-4.871 10.88-10.88 10.88z"></path>
				<path d="M3241.469 1983.089h-121.123c-6.009 0-10.88-4.871-10.88-10.88v-235.04c0-6.009 4.871-10.88 10.88-10.88h121.123c6.009 0 10.88 4.871 10.88 10.88v235.04c0 6.008-4.871 10.88-10.88 10.88zM3241.469 2239.889h-121.123c-6.009 0-10.88-4.871-10.88-10.88v-235.04c0-6.009 4.871-10.88 10.88-10.88h121.123c6.009 0 10.88 4.871 10.88 10.88v235.04c0 6.009-4.871 10.88-10.88 10.88zM3384.594 1212.689h-121.123c-6.009 0-10.88-4.871-10.88-10.88v-235.04c0-6.009 4.871-10.88 10.88-10.88h121.123c6.009 0 10.88 4.871 10.88 10.88v235.04c.001 6.009-4.87 10.88-10.88 10.88z"></path>
				<path d="M3384.594 1469.489h-121.123c-6.009 0-10.88-4.871-10.88-10.88v-235.04c0-6.009 4.871-10.88 10.88-10.88h121.123c6.009 0 10.88 4.871 10.88 10.88v235.04c.001 6.008-4.87 10.88-10.88 10.88z"></path>
				<path d="M3384.594 1726.289h-121.123c-6.009 0-10.88-4.871-10.88-10.88v-235.04c0-6.009 4.871-10.88 10.88-10.88h121.123c6.009 0 10.88 4.871 10.88 10.88v235.04c.001 6.009-4.87 10.88-10.88 10.88z"></path>
				<path d="M3384.594 1983.089h-121.123c-6.009 0-10.88-4.871-10.88-10.88v-235.04c0-6.009 4.871-10.88 10.88-10.88h121.123c6.009 0 10.88 4.871 10.88 10.88v235.04c.001 6.008-4.87 10.88-10.88 10.88zM3384.594 2239.889h-121.123c-6.009 0-10.88-4.871-10.88-10.88v-235.04c0-6.009 4.871-10.88 10.88-10.88h121.123c6.009 0 10.88 4.871 10.88 10.88v235.04c.001 6.009-4.87 10.88-10.88 10.88zM3527.72 1212.689h-121.123c-6.009 0-10.88-4.871-10.88-10.88v-235.04c0-6.009 4.871-10.88 10.88-10.88h121.123c6.009 0 10.88 4.871 10.88 10.88v235.04c.001 6.009-4.871 10.88-10.88 10.88z"></path>
				<path d="M3527.72 1469.489h-121.123c-6.009 0-10.88-4.871-10.88-10.88v-235.04c0-6.009 4.871-10.88 10.88-10.88h121.123c6.009 0 10.88 4.871 10.88 10.88v235.04c.001 6.008-4.871 10.88-10.88 10.88z"></path>
				<path d="M3527.72 1726.289h-121.123c-6.009 0-10.88-4.871-10.88-10.88v-235.04c0-6.009 4.871-10.88 10.88-10.88h121.123c6.009 0 10.88 4.871 10.88 10.88v235.04c.001 6.009-4.871 10.88-10.88 10.88z"></path>
				<path d="M3527.72 1983.089h-121.123c-6.009 0-10.88-4.871-10.88-10.88v-235.04c0-6.009 4.871-10.88 10.88-10.88h121.123c6.009 0 10.88 4.871 10.88 10.88v235.04c.001 6.008-4.871 10.88-10.88 10.88zM3527.72 2239.889h-121.123c-6.009 0-10.88-4.871-10.88-10.88v-235.04c0-6.009 4.871-10.88 10.88-10.88h121.123c6.009 0 10.88 4.871 10.88 10.88v235.04c.001 6.009-4.871 10.88-10.88 10.88zM3670.846 1212.689h-121.123c-6.009 0-10.88-4.871-10.88-10.88v-235.04c0-6.009 4.871-10.88 10.88-10.88h121.123c6.009 0 10.88 4.871 10.88 10.88v235.04c.001 6.009-4.871 10.88-10.88 10.88z"></path>
				<path d="M3670.846 1469.489h-121.123c-6.009 0-10.88-4.871-10.88-10.88v-235.04c0-6.009 4.871-10.88 10.88-10.88h121.123c6.009 0 10.88 4.871 10.88 10.88v235.04c.001 6.008-4.871 10.88-10.88 10.88z"></path>
				<path d="M3670.846 1726.289h-121.123c-6.009 0-10.88-4.871-10.88-10.88v-235.04c0-6.009 4.871-10.88 10.88-10.88h121.123c6.009 0 10.88 4.871 10.88 10.88v235.04c.001 6.009-4.871 10.88-10.88 10.88z"></path>
				<path d="M3670.846 1983.089h-121.123c-6.009 0-10.88-4.871-10.88-10.88v-235.04c0-6.009 4.871-10.88 10.88-10.88h121.123c6.009 0 10.88 4.871 10.88 10.88v235.04c.001 6.008-4.871 10.88-10.88 10.88zM3670.846 2239.889h-121.123c-6.009 0-10.88-4.871-10.88-10.88v-235.04c0-6.009 4.871-10.88 10.88-10.88h121.123c6.009 0 10.88 4.871 10.88 10.88v235.04c.001 6.009-4.871 10.88-10.88 10.88zM3813.972 1212.689h-121.123c-6.009 0-10.88-4.871-10.88-10.88v-235.04c0-6.009 4.871-10.88 10.88-10.88h121.123c6.009 0 10.88 4.871 10.88 10.88v235.04c0 6.009-4.871 10.88-10.88 10.88z"></path>
				<path d="M3813.972 1469.489h-121.123c-6.009 0-10.88-4.871-10.88-10.88v-235.04c0-6.009 4.871-10.88 10.88-10.88h121.123c6.009 0 10.88 4.871 10.88 10.88v235.04c0 6.008-4.871 10.88-10.88 10.88z"></path>
				<path d="M3813.972 1726.289h-121.123c-6.009 0-10.88-4.871-10.88-10.88v-235.04c0-6.009 4.871-10.88 10.88-10.88h121.123c6.009 0 10.88 4.871 10.88 10.88v235.04c0 6.009-4.871 10.88-10.88 10.88z"></path>
				<path d="M3813.972 1983.089h-121.123c-6.009 0-10.88-4.871-10.88-10.88v-235.04c0-6.009 4.871-10.88 10.88-10.88h121.123c6.009 0 10.88 4.871 10.88 10.88v235.04c0 6.008-4.871 10.88-10.88 10.88zM3813.972 2239.889h-121.123c-6.009 0-10.88-4.871-10.88-10.88v-235.04c0-6.009 4.871-10.88 10.88-10.88h121.123c6.009 0 10.88 4.871 10.88 10.88v235.04c0 6.009-4.871 10.88-10.88 10.88zM3957.098 1212.689h-121.123c-6.009 0-10.88-4.871-10.88-10.88v-235.04c0-6.009 4.871-10.88 10.88-10.88h121.123c6.009 0 10.88 4.871 10.88 10.88v235.04c0 6.009-4.871 10.88-10.88 10.88z"></path>
				<path d="M3957.098 1469.489h-121.123c-6.009 0-10.88-4.871-10.88-10.88v-235.04c0-6.009 4.871-10.88 10.88-10.88h121.123c6.009 0 10.88 4.871 10.88 10.88v235.04c0 6.008-4.871 10.88-10.88 10.88z"></path>
				<path d="M3957.098 1726.289h-121.123c-6.009 0-10.88-4.871-10.88-10.88v-235.04c0-6.009 4.871-10.88 10.88-10.88h121.123c6.009 0 10.88 4.871 10.88 10.88v235.04c0 6.009-4.871 10.88-10.88 10.88z"></path>
				<path d="M3957.098 1983.089h-121.123c-6.009 0-10.88-4.871-10.88-10.88v-235.04c0-6.009 4.871-10.88 10.88-10.88h121.123c6.009 0 10.88 4.871 10.88 10.88v235.04c0 6.008-4.871 10.88-10.88 10.88zM3957.098 2239.889h-121.123c-6.009 0-10.88-4.871-10.88-10.88v-235.04c0-6.009 4.871-10.88 10.88-10.88h121.123c6.009 0 10.88 4.871 10.88 10.88v235.04c0 6.009-4.871 10.88-10.88 10.88zM4100.224 1212.689h-121.122c-6.009 0-10.88-4.871-10.88-10.88v-235.04c0-6.009 4.871-10.88 10.88-10.88h121.122c6.009 0 10.88 4.871 10.88 10.88v235.04c0 6.009-4.871 10.88-10.88 10.88z"></path>
				<path d="M4100.224 1469.489h-121.122c-6.009 0-10.88-4.871-10.88-10.88v-235.04c0-6.009 4.871-10.88 10.88-10.88h121.122c6.009 0 10.88 4.871 10.88 10.88v235.04c0 6.008-4.871 10.88-10.88 10.88z"></path>
				<path d="M4100.224 1726.289h-121.122c-6.009 0-10.88-4.871-10.88-10.88v-235.04c0-6.009 4.871-10.88 10.88-10.88h121.122c6.009 0 10.88 4.871 10.88 10.88v235.04c0 6.009-4.871 10.88-10.88 10.88z"></path>
				<path d="M4100.224 1983.089h-121.122c-6.009 0-10.88-4.871-10.88-10.88v-235.04c0-6.009 4.871-10.88 10.88-10.88h121.122c6.009 0 10.88 4.871 10.88 10.88v235.04c0 6.008-4.871 10.88-10.88 10.88zM4100.224 2239.889h-121.122c-6.009 0-10.88-4.871-10.88-10.88v-235.04c0-6.009 4.871-10.88 10.88-10.88h121.122c6.009 0 10.88 4.871 10.88 10.88v235.04c0 6.009-4.871 10.88-10.88 10.88z"></path>
			</g>
			<g fill="none" stroke="#573240" stroke-width="4" stroke-linecap="round" stroke-linejoin="round" stroke-miterlimit="10">
				<path d="M4181.943 936.012H2152.274l97.112-127.693h1835.445z"></path>
				<path d="M2377.625 936.012c0 62.257-50.444 112.734-112.671 112.734-62.227 0-112.68-50.477-112.68-112.734h225.351zM2602.977 936.012c0 62.257-50.444 112.734-112.671 112.734-62.236 0-112.68-50.477-112.68-112.734h225.351zM3053.679 936.012c0 62.257-50.453 112.734-112.681 112.734-62.227 0-112.671-50.477-112.671-112.734h225.352zM3280.759 936.012c0 62.257-50.453 112.734-112.681 112.734-62.227 0-112.671-50.477-112.671-112.734h225.352z"></path>
				<path d="M2828.328 936.012c0 62.257-50.444 112.734-112.68 112.734-62.227 0-112.671-50.477-112.671-112.734h225.351zM3506.111 936.012c0 62.257-50.444 112.734-112.671 112.734-62.227 0-112.68-50.477-112.68-112.734h225.351zM3731.462 936.012c0 62.257-50.444 112.734-112.671 112.734-62.236 0-112.68-50.477-112.68-112.734h225.351zM4182.165 936.012c0 62.257-50.454 112.734-112.681 112.734s-112.671-50.477-112.671-112.734h225.352z"></path>
				<path d="M3956.813 936.012c0 62.257-50.444 112.734-112.68 112.734-62.227 0-112.671-50.477-112.671-112.734h225.351z"></path>
			</g>
			<path fill="#E0F1F0" d="M3647.745 2823.129c0-41.21 33.407-74.617 74.617-74.617s74.617 33.407 74.617 74.617h-149.234z"></path>
			<path fill="#E0F1F0" d="M4670.266 2823.129h-873.44c-16.56-20.6-26.47-46.76-26.47-75.24 0-66.38 53.82-120.2 120.2-120.2 15.98 0 31.22 3.12 45.17 8.79 24.35-74.86 94.7-128.98 177.69-128.98 98.51 0 179.21 76.25 186.31 172.94 38.04-20.36 83.98-32.26 133.47-32.26 126.12 0 229.28 77.3 237.07 174.95z"></path>
			<path fill="none" stroke="#96CFCE" stroke-width="5" stroke-miterlimit="10" d="M3583.459 2823.129H4712.5"></path>
			<path fill="#96CFCE" d="M3852.391 2823.129s-1.559-96.441 104.799-136.619c0 0-9.915 79.7-83.74 136.619h-21.059z"></path>
			<path fill="none" stroke="#96CFCE" stroke-width="4" stroke-miterlimit="10" d="M3852.39 2671.809v151.096"></path>
			<path fill="#96CFCE" d="M3895.01 2632.988c1.455-10.006-2.178-18.557-10.575-22.044-9.136-3.796-21.499 7.535-31.928 15.411h-.008c-10.25-8.063-22.532-19.614-31.75-15.997-8.722 3.422-12.518 12.298-10.949 22.719-4.901-13.038-1.691-26.815 8.348-32.611 5.015-2.902 10.917-3.316 16.663-1.666 3.926-7.624 10.339-12.583 17.573-12.583 7.242 0 13.656 4.958 17.582 12.583 5.747-1.65 11.648-1.236 16.663 1.666 10.014 5.78 13.241 19.509 8.381 32.522z"></path>
			<path fill="#A9D8D5" d="M3887.843 2650.407c-9.022 13.208-23.556 21.532-35.7 21.402-12.241.13-26.856-8.51-35.691-22.06-10.811-16.582-8.885-34.212 4.3-39.39 9.218-3.617 23.404 1.828 31.749 15.997h.008c7.911-14.708 22.792-19.207 31.928-15.411 13.063 5.429 14.591 23.092 3.406 39.462z"></path>
			<circle fill="none" stroke="#96CFCE" stroke-width="4" stroke-miterlimit="10" cx="3879.738" cy="2560.904" r="9.5"></circle>
			<circle fill="none" stroke="#96CFCE" stroke-width="4" stroke-miterlimit="10" cx="3984.43" cy="2795.58" r="8"></circle>
			<circle fill="none" stroke="#96CFCE" stroke-width="4" stroke-miterlimit="10" cx="3773.003" cy="2767.574" r="8"></circle>
			<path fill="none" stroke="#96CFCE" stroke-width="5" stroke-miterlimit="10" d="M3806.749 2737.748s31.69 19.883 24.409 85.156"></path>
			<path fill="#96CFCE" d="M3755.466 2739.051c.736.59 1.498 1.121 2.285 1.591-3.392-2.903-5.293-6.41-5.078-10.09.482-8.382 11.749-14.821 25.859-15.233-2.664-13.862 1.173-26.259 9.25-28.551 3.446-.985 7.167.027 10.65 2.534a21.16 21.16 0 0 0-1.787-1.605c-8.738-7.006-21.16-6.033-27.739 2.171-3.418 4.262-4.588 9.64-3.697 14.802-5.232.252-10.227 2.562-13.645 6.825-6.585 8.212-4.836 20.549 3.902 27.556z"></path>
			<path fill="#A9D8D5" d="M3780.298 2748.314c12.31.563 23.062-3.457 27.452-9.566 5.009-5.612 6.597-16.981 3.372-28.874-4.12-15.259-14.57-25.599-23.34-23.106-8.077 2.292-11.914 14.689-9.25 28.551-14.11.412-25.377 6.851-25.859 15.233-.528 9.102 11.835 17.056 27.625 17.762z"></path>
			<path fill="#96CFCE" d="M1700.727 2469.449s-18.125-66.884-89.426-78.328c0 0 8.037 58.684 54.866 78.328h34.56zM1817.968 2470.874s31.763-48.181 95.76-52.251c0 0-11.519 34.629-40.95 52.251h-54.81zM1729.466 2470.874s-93.785-92.931-81.166-243.454c0 0 119.821 120.738 110.952 243.454h-29.786z"></path>
			<path fill="#96CFCE" d="M1796.908 2470.874s-1.559-96.441 104.799-136.619c0 0-9.915 79.7-83.74 136.619h-21.059z"></path>
			<path fill="none" stroke="#96CFCE" stroke-width="5" stroke-miterlimit="10" d="M1792.724 2425.594s-6.355 2.204-9.237 58.942M1769.767 2334.259v150.095"></path>
			<path fill="#573240" d="M1842.09 2399.755a25.391 25.391 0 0 1-1.614 2.656c2.199-4.475 2.748-8.829 1.202-12.34-3.513-8.001-16.672-8.93-30.366-2.579-2.488-14.888-10.684-25.226-19.271-23.609-3.666.683-6.87 3.458-9.301 7.588.33-.817.709-1.631 1.132-2.432 5.837-11.064 18.116-16.056 27.417-11.148 4.832 2.55 7.912 7.271 8.936 12.766 5.114-2.258 10.75-2.38 15.582.169 9.309 4.911 12.12 17.865 6.283 28.929z"></path>
			<path fill="#F1B104" d="M1821.625 2420.741c-11.611 6.447-23.396 7.646-29.833 3.749-6.85-3.113-12.513-13.518-13.746-26.741-1.599-16.958 4.669-32.115 13.995-33.866 8.587-1.617 16.783 8.721 19.271 23.609 13.694-6.351 26.853-5.421 30.366 2.579 3.82 8.686-5.153 22.416-20.053 30.67z"></path>
			<path fill="#573240" d="M1812.387 2295.438c1.455-10.006-2.178-18.557-10.575-22.044-9.136-3.796-21.5 7.535-31.928 15.411h-.008c-10.25-8.063-22.532-19.614-31.749-15.997-8.722 3.422-12.517 12.298-10.949 22.719-4.901-13.038-1.691-26.815 8.348-32.611 5.015-2.902 10.917-3.316 16.663-1.667 3.926-7.624 10.339-12.583 17.573-12.583 7.242 0 13.656 4.958 17.582 12.583 5.747-1.65 11.648-1.235 16.663 1.667 10.014 5.78 13.24 19.508 8.38 32.522z"></path>
			<path fill="#F1B104" d="M1805.22 2312.857c-9.022 13.208-23.556 21.532-35.7 21.402-12.241.13-26.856-8.51-35.692-22.06-10.811-16.582-8.884-34.212 4.3-39.39 9.218-3.617 23.404 1.827 31.749 15.997h.008c7.911-14.708 22.792-19.207 31.928-15.411 13.064 5.428 14.592 23.091 3.407 39.462z"></path>
			<path fill="none" stroke="#573240" stroke-width="5" stroke-linecap="round" stroke-miterlimit="10" d="M1709.13 2396.172s35.22 1.656 49.936 88.12"></path>
			<path fill="#573240" d="M1703.833 2353.632c-5.613-8.866-13.056-13.84-19.384-11.965-9.079 2.691-12.409 18.456-7.442 35.211a53.861 53.861 0 0 0 1.21 3.626 54.267 54.267 0 0 0-3.856 1.406c-16.184 6.578-26.424 19.024-22.858 27.793 2.306 5.692 9.87 8.443 19.328 7.861-11.829 3.108-23.569-.745-28-9.944-3.013-6.245-2.005-13.598 2.036-19.958-7.771-7.709-10.553-18.296-6.084-26.53 4.129-7.608 13.312-11.119 23.118-9.787 1.73-7.948 6.664-14.269 13.748-16.368 11.106-3.293 23.44 4.996 28.184 18.655z"></path>
			<path fill="#F1B104" d="M1709.871 2367.137c4.013 13.537 2.842 27.203-2.625 33.071-4.038 5.453-11.261 9.917-19.978 13.459-16.192 6.58-32.209 4.8-35.765-3.963-3.566-8.769 6.674-21.215 22.858-27.793a54.447 54.447 0 0 1 3.856-1.406 53.861 53.861 0 0 1-1.21-3.626c-4.967-16.755-1.637-32.52 7.442-35.211 9.072-2.689 20.455 8.713 25.422 25.469z"></path>
			<g fill="#E0F1F0">
				<path d="M1788.664 2729.46h-39.445c-76.17 0-137.918-61.748-137.918-137.918v-91.566h315.28v91.566c.001 76.17-61.747 137.918-137.917 137.918zM1930.972 2488.496h-324.061a9.032 9.032 0 0 1-9.032-9.032v-.984a9.031 9.031 0 0 1 9.032-9.031h324.061a9.031 9.031 0 0 1 9.032 9.031v.984a9.032 9.032 0 0 1-9.032 9.032zM1693.068 2804.082h151.747v19.047h-151.747zM1708.398 2791.954c0-27.589 22.365-49.954 49.954-49.954h21.179c27.589 0 49.954 22.365 49.954 49.954h-121.087z"></path>
			</g>
			<circle fill="none" stroke="#F1B104" stroke-width="4" stroke-miterlimit="10" cx="1915.015" cy="2396.968" r="10.286"></circle>
			<circle fill="none" stroke="#F1B104" stroke-width="4" stroke-miterlimit="10" cx="1635.993" cy="2447.562" r="10.286"></circle>
			<circle fill="none" stroke="#F1B104" stroke-width="4" stroke-miterlimit="10" cx="1737.116" cy="2234.353" r="8.5"></circle>
			<path fill="#FCD4D0" d="M2113.312 2011.097h-421.714l-130-317.529h421.714z"></path>
			<path fill="none" stroke="#573240" stroke-width="5" stroke-linecap="round" stroke-miterlimit="10" d="M1882.777 2011.097v864.017M1973.266 2875.114h-170.027M1651.838 1787.134h116.553M1663.838 1818.134h116.553M1675.727 1848.134h116.553M1687.727 1879.134h116.553M1700.727 1909.134h116.553M1712.727 1940.134h116.553M1887.838 1787.134h96.553M1899.838 1818.134h96.553M1911.727 1848.134h96.553M1923.727 1879.134h96.553M1936.727 1909.134h96.553M1948.727 1940.134h96.553"></path>
			<path fill="none" stroke="#FFF" stroke-width="7" stroke-linecap="round" stroke-miterlimit="10" d="M1889.46 1742.342c-91.576-35.834-167.345 0-167.345 0"></path>
			<path fill="none" stroke="#96CFCE" stroke-width="5" stroke-miterlimit="10" d="M287.5 2823.129h1795.812"></path>
			<path fill="none" stroke="#573240" stroke-width="5" stroke-linecap="round" stroke-miterlimit="10" d="M554.019 883.118h900v1707.364h-900z"></path>
			<path fill="#FF6E00" d="M576.75 883.12h853.57v1707.36H576.75z"></path>
			<path fill="#573240" d="M576.751 1218.536V882.312l853.571.806v83.389c0 14.749-9.921 27.653-24.174 31.444l-829.397 220.585z"></path>
			<path fill="none" stroke="#573240" stroke-width="5" stroke-linecap="round" stroke-miterlimit="10" d="M921.316 1674.836h-.1c-18.935 0-34.746 13.747-38.584 32.096-1 4.78-5.209 8.119-9.947 8.119H694.732c-4.731 0-8.933-3.335-9.93-8.108-3.275-15.681-15.294-28.003-30.531-31.26-4.669-.998-7.955-5.347-7.955-10.268v-602.509c0-4.915 3.275-9.272 7.94-10.267 15.381-3.28 27.488-15.794 30.638-31.682.956-4.824 5.182-8.216 9.953-8.216h177.739c4.77 0 8.996 3.39 9.952 8.212 3.155 15.915 15.297 28.446 30.72 31.701 4.673.986 7.959 5.348 7.96 10.27l.098 611.912zM921.316 2440.278h-.1c-18.935 0-34.746 13.747-38.584 32.096-1 4.78-5.209 8.119-9.947 8.119H694.732c-4.731 0-8.933-3.335-9.93-8.108-3.275-15.681-15.294-28.003-30.531-31.26-4.669-.998-7.955-5.347-7.955-10.268v-602.509c0-4.915 3.275-9.272 7.94-10.267 15.381-3.28 27.488-15.794 30.638-31.682.956-4.824 5.182-8.216 9.953-8.216h177.739c4.77 0 8.996 3.39 9.952 8.212 3.155 15.915 15.297 28.446 30.72 31.701 4.673.986 7.959 5.348 7.96 10.27l.098 611.912zM1367.394 1674.836h-.1c-18.935 0-34.746 13.747-38.584 32.096-1 4.78-5.209 8.119-9.947 8.119h-177.952c-4.731 0-8.933-3.335-9.93-8.108-3.275-15.681-15.294-28.003-30.531-31.26-4.669-.998-7.955-5.347-7.955-10.268v-602.509c0-4.915 3.275-9.272 7.939-10.267 15.381-3.28 27.488-15.794 30.638-31.682.956-4.824 5.182-8.216 9.953-8.216h177.739c4.77 0 8.996 3.39 9.952 8.212 3.155 15.915 15.297 28.446 30.72 31.701 4.673.986 7.959 5.348 7.96 10.27l.098 611.912zM1367.394 2440.278h-.1c-18.935 0-34.746 13.747-38.584 32.096-1 4.78-5.209 8.119-9.947 8.119h-177.952c-4.731 0-8.933-3.335-9.93-8.108-3.275-15.681-15.294-28.003-30.531-31.26-4.669-.998-7.955-5.347-7.955-10.268v-602.509c0-4.915 3.275-9.272 7.939-10.267 15.381-3.28 27.488-15.794 30.638-31.682.956-4.824 5.182-8.216 9.953-8.216h177.739c4.77 0 8.996 3.39 9.952 8.212 3.155 15.915 15.297 28.446 30.72 31.701 4.673.986 7.959 5.348 7.96 10.27l.098 611.912z"></path>
			<g fill="none" stroke="#573240" stroke-width="5" stroke-miterlimit="10">
				<path stroke-linecap="round" d="M504.669 2590.482h1000v77.324h-1000z"></path>
				<path stroke-linecap="round" d="M449.576 2667.805h1110.186v77.324H449.576z"></path>
				<path d="M399.125 2820.129v-74.324h1202.856v74.324"></path>
			</g>
			<path fill="#B2DDDA" d="M1487.869 883.043h-240.29c-.39-226.84-126.05-410.63-240.64-411.41 244.14.75 446.04 179.1 480.93 411.41z"></path>
			<path fill="#FFF" stroke="#B2DDDA" stroke-width="5" stroke-miterlimit="10" d="M982.869 475.133c-97.08 20.48-195.69 162.13-214.75 345.33-2.13 20.42-3.26 44.32-3.3 65.58h-238.95c33.88-225.64 222.33-400.37 457-410.91z"></path>
			<path fill="#B2DDDA" d="M1005.369 471.633v411.41h-240.55c.39-226.77 125.98-410.53 240.55-411.41z"></path>
			<path fill="#FFF" d="M1247.579 883.043v1.06h-242.21v-412.47c.2-.01.39-.01.58-.01h.25c.25 0 .49 0 .74.01 114.59.78 240.25 184.57 240.64 411.41z"></path>
			<path fill="#E0F1F0" d="M764.119 883.118c0 66.617-54.003 120.63-120.62 120.63s-120.63-54.013-120.63-120.63h241.25z"></path>
			<path fill="#96CFCE" d="M1005.369 883.118c0 66.617-54.003 120.63-120.62 120.63-66.627 0-120.63-54.013-120.63-120.63h241.25zM1487.869 883.118c0 66.617-54.013 120.63-120.63 120.63-66.617 0-120.62-54.013-120.62-120.63h241.25z"></path>
			<path fill="#E0F1F0" d="M1246.619 883.118c0 66.617-54.003 120.63-120.63 120.63-66.617 0-120.62-54.013-120.62-120.63h241.25z"></path>
			<g fill="none" stroke-width="5" stroke-linecap="round" stroke-miterlimit="10">
				<path stroke="#F1B104" d="M2065.239 1177.786V984.059c0-27.745-24.024-50.236-53.659-50.236h0c-29.635 0-53.659 22.492-53.659 50.236"></path>
				<g stroke="#F1B104">
					<path d="M1942.585 1123.243h44.796l28.044-104.812h-72.84zM1942.585 1018.431h-43.951l25.8 104.812h18.151z"></path>
				</g>
				<path stroke="#573240" d="M2025.123 1018.431h-136.187M1993.593 1123.243h-73.126M2015.425 1018.431l-16.996-15.523h-82.799l-16.996 15.523z"></path>
				<circle stroke="#573240" cx="1957.03" cy="1132.203" r="8.498"></circle>
				<circle stroke="#573240" cx="1957.03" cy="992.878" r="8.498"></circle>
				<path stroke="#573240" d="M2102.221 1177.786h-76.475"></path>
			</g>
			<path fill="#F1B104" d="m4565.1 2776.24-31.47 164.11-53.05 82.52c-20.63-54.7-61.02-58.41-61.02-58.41 8.79-62.99-27.08-188.22-27.08-188.22h172.62z"></path>
			<path fill="#573240" d="m4558.222 2812.093 6.874-35.853h-172.617l1.124 4.069z"></path>
			<path fill="#96CFCE" d="M4480.584 3022.873h-109.722s48.338-33.139 48.702-58.415c0 0 40.386 3.713 61.02 58.415zM4533.635 2940.345s32.435 23.25 16.058 82.528h-8.516s-2.409-39.741-41.818-29.207l34.276-53.321z"></path>
			<path fill="none" stroke="#573240" stroke-width="5" stroke-linecap="round" stroke-miterlimit="10" d="m4533.635 2940.345-53.051 82.528h-109.722M4541.177 3022.873h8.516"></path>
			<path fill="#F1B104" d="m4223.55 2776.24-36.4 164.11-62.92 82.52c-20.14-53.38-59.08-58.2-60.95-58.4 10.15-62.98-1.49-188.23-1.49-188.23h161.76z"></path>
			<path fill="#573240" d="m4216.222 2809.267 7.325-33.027h-161.758s-.143-2.058.244 2.628l154.189 30.399z"></path>
			<path fill="#96CFCE" d="M4124.229 3022.873h-109.722s48.337-33.139 48.702-58.415c-.001 0 40.385 3.713 61.02 58.415zM4187.15 2940.345s32.435 23.25 16.058 82.528h-8.516s-6.154-41.264-47.741-29.207l40.199-53.321z"></path>
			<path fill="none" stroke="#573240" stroke-width="5" stroke-linecap="round" stroke-miterlimit="10" d="m4187.15 2940.345-62.921 82.528h-109.722M4194.693 3022.873h8.515"></path>
			<path fill="#573240" d="M4004.677 2146.404h-128.169c-17.676 0-32.005-14.329-32.005-32.005v-36.211c0-17.676 14.329-32.005 32.005-32.005h128.169c17.676 0 32.005 14.329 32.005 32.005v36.211c0 17.675-14.329 32.005-32.005 32.005z"></path>
			<path fill="#F1B104" d="M4116.049 1585.422v96.877s-25.301 114.527-49.831 247.228l-.01.03-60.166 116.62-30.443 53.986c-16.213 0-15.149-25.517-12.9-41.465.933-6.62-4.248-12.521-10.933-12.521h-64.101c71.301-36.346 189.175-511.119 189.175-511.119a70.656 70.656 0 0 0 6.535 9.664l32.674 40.7z"></path>
			<path fill="none" stroke="#FFF" stroke-width="4.99995" stroke-linecap="round" stroke-linejoin="round" stroke-miterlimit="10" d="m3923.568 2046.881 16.984-16.983 16.984 16.983-16.984 16.984z"></path>
			<path fill="#FF6E00" d="m4274.573 2218.135-20.967 137.557s56.938 275.124-7.858 420.549h-184.722s-40.384-297.394-40.275-504.396c.079-158.544 95.298-589.547 95.298-589.547v-96.877l-32.675-40.7c-17.6-21.924-20.75-52.121-8.045-77.204l48.231-95.259a49.981 49.981 0 0 1 29.614-25.123l52.239-16.436 3.978 179.974 134.616-194.554 106.333 52.125-101.092 309.463s242.371 320.325 254.157 1098.533h-210.931l-117.901-558.105z"></path>
			<path fill="none" stroke="#573240" stroke-width="5" stroke-linecap="round" stroke-miterlimit="10" d="m4274.573 2218.135-53.936-281.651c-2.915-15.221-16.229-26.228-31.727-26.228M4095.441 1561.969a65.352 65.352 0 0 0 50.962 24.44"></path>
			<path fill="#F1B104" d="M4392.929 1530.441c2.284-7.7 12.576-9.12 16.859-2.327l70.796 112.259h-148.635a73.51 73.51 0 0 0-61.702 33.556l-46.737 72.187c-3.737 5.772-1.232 13.521 5.176 16.013l33.948 13.202a43.048 43.048 0 0 0 44.026-7.792l37.347-32.838 187.686 33.442c80.837 14.403 141.628-72.248 100.573-143.358l-119.602-207.159a123.367 123.367 0 0 0-55.395-48.137c-28.443-12.478-60.606 7.244-62.384 38.253l-1.956 122.699z"></path>
			<path fill="none" stroke="#573240" stroke-width="5" stroke-linecap="round" stroke-miterlimit="10" d="m4272.707 1702.512-31.428 48.541c-3.737 5.772-1.232 13.521 5.176 16.013M4293.436 1709.422l-31.427 48.541c-3.737 5.772-1.232 13.521 5.176 16.013M4315.153 1715.344l-31.428 48.541c-2.217 3.424-2.237 7.542-.55 10.847M4331.605 1743.002l23.85-24.022M4470.713 1640.373h47.209"></path>
			<path fill="#573240" d="M4326.974 1143.404c4.791 8.565 23.318-19.824 51.913 4.231 23.278 19.582 3.548 39.44 8.352 45.117s46.366 7.52 34.5 49.348c-13.74 48.431-83.933 36.667-92.842 27.941-8.91-8.726-68.913 4.936-68.913 4.936s-75.922 7.646-77.122-45.541c-1.085-48.141 42.797-43.234 42.797-45.854s-24.507-25.782-17.031-55.025c8.734-34.167 43.407-36.683 52.577-36.246 9.17.435 36.946-.438 65.769 51.093z"></path>
			<path fill="#F1B104" d="m4344.008 1316.121-134.616 194.555-3.978-179.975 44.263-13.928 17.768-80.57h50.354z"></path>
			<path fill="#F1B104" d="M4312.079 1193.595v38.55a31.059 31.059 0 0 1-20.622 29.253l-21.623 7.715c-9.605 3.427-19.886-3.033-20.965-13.174l-4.435-41.654a32.171 32.171 0 0 1 15.311-30.915l18.004-9.989a23.113 23.113 0 0 1 11.214-2.903c12.766.002 23.116 10.351 23.116 23.117z"></path>
			<path fill="none" stroke="#573240" stroke-width="5" stroke-linecap="round" stroke-miterlimit="10" d="M4280.821 1197.474c5.682-2.199 12.11-1.069 16.174 3.38M4242.219 1200.241c4.636-3.953 11.076-5.011 16.382-2.155 0 0 6.47 3.082 4.505 31.249"></path>
			<ellipse fill="#573240" cx="4287.507" cy="1211.804" rx="3.439" ry="5.404"></ellipse>
			<ellipse fill="#573240" cx="4251.97" cy="1213.778" rx="3.141" ry="4.936"></ellipse>
			<path fill="#FFF" d="M4323.85 1239.99c-7.29 12.01-19.52 21.17-35.87 26.47-11.75 3.81-23.42 4.49-27.3 4.37-5.99-.58-11.18-5.86-11.91-12.18l-3.18-30.72v-.05c.46-.03 39.4-2.7 64.66-15.25-.01.13-.01.26-.01.39v4.07c-2.771 1.31-5.78 2.55-9 3.72l4.57 32.41c4.99-3.49 9.6-7.83 13.28-13.23h4.76z"></path>
			<path fill="#F1B104" d="M4330.664 1239.988h-14.314a6.111 6.111 0 0 1-6.111-6.111v-20.854c0-7.042 5.709-12.751 12.751-12.751h7.674c10.052 0 18.2 8.148 18.2 18.2v3.316c0 10.051-8.149 18.2-18.2 18.2z"></path>
			<path fill="none" stroke="#573240" stroke-width="5" stroke-linecap="round" stroke-miterlimit="10" d="M4319.123 1222.73c0-6.952 5.635-12.587 12.587-12.587"></path>
			<g stroke="#573240" stroke-width="5" stroke-linecap="round" stroke-miterlimit="10">
				<path fill="#FFF" stroke-linejoin="round" d="m2024.47 2056.865-17.354 85.582a39.843 39.843 0 0 0 15.637 40.157l51.92 37.7a21.22 21.22 0 0 0 12.471 4.05h36.474c11.232 0 20.337-9.105 20.337-20.337v-16.382c0-14.415-11.686-26.101-26.101-26.101h0l19.106-13.302a51.973 51.973 0 0 0 20.644-29.729l7.807-30.407-140.941-31.231z"></path>
				<path fill="none" d="m2117.855 2161.535-5.078 27.871"></path>
			</g>
			<path fill="#573240" d="M2620.649 2951.203s-81.06 25.88-191 0c0 0-78.06 25.88-188 0l-.28.2c.43-3.57.59-7.21.47-10.89l-32.62-1003.61h427.02c0 474.14 56.08 466.18 60.06 648 3.98 181.82-75.65 366.3-75.65 366.3z"></path>
			<path fill="none" stroke="#F1B104" stroke-width="5" stroke-linecap="round" stroke-miterlimit="10" d="M2414.3 3022.874c13.393 0 23.695-11.839 21.844-25.103l-6.497-46.565s79.631-184.479 75.65-366.303c-3.982-181.824-60.055-73.861-60.055-547.999l48.88-32.313"></path>
			<path fill="#FFF" stroke="#F1B104" stroke-width="5" stroke-linecap="round" stroke-miterlimit="10" d="M2414.296 3022.873h-39.74 0a6.77 6.77 0 0 0-6.77-6.77h-27.61a6.77 6.77 0 0 0-6.77 6.77h0-150.75c0-5.63 3.46-10.69 8.72-12.68 25.08-9.5 48.82-32.24 51.99-58.79 84.54 21.7 186.28-.2 186.28-.2l6.5 46.57c1.85 13.26-8.46 25.1-21.85 25.1z"></path>
			<path fill="#FFF" stroke="#F1B104" stroke-width="5" stroke-linecap="round" stroke-miterlimit="10" d="M2605.296 3022.873h-39.85a8.109 8.109 0 0 0-8-6.77h-25.26c-4.03 0-7.36 2.93-8 6.77h-109.89c6.17 0 11.69-2.51 15.66-6.52a22.144 22.144 0 0 0 5.43-9.02c.21-.69.39-1.38.54-2.09.33-1.67.48-3.39.43-5.15-.03-.77-.1-1.54-.21-2.32l-6.5-46.57c109.94 25.88 191 0 191 0l6.5 46.57c1.85 13.26-8.46 25.1-21.85 25.1z"></path>
			<path fill="#573240" d="M2630.12 3020.41v7.97h-68.46v-6.03a4.57 4.57 0 0 0-4.21-2.75h-25.26c-1.8 0-3.38 1.02-4.13 2.56v6.22h-157v-4.17c0-2.54-2.07-4.61-4.61-4.61h-25.26c-2.54 0-4.61 2.07-4.61 4.61v4.17h-156.92v-7.97h150.56c1.58-4.54 5.9-7.81 10.97-7.81h25.26c5.07 0 9.39 3.27 10.97 7.81h143.79c1.59-4.62 5.94-7.81 10.98-7.81h25.26c5.04 0 9.38 3.19 10.97 7.81h61.7z"></path>
			<path fill="#FFF" stroke="#573240" stroke-width="5" stroke-linecap="round" stroke-linejoin="round" stroke-miterlimit="10" d="m2526.969 1223.423-119.21 1 12.54-40.49h88.86z"></path>
			<path fill="#FFF" stroke="#573240" stroke-width="5" stroke-linecap="round" stroke-linejoin="round" stroke-miterlimit="10" d="M2526.459 1159.483v5.25c0 10.63-8.62 19.25-19.25 19.25h-23.57l-1.6 7.56c-2.1 9.95-10.89 17.07-21.06 17.07h-48.3c-6.12 0-10.69-5.64-9.42-11.63l5.29-24.98c.66-3.09-1.69-5.99-4.85-5.99h-4.03c-2.56 0-4.34-2.56-3.44-4.96l15.93-42.38c2.9-7.73 12.11-10.94 19.19-6.69l56.3 33.78c3.24-3.41 7.82-5.53 12.89-5.53h6.67c10.63 0 19.25 8.62 19.25 19.25z"></path>
			<path fill="none" stroke="#573240" stroke-width="5" stroke-linecap="round" stroke-linejoin="round" stroke-miterlimit="10" d="M2494.715 1164.73c0-7.453 6.042-13.494 13.494-13.494"></path>
			<path fill="#573240" d="M2432.349 1114.983c-6.68-4.01-15.26-1.38-18.63 5.43-29.39-29.43 13.71-59.1 13.71-59.1 16.96 33.18 41.59 40.98 41.59 40.98-10.02-11.27 4.75-19.51 4.75-19.51 10.164 13.745 21.317 19.545 29.297 21.983 6.376 1.948 10.712 7.844 10.471 14.506l-.867 23.961h-11.71c-4.93 0-9.38 2.07-12.52 5.4a17.159 17.159 0 0 0-4.72 11.85v6.56h-4.6c-6.556 0-11.87-5.314-11.87-11.87v-8.95c0-6.37-3.33-12.29-8.79-15.57-.01-.01-.03-.02-.04-.03l-26.071-15.64z"></path>
			<g fill="#573240">
				<path d="m2434.453 1140.562-13.021-3.809a3.454 3.454 0 0 1-2.338-4.306l.196-.652a3.453 3.453 0 0 1 4.271-2.324l13.036 3.79a3.453 3.453 0 0 1 2.331 4.349l-.21.671a3.455 3.455 0 0 1-4.265 2.281z"></path>
				<ellipse transform="rotate(-75.972 2424.673 1149.53)" cx="2424.759" cy="1149.562" rx="6.479" ry="3.78"></ellipse>
			</g>
			<path fill="#F1B104" d="M2745.069 1821.373h-92.9l16.92 115.53h-459.87l-41.81 174.19-175.18-38.82 111.44-644.52c10.41-60.21 53.66-109.52 111.99-127.7l181.68-56.94 8.42-22.69h123.21l11.6 21.37 162.32 60.87c49.38 18.51 87.29 59 102.52 109.48l70.38 233.26c26.45 87.64-39.17 175.97-130.72 175.97z"></path>
			<g fill="none" stroke="#573240" stroke-width="5" stroke-linecap="round" stroke-miterlimit="10">
				<path d="m2209.219 1936.904 103.764-434.654M2494.122 1936.904v-187.631M2669.089 1936.904l-32.848-216 65.696-263.934"></path>
				<circle cx="2153.496" cy="2020.471" r="10"></circle>
				<circle cx="2142.496" cy="2061.47" r="10"></circle>
				<path d="M2232.592 1827.226c-37.336-9.319-58.178-54.635-46.552-101.217 11.626-46.582 51.318-76.789 88.655-67.471"></path>
			</g>
			<path fill="#F6ACC1" d="M3289.567 1559.651c-206.377.664-211.023-83.613-211.023-83.613l-133.271 189.086c-37.188 52.762-97.708 84.148-162.258 84.148h-138.46l-4.314-28.369 24.511-98.473 170.254-54.154 162.309-211.965a91.351 91.351 0 0 1 61.703-35.17l73.211-8.74c20.103-2.4 35.238-19.449 35.238-39.695v-43.526l48.442-13.935s67.35 99.539 83.94 157.935c26.573 93.541-10.282 186.471-10.282 186.471z"></path>
			<path fill="none" stroke="#FFF" stroke-width="5" stroke-linecap="round" stroke-miterlimit="10" d="m2666.752 1622.432 168.254-54.154M2876.417 1725.927a198.428 198.428 0 0 1-93.402 23.346h-136.46"></path>
			<path fill="#F6ACC1" d="M3421.619 2091.193s-39.149 244.199-17.914 306.576c21.235 62.378 138.401 246.871-4.272 562.188l-64.784 52.916-51.514-7.25s28.995-37.164 23.686-111.486c-5.309-74.322-92.687-525.499-92.687-525.499l85.055-277.445h122.43z"></path>
			<path fill="#F6ACC1" d="M3192.679 2438.623c67.69 302.27-121.43 521.5-121.43 521.5h-20.36c-14.76 0-28.24 8.36-34.8 21.59l-3.98 8.02a28.598 28.598 0 0 1-25.61 15.89h-34.6a67.65 67.65 0 0 0 26.37-48.24l71.08-866.19h249.84l-106.51 347.43z"></path>
			<path fill="none" stroke="#573240" stroke-width="5" stroke-linecap="round" stroke-miterlimit="10" d="m3302.189 2091.193-85.141 277.725"></path>
			<g fill="#FF6E00">
				<path d="m3084.209 2996.493-1 26.38h-7.49v-22.21c0-5.1-2.07-9.73-5.42-13.07a18.385 18.385 0 0 0-13.06-5.42c-7.22 0-13.77 4.2-16.79 10.75l-13.8 29.95h-113.67l20.5-7.27a67.303 67.303 0 0 0 18.42-9.98h34.6c10.86 0 20.78-6.16 25.61-15.89l3.98-8.02a38.836 38.836 0 0 1 34.8-21.59h20.36c8.17 6.3 12.96 26.04 12.96 36.37zM3414.646 2996.493l1.308 26.38h-7.49l-1.943-22.21c-.446-5.1-2.921-9.73-6.564-13.07-3.633-3.35-8.434-5.42-13.534-5.42-7.22 0-13.403 4.2-15.85 10.75l-11.18 29.95h-113.67l19.864-7.27c6.531-2.39 12.424-5.78 17.547-9.98h34.6c10.86 0 20.241-6.16 24.22-15.89l3.278-8.02c5.403-13.23 18.151-21.59 32.911-21.59h20.36c8.722 6.3 15.239 26.04 16.143 36.37z"></path>
			</g>
			<path fill="none" stroke="#573240" stroke-width="5" stroke-linecap="round" stroke-miterlimit="10" d="M3067.926 1317.079c31.708-3.682 59.539 21.103 59.539 53.025v161.463"></path>
			<path fill="#573240" d="m3430.43 1910.454-8.811 180.739h-372.27s55.477-425.86 21.9-467.84c-20.329-25.416-56-57.51-56-57.51l63.3-89.8s4.64 84.27 211.02 83.61l-10.301 44.299a23.67 23.67 0 0 0 6.283 22.062l57.741 57.978a300.208 300.208 0 0 1 87.138 226.462z"></path>
			<path fill="#F1B104" d="M3177.73 2020.471h-120.34c-24.264 0-41.855-23.119-35.384-46.505l17.142-61.947h159.391l14.925 63.315c5.433 23.049-12.054 45.137-35.734 45.137z"></path>
			<path fill="none" stroke="#FFF" stroke-width="5" stroke-linecap="round" stroke-miterlimit="10" d="m3275.146 1306.716-77.893 605.303h-159.391l35.164-278.317"></path>
			<g fill="none" stroke="#FFF" stroke-width="5" stroke-linecap="round" stroke-miterlimit="10">
				<circle cx="3107.057" cy="1901.545" r="10.475"></circle>
				<circle cx="3128.057" cy="1901.545" r="10.475"></circle>
			</g>
			<path fill="#FF6E00" d="M3496.18 1625.3h-211.3a23.65 23.65 0 0 1-5.61-21.35l10.3-44.3s36.85-92.93 10.28-186.47c-15.02-52.87-71.66-139.49-82.23-155.38 9.56-1.2 16.95-9.35 16.95-19.24v-1.51c0-10.72-8.69-19.41-19.4-19.41h-1.5c-5.69 0-10.81 2.5-14.31 6.45-29.72-11.06-23.05-37.14-23.05-37.14-8.21.18-15.29 5.66-21.05 13.76v-5.89c0-9.68 7.85-17.52 17.52-17.52h68.73c18.84 0 34.12 15.18 34.31 34.02.26 25.34 5.26 60.17 26.66 87.67 58.68 75.39 255.79 100.48 193.7 366.31z"></path>
			<path fill="#F6ACC1" d="M3234.57 1197.05v1.51c0 10.72-8.69 19.4-19.4 19.4h-16.5c-5.21 3.34-39.65 24.58-56.82 13.41-11.44-7.45 3.44-83.73 34.46-84.42 0 0-6.67 26.08 23.05 37.14 3.5-3.95 8.62-6.45 14.31-6.45h1.5c10.71 0 19.4 8.69 19.4 19.41z"></path>
			<path fill="none" stroke="#573240" stroke-width="4" stroke-linecap="round" stroke-miterlimit="10" d="M3206.012 1201.418c0-6.819 5.528-12.348 12.348-12.348M3159.112 1169.268c5.664.333 10.742 3.334 13.093 8.368"></path>
			<ellipse transform="rotate(-64.932 3160.34 1184.172)" fill="#573240" cx="3160.307" cy="1184.172" rx="5.532" ry="3.227"></ellipse>
			<path fill="none" stroke="#573240" stroke-width="4" stroke-linecap="round" stroke-miterlimit="10" d="M3201.413 1218.567s-16.744 11.174-33.514 15.434"></path>
			<circle fill="#FFF" cx="3206.34" cy="1220.492" r="8.044"></circle>
			<path fill="#F1B104" d="M1044.862 2875.114h56.843c1.132-6.75 6.45-11.868 12.842-11.868 6.4 0 11.718 5.118 12.85 11.868h168.078c5.799 0 8.037-7.542 3.177-10.707-22.099-14.393-48.639-38.842-57.111-64.038 0 0-105.821 16.87-182.772 5.826 0 0-19.066 3.753-13.907 68.919z"></path>
			<path fill="none" stroke="#573240" stroke-width="5" stroke-linecap="round" stroke-miterlimit="10" d="M1239.541 2800.369s-103.821 16.87-180.772 5.826M1044.862 2875.114h56.843c1.132-6.75 6.45-11.868 12.842-11.868 6.4 0 11.718 5.118 12.85 11.868h173.904M1210.93 2825.123s31.314-16.818 49.01-1.994M1221.93 2840.123s31.314-16.818 49.01-1.994"></path>
			<path fill="#F1B104" d="M713.862 2875.114h56.843c1.132-6.75 6.45-11.868 12.842-11.868 6.4 0 11.718 5.118 12.85 11.868h168.078c5.799 0 8.037-7.542 3.177-10.707-22.099-14.393-48.639-38.842-57.112-64.038 0 0-105.821 16.87-182.772 5.826.001 0-19.065 3.753-13.906 68.919z"></path>
			<path fill="none" stroke="#573240" stroke-width="5" stroke-linecap="round" stroke-miterlimit="10" d="M908.541 2800.369s-103.821 16.87-180.772 5.826M713.862 2875.114h56.843c1.132-6.75 6.45-11.868 12.842-11.868 6.4 0 11.718 5.118 12.85 11.868h173.904M879.93 2825.123s31.314-16.818 49.01-1.994M890.93 2840.123s31.314-16.818 49.01-1.994"></path>
			<path fill="#96CFCE" d="M1241.54 2800.37s-104.13 18.56-183.75 5.79c0 0-121.06-221.92-32.3-489.18l-11-237.1s-115.04 449.14-103.95 720.49c0 0-106.46 16.65-182.61 6.09 0 0-106.93-319.97 39.33-570.13 0 0 58.51-286.57 82.39-533.71 77.34 63.89 180.21 162.74 180.21 162.74l39.04-78.94 46.19 78.94 86.27-123.1c.04 3.99 11.11 995.84 40.18 1058.11z"></path>
			<path fill="none" stroke="#573240" stroke-width="5" stroke-linecap="round" stroke-miterlimit="10" d="m1013.356 2091.989 45.821-162.854c3.903-14.046 16.692-23.766 31.27-23.766"></path>
			<path fill="#573240" d="m934.57 1298.01 121.72 184.29 56.66-169.96 78.99 35.89s20.17 287.42 9.42 394.03l-86.27 123.1-46.19-78.94-39.04 78.94s-102.87-98.85-180.21-162.74v-233.1c0-54.86-44.01-99.59-98.86-100.49l183.78-71.02z"></path>
			<path fill="none" stroke="#FFF" stroke-width="5" stroke-miterlimit="10" d="m1029.864 1865.363 72.863-136.655-3.04-185.085-162.082-245.615"></path>
			<g fill="none" stroke="#FF6E00" stroke-width="4" stroke-miterlimit="10">
				<circle cx="1067.301" cy="1554.995" r="8.614"></circle>
				<circle cx="1067.301" cy="1606.677" r="8.614"></circle>
				<circle cx="1067.301" cy="1658.36" r="8.614"></circle>
				<circle cx="1067.301" cy="1710.043" r="8.614"></circle>
				<circle cx="1017.645" cy="1554.995" r="8.614"></circle>
				<circle cx="1017.645" cy="1606.677" r="8.614"></circle>
				<circle cx="1017.645" cy="1658.36" r="8.614"></circle>
				<circle cx="1017.645" cy="1710.043" r="8.614"></circle>
			</g>
			<path fill="#FFF" d="M934.57 1298.01c5.74-2.21 11.54-4.43 17.36-6.66l18.57-26.24 58.09 25.19 31.09-13.48-.22 12.23 53.49 23.29-56.66 169.96-121.72-184.29z"></path>
			<path fill="#573240" d="M1071.35 1290.62v23.4c0 4.29-3.99 7.06-7.34 5.1l-28.15-16.54a6.27 6.27 0 0 1-6.03 4.53h-.17a6.27 6.27 0 0 1-6.02-4.51l-28.12 16.52c-3.35 1.96-7.34-.81-7.34-5.1v-23.4c0-3.89 3.32-6.65 6.56-5.47l28.72 10.44a6.268 6.268 0 0 1 6.2-5.31h.17a6.26 6.26 0 0 1 6.2 5.33l28.76-10.46c3.25-1.18 6.56 1.58 6.56 5.47z"></path>
			<path fill="#FFF" d="m849.65 1580.81-46.41 85.15 46.41 36.66-19.43 162.74-76.66-32.52c-120.7-51.22-170.29-195.84-106.41-310.35l68.96-123.6a59.555 59.555 0 0 1 41.14-29.54c51.81 4.14 92.4 47.48 92.4 100.17v111.29zM1592.61 1555.91l-166.1 164.85c-49.58 47.99-128.62 46.9-176.86-2.45l-44.95-45.93-12.76-324.15 42.92 16.76a103.191 103.191 0 0 1 58.16 57.5l49.55 122.77 197.88-138.98c-15.25 11.66-18.94 46.77-7.68 84.27 12.66 42.21 39.45 71.47 59.84 65.36z"></path>
			<path fill="none" stroke="#573240" stroke-width="5" stroke-linecap="round" stroke-miterlimit="10" d="m1598.48 1550.398-105.934 106.453M1545.327 1405.969l-229.66 157.639"></path>
			<ellipse transform="rotate(-16.704 1569.354 1479.342)" fill="#573240" cx="1569.674" cy="1479.474" rx="38.532" ry="79.801"></ellipse>
			<path fill="#F1B104" d="M1544.873 1418.995a30.325 30.325 0 0 1 15.603-18.253l70.256-29.515 2.075 8.316a26.608 26.608 0 0 1-3.971 21.632l-3.221 3.732c-5.649 6.545-1.004 16.7 7.642 16.708l113.029.117c8.05.007 13.559 8.128 10.589 15.61l-27.343 68.883a48.069 48.069 0 0 1-43.625 30.323l-66.653 1.682c-42.343.851-77.387-32.728-78.346-75.069l-.307-13.58a96.049 96.049 0 0 1 4.272-30.586z"></path>
			<path fill="none" stroke="#573240" stroke-width="5" stroke-linecap="round" stroke-miterlimit="10" d="M1731.979 1492.589a48.064 48.064 0 0 1-34.26 15.441l-37.989.669M1741.743 1464.306c-8.935 12.585-22.096 17.768-37.219 18.099l-41.926.669M1753.881 1431.943a48.073 48.073 0 0 1-40.497 23.882l-47.833.669M1581.192 1471.884s26.363-.518 42.493-38.431"></path>
			<path fill="#573240" d="M971.84 1199.61c8.52-.22 16.52-.64 24.02-1.2a22.621 22.621 0 0 0-3.28 11.76v4.74c0 5.84-3.29 10.91-8.12 13.46-.19-7-4.49-12.96-10.57-15.56l-2.05-13.2z"></path>
			<path fill="#F1B104" d="m1059.76 1272.49-.08 4.33-31.09 13.48-58.09-25.19 7.21-10.19h-11.24c-11.87 0-21.49-9.62-21.49-21.49v-.57c0-11.87 9.62-21.48 21.49-21.48h.52c9.65 0 17.48 7.82 17.48 17.48v-.5c4.82-2.55 8.11-7.61 8.11-13.45v-4.74c0-4.3 1.2-8.33 3.28-11.76 28.12-2.09 49.2-6.23 63.74-10.09l8.78 70.22c.78 6.28-3 11.97-8.62 13.95z"></path>
			<path fill="none" stroke="#573240" stroke-width="4" stroke-linecap="round" stroke-miterlimit="10" d="m1061.191 1193.4-14.761 3.221a5.31 5.31 0 0 0-4.168 5.531l2.06 32.009"></path>
			<path fill="#FFF" d="M1013.34 1273.38c-13.95-2.81-25.94-9.71-35.27-18.46h6.1c6.4 5.17 13.46 8.7 20.61 11.04a16.701 16.701 0 0 1-2.98-9.3l-.36-23.92c-6.06-.96-11.84-2.41-16.98-4.49-.06-1.64-.34-3.22-.82-4.71 0 0 17.481 11.182 80.8 3.53l3.93 31.47c.99 7.8-5.1 14.69-12.97 14.69l-42.06.15z"></path>
			<path fill="none" stroke="#573240" stroke-width="4" stroke-linecap="round" stroke-miterlimit="10" d="M975.352 1234.16c0-6.427-5.21-11.638-11.638-11.638"></path>
			<g fill="#573240">
				<ellipse cx="1053.536" cy="1210.54" rx="3.703" ry="5.067"></ellipse>
				<ellipse cx="1021.108" cy="1213.58" rx="4.074" ry="5.574"></ellipse>
			</g>
			<path fill="#96CFCE" d="M956.45 1181.72c-5.57-6.49-2.97-16.55 5.04-19.54l92.02-34.32c6.45-2.41 13 3.29 11.51 10.01l-6.24 28.14 25.89 13.7s-35.16 17.88-112.9 19.9l-15.32-17.89z"></path>
			<path fill="#573240" d="m1058.781 1166.011-92.335 27.389-5.047-5.893 99.792-32.366z"></path>
		</g>
	</switch>
</svg>