<svg xmlns="http://www.w3.org/2000/svg" width="5000" height="3500" xml:space="preserve">
	<switch>
		<g>
			<path fill="transparent" d="M0 0h5000v3500H0z"></path>
			<g fill="none" stroke="#573240" stroke-width="4" stroke-linecap="round" stroke-linejoin="round" stroke-miterlimit="10">
				<path d="M4330.61 1673.073h39.051M4330.61 1694.073h39.051"></path>
			</g>
			<circle fill="#F1B104" cx="4479.346" cy="1686.751" r="115.631"></circle>
			<g fill="none" stroke="#FFF" stroke-width="4" stroke-linecap="round" stroke-linejoin="round" stroke-miterlimit="10">
				<path d="m4527.346 1705.578-44.052-102.835-45.948 101.132s38.607 25.529 90 1.703zM4514.232 1709.298l-37.595-90.311M4502.126 1713.018l-32.678-78.5M4488.004 1714.878l-26.398-63.415M4473.881 1714.878l-19.711-47.351M4458.75 1712.088l-11.935-28.67"></path>
			</g>
			<path fill="none" stroke="#FFF" stroke-width="5" stroke-linecap="round" stroke-miterlimit="10" d="M4416.346 1738.039h126"></path>
			<path fill="#82CDC5" d="M4446.178 1754.26h22.11v15.926h-22.11z"></path>
			<path fill="#FFF" d="M4468.289 1754.26h22.11v15.926h-22.11z"></path>
			<path fill="#FF6E00" d="M4490.399 1754.26h22.115v15.926h-22.115z"></path>
			<path fill="#F6ACC1" d="M3236.11 1671.114h1094.5v893.2h-1094.5z"></path>
			<g fill="none" stroke="#573240" stroke-width="4" stroke-linecap="round" stroke-linejoin="round" stroke-miterlimit="10">
				<path d="M3254.581 2564.316v-36.83h473.805v36.83M3290.194 2527.486v-33h402.579v33"></path>
			</g>
			<path fill="#FFF" d="M3651.194 2492.321h-319.421a9.344 9.344 0 0 1-9.344-9.345v-701.559c0-5.161 4.184-9.345 9.344-9.345h319.421a9.345 9.345 0 0 1 9.345 9.345v701.559a9.345 9.345 0 0 1-9.345 9.345z"></path>
			<path fill="#573240" d="M3617.239 2280.717h-251.51c-8.885 0-16.088-7.203-16.088-16.088v-449.592c0-8.885 7.203-16.088 16.088-16.088h251.51c8.885 0 16.088 7.203 16.088 16.088v449.592c0 8.885-7.203 16.088-16.088 16.088z"></path>
			<path fill="none" stroke="#FFF" stroke-width="4" stroke-linecap="round" stroke-linejoin="round" stroke-miterlimit="10" d="m3520.071 1907.856-28.587-51.318-28.039 51.318"></path>
			<path fill="#F1B104" d="M3568.156 1954.881h-153.489a8.756 8.756 0 0 1-8.756-8.756v-29.513a8.756 8.756 0 0 1 8.756-8.756h153.489a8.756 8.756 0 0 1 8.756 8.756v29.513a8.756 8.756 0 0 1-8.756 8.756z"></path>
			<circle fill="none" stroke="#F1B104" stroke-width="5" stroke-linecap="round" stroke-miterlimit="10" cx="3598.45" cy="2081.589" r="15.558"></circle>
			<g fill="none" stroke="#FFF" stroke-width="5" stroke-linecap="round" stroke-miterlimit="10">
				<path d="m3392.783 2100.639 194.42-194.42M3484.758 2052.604l77.644-77.644M3444.434 2091.793l16.203-16.203"></path>
			</g>
			<path fill="#573240" d="M4294.949 2280.717h-467.146c-9.311 0-16.859-7.548-16.859-16.859v-474.926c0-9.311 7.548-16.859 16.859-16.859h467.146c9.312 0 16.859 7.548 16.859 16.859v474.926c0 9.311-7.548 16.859-16.859 16.859z"></path>
			<g fill="none" stroke="#FFF" stroke-width="5" stroke-linecap="round" stroke-miterlimit="10">
				<path d="m3976.634 2173.234 231.865-231.866M4202.479 1999.791l12.609-12.608M4086.323 2115.947l101.779-101.778M3904.399 2025.041l92.599-92.599"></path>
			</g>
			<path fill="#A9D8D5" d="M3811.011 1772.073v55.745h-51.871z"></path>
			<path fill="#82CDC5" d="M3811.011 1827.818v44.37h-38.849c-7.192 0-13.021-5.83-13.021-13.021v-31.349h51.87z"></path>
			<path fill="#FFF" d="M3811.011 1772.073h51.871v55.746h-51.871z"></path>
			<path fill="#E0F1F0" d="M3811.011 1827.818h51.871v44.37h-51.871z"></path>
			<path fill="#FF8B33" d="M3862.881 1772.073h51.882v55.746h-51.882z"></path>
			<path fill="#FF6E00" d="M3862.881 1827.818h51.882v44.37h-51.882z"></path>
			<path fill="#A9D8D5" d="M3914.763 1772.073h51.871v55.746h-51.871z"></path>
			<path fill="#82CDC5" d="M3914.763 1827.818h51.871v44.37h-51.871z"></path>
			<path fill="#FFF" d="M3966.634 1772.073h51.871v55.746h-51.871z"></path>
			<path fill="#E0F1F0" d="M3966.634 1827.818h51.871v44.37h-51.871z"></path>
			<path fill="#FF8B33" d="M4018.505 1772.073h51.871v55.746h-51.871z"></path>
			<path fill="#FF6E00" d="M4018.505 1827.818h51.871v44.37h-51.871z"></path>
			<path fill="#A9D8D5" d="M4070.375 1772.073h51.871v55.746h-51.871z"></path>
			<path fill="#82CDC5" d="M4070.375 1827.818h51.871v44.37h-51.871z"></path>
			<path fill="#FFF" d="M4122.246 1772.073h51.871v55.746h-51.871z"></path>
			<path fill="#E0F1F0" d="M4122.246 1827.818h51.871v44.37h-51.871z"></path>
			<path fill="#FF8B33" d="M4174.117 1772.073h51.871v55.746h-51.871z"></path>
			<path fill="#FF6E00" d="M4174.117 1827.818h51.871v44.37h-51.871z"></path>
			<path fill="#A9D8D5" d="M4225.987 1772.073h51.871v55.746h-51.871z"></path>
			<path fill="#82CDC5" d="M4225.987 1827.818h51.871v44.37h-51.871z"></path>
			<path fill="#FFF" d="M4277.858 1772.073h51.871v55.746h-51.871z"></path>
			<path fill="#E0F1F0" d="M4277.858 1827.818h51.871v44.37h-51.871z"></path>
			<path fill="#FF8B33" d="M4381.61 1827.818h-51.881v-55.745z"></path>
			<path fill="#FF6E00" d="M4381.61 1827.818v31.349c0 7.192-5.83 13.021-13.021 13.021h-38.86v-44.37h51.881z"></path>
			<path fill="#A9D8D5" d="M3911.852 2564.314c0-32.204 26.109-58.302 58.313-58.302 14.159 0 27.148 5.055 37.248 13.455a85.256 85.256 0 0 1-1.147-13.996c0-47.304 38.352-85.656 85.667-85.656 40.431 0 74.323 28.015 83.307 65.696 12.827-4.157 26.899-6.441 41.653-6.441 47.564 0 88.027 23.782 102.943 56.949a96.266 96.266 0 0 1 12.936-.855c29.649 0 53.669 13.055 53.669 29.151h-474.589z"></path>
			<path fill="#FF6E00" d="M4205.464 2524.264c-5.386 9.313-16.541 14.911-16.541 14.911s-2.423-9.502 2.962-18.815 12.791-15.989 16.541-14.911c3.75 1.078 2.424 9.502-2.962 18.815zM3988.312 2461.685c8.683 12.064 6.891 28.201 6.891 28.201s-15.87-3.424-24.553-15.489-11.768-24.69-6.89-28.2c4.877-3.511 15.87 3.423 24.552 15.488z"></path>
			<path fill="#573240" d="M3990.665 2536.735c8.755 9.496 10.195 22.41 10.195 22.41s-12.755-2.481-21.51-11.977-13.32-19.529-10.195-22.41c3.124-2.881 12.754 2.481 21.51 11.977z"></path>
			<path fill="#FF6E00" d="M4088.201 2527.843c-8.381 9.274-21.612 13.719-21.612 13.719s2.645-14.011 11.026-23.285c8.381-9.274 16.4-12.941 19.324-10.299 2.923 2.641-.357 10.591-8.738 19.865z"></path>
			<path fill="#573240" d="M4268.025 2535.787c-3.272 9.106-12.345 14.181-12.345 14.181s-3.767-9.689-.494-18.795c3.272-9.106 8.8-15.455 12.345-14.181s3.766 9.689.494 18.795zM4180.426 2534.645c5.099 10.905 2.028 21.78 2.028 21.78s-11.339-6.805-16.438-17.709c-5.099-10.905-6.007-20.656-2.028-21.78 3.979-1.125 11.339 6.804 16.438 17.709zM4072.447 2494.675c1.201 17.345-6.906 33.757-6.906 33.757s-10.159-14.861-11.361-32.207c-1.201-17.346 2.26-30.279 7.009-30.608 4.749-.328 10.056 11.712 11.258 29.058zM4305.252 2512.463l130.955-.006-52.762-390.093h-.46z"></path>
			<path fill="none" stroke="#573240" stroke-width="4" stroke-linecap="round" stroke-linejoin="round" stroke-miterlimit="10" d="m4307.602 2511.457-10.998 51.859"></path>
			<path fill="#FF6E00" d="M4436.176 2512.465h244.22l-82.733-390.102h-214.22z"></path>
			<path fill="none" stroke="#573240" stroke-width="4" stroke-linecap="round" stroke-linejoin="round" stroke-miterlimit="10" d="m4689.427 2564.316-10.998-51.859h-242.222l6.999 51.859"></path>
			<g fill="none" stroke="#FFF" stroke-width="5" stroke-linecap="round" stroke-miterlimit="10">
				<path stroke-linejoin="round" d="M4613.479 2314.416c9.096 51.588-22.739 93.4-71.115 93.4-48.365 0-94.945-41.812-104.042-93.4-9.094-51.576 22.741-93.388 71.105-93.388l16.467 93.388 62.462-53.386c12.574 15.136 21.622 33.531 25.123 53.386z"></path>
				<path stroke-linejoin="round" d="m4594.057 2230.235-57.097 48.801-15.053-85.368c27.204.001 53.787 14.467 72.15 36.567z"></path>
				<ellipse transform="rotate(-39.538 4476.994 2306.972)" cx="4477.411" cy="2307.061" rx="12.371" ry="14.931"></ellipse>
				<ellipse transform="rotate(-47.521 4573.431 2355.98)" cx="4573.474" cy="2355.917" rx="11.257" ry="13.425"></ellipse>
				<path d="m4474.827 2271.664 16.372 9.516M4551.887 2324.108h21.244M4512.912 2331.6l16.793 12.023"></path>
				<path stroke-linejoin="round" d="m4477.411 2348.135 16.823-1.292"></path>
				<ellipse transform="rotate(-47.521 4538.646 2376.448)" stroke-linejoin="round" cx="4538.689" cy="2376.385" rx="5.441" ry="6.489"></ellipse>
				<ellipse transform="rotate(-47.521 4494.486 2249.767)" stroke-linejoin="round" cx="4494.527" cy="2249.705" rx="5.441" ry="6.489"></ellipse>
				<ellipse transform="rotate(-47.521 4560.85 2228.516)" stroke-linejoin="round" cx="4560.892" cy="2228.452" rx="5.441" ry="6.489"></ellipse>
				<ellipse transform="rotate(-47.521 4590.997 2310.36)" stroke-linejoin="round" cx="4591.039" cy="2310.297" rx="5.441" ry="6.489"></ellipse>
				<path stroke-linejoin="round" d="m4541.678 2232.22 6.092 13.485M4505.021 2365.96l8.619 16.367M4576.89 2288.984h15.189"></path>
			</g>
			<path fill="none" stroke="#573240" stroke-width="4" stroke-linecap="round" stroke-linejoin="round" stroke-miterlimit="10" d="M4073.113 1497.258v-196.401"></path>
			<path fill="#FDE5E3" d="M4327.777 1300.857h-503.169l251.585-122.789z"></path>
			<g fill="#FCD4D0">
				<path d="M3824.608 1300.857c0 17.644 22.527 31.947 50.317 31.947 27.789 0 50.317-14.303 50.317-31.947h-100.634zM3925.242 1300.857c0 17.644 22.528 31.947 50.317 31.947s50.317-14.303 50.317-31.947h-100.634zM4025.876 1300.857c0 17.644 22.527 31.947 50.317 31.947 27.789 0 50.317-14.303 50.317-31.947h-100.634zM4126.51 1300.857c0 17.644 22.527 31.947 50.317 31.947 27.789 0 50.317-14.303 50.317-31.947H4126.51zM4227.144 1300.857c0 17.644 22.527 31.947 50.317 31.947 27.789 0 50.317-14.303 50.317-31.947h-100.634z"></path>
			</g>
			<path fill="none" stroke="#573240" stroke-width="4" stroke-linecap="round" stroke-linejoin="round" stroke-miterlimit="10" d="M3527.086 1497.258v-196.401"></path>
			<path fill="#FDE5E3" d="M3781.75 1300.857h-503.169l251.585-122.789z"></path>
			<g fill="#FCD4D0">
				<path d="M3278.581 1300.857c0 17.644 22.527 31.947 50.317 31.947 27.789 0 50.317-14.303 50.317-31.947h-100.634zM3379.215 1300.857c0 17.644 22.527 31.947 50.317 31.947 27.789 0 50.317-14.303 50.317-31.947h-100.634zM3479.849 1300.857c0 17.644 22.527 31.947 50.317 31.947 27.789 0 50.317-14.303 50.317-31.947h-100.634z"></path>
				<path d="M3580.482 1300.857c0 17.644 22.528 31.947 50.317 31.947s50.317-14.303 50.317-31.947h-100.634zM3681.116 1300.857c0 17.644 22.527 31.947 50.317 31.947 27.789 0 50.317-14.303 50.317-31.947h-100.634z"></path>
			</g>
			<path fill="#F1B104" d="M4244.331 1539.007h-296.036a22.08 22.08 0 0 1-21.413-16.693l-5.8-23.056h350.463l-5.8 23.056a22.083 22.083 0 0 1-21.414 16.693z"></path>
			<path fill="#82CDC5" d="m3924.077 1498.673.1.39c-3.64-2.05-6.1-5.96-6.1-10.44 0-6.62 5.37-11.98 11.99-11.98 2.93 0 5.61 1.05 7.69 2.79 2.82-7.69 9.57-13.11 17.44-13.11 7.14 0 13.35 4.45 16.55 11.01 2.35-1.18 4.95-1.83 7.68-1.83 3.26 0 6.32.93 9 2.57 2.54-8.08 9.16-13.85 16.92-13.85 8.12 0 15 6.32 17.24 15a16.6 16.6 0 0 1 10.32-3.58c6.15 0 11.52 3.33 14.41 8.29 1.47-10.92 11.33-19.37 23.28-19.37 8.55 0 16.03 4.32 20.14 10.79 2.09-.58 4.3-.89 6.59-.89 6.93 0 13.17 2.85 17.48 7.37.58-11.69 9.35-20.97 20.1-20.97 8.72 0 16.15 6.11 18.95 14.67 4.01-3.38 9.25-5.43 14.98-5.43 11.06 0 20.29 7.62 22.43 17.74 3.42-5.09 10.04-8.53 17.65-8.53 2.54 0 4.98.38 7.22 1.09 3.78-8.36 11.49-14.08 20.38-14.08 8.85 0 16.52 5.67 20.32 13.97 8.68 2.53 15.13 9.71 15.91 18.38h-348.67z"></path>
			<circle fill="#82CDC5" cx="3980.973" cy="1454.783" r="6.08"></circle>
			<circle fill="#82CDC5" cx="4271.544" cy="1472.224" r="6.08"></circle>
			<circle fill="#82CDC5" cx="4159.533" cy="1458.674" r="6.08"></circle>
			<circle fill="#82CDC5" cx="4090.561" cy="1438.251" r="6.08"></circle>
			<path fill="#82CDC5" d="m3316.11 1499.254.1.39c-3.64-2.05-6.1-5.96-6.1-10.44 0-6.62 5.37-11.98 11.99-11.98 2.93 0 5.61 1.05 7.69 2.79 2.82-7.69 9.57-13.11 17.44-13.11 7.14 0 13.35 4.45 16.55 11.01 2.35-1.18 4.95-1.83 7.68-1.83 3.26 0 6.32.93 9 2.57 2.54-8.08 9.16-13.85 16.92-13.85 8.12 0 15 6.32 17.24 15a16.6 16.6 0 0 1 10.32-3.58c6.15 0 11.52 3.33 14.41 8.29 1.47-10.92 11.33-19.37 23.28-19.37 8.55 0 16.03 4.32 20.14 10.79 2.09-.58 4.3-.89 6.59-.89 6.93 0 13.17 2.85 17.48 7.37.58-11.69 9.35-20.97 20.1-20.97 8.72 0 16.15 6.11 18.95 14.67 4.01-3.38 9.25-5.43 14.98-5.43 11.06 0 20.29 7.62 22.43 17.74 3.42-5.09 10.04-8.53 17.65-8.53 2.54 0 4.98.38 7.22 1.09 3.78-8.36 11.49-14.08 20.38-14.08 8.85 0 16.52 5.67 20.32 13.97 8.68 2.53 15.13 9.71 15.91 18.38h-348.67z"></path>
			<path fill="#F1B104" d="M3639.364 1539.007h-296.036a22.08 22.08 0 0 1-21.413-16.693l-5.8-23.056h350.463l-5.8 23.056a22.083 22.083 0 0 1-21.414 16.693z"></path>
			<g fill="#82CDC5">
				<circle cx="3498.867" cy="1439.145" r="7.521"></circle>
				<circle cx="3665.291" cy="1473.544" r="6.419"></circle>
				<circle cx="3323.262" cy="1460.666" r="6.419"></circle>
				<circle cx="3289.929" cy="1514.085" r="6.419"></circle>
			</g>
			<g fill="none" stroke="#573240" stroke-width="4" stroke-linejoin="round" stroke-miterlimit="10">
				<path d="M3236.115 1497.258H4328.61v173.862M3309.081 1497.258v173.862M3382.047 1497.258v173.862M3455.014 1497.258v173.862M3527.98 1497.258v173.862M3600.947 1497.258v173.862M3673.913 1497.258v173.862M3746.879 1497.258v173.862M3819.846 1497.258v173.862M3892.812 1497.258v173.862M3965.779 1497.258v173.862M4038.745 1497.258v173.862M4111.711 1497.258v173.862M4184.678 1497.258v173.862M4257.644 1497.258v173.862"></path>
			</g>
			<path fill="#F1B104" d="M2032.587 1146.109h1203.527v1418.207H2032.587z"></path>
			<g fill="#FFF">
				<path d="M2303.846 1752.073h75v812.243h-75zM2864.846 1752.073h75v812.243h-75z"></path>
			</g>
			<path fill="none" stroke="#FFF" stroke-width="6" stroke-linecap="round" stroke-miterlimit="10" d="M2150.226 1651.293v93.246"></path>
			<path fill="#FF6E00" d="M2233.367 1801.426c0 15.242-6.183 29.046-16.176 39.039-9.984 9.994-23.788 16.176-39.03 16.176h-55.878c-30.494 0-55.215-24.722-55.215-55.215 0-15.242 6.183-29.046 16.176-39.039 9.994-9.984 23.797-16.167 39.04-16.167h55.878c30.483 0 55.205 24.722 55.205 55.206z"></path>
			<g fill="#FF6E00">
				<path d="M2233.367 1801.426c0 15.242-6.183 29.046-16.176 39.039-9.984 9.994-23.788 16.176-39.03 16.176h-24.124c-1.28 0-2.54-.047-3.801-.131 13.72-.934 26.057-6.892 35.201-16.046 9.993-9.993 16.176-23.797 16.176-39.039 0-29.205-22.677-53.105-51.377-55.076a57.03 57.03 0 0 1 3.801-.13h24.124c30.484.001 55.206 24.723 55.206 55.207zM2150.226 1856.511a57.6 57.6 0 0 1-3.82.131h-24.124c-30.494 0-55.215-24.722-55.215-55.215 0-15.242 6.183-29.046 16.176-39.039 9.994-9.984 23.797-16.167 39.04-16.167h24.124c1.279 0 2.559.047 3.82.13-13.72.934-26.076 6.893-35.229 16.036-9.993 9.993-16.176 23.797-16.176 39.039-.001 29.214 22.685 53.123 51.404 55.085z"></path>
			</g>
			<path fill="none" stroke="#FFF" stroke-width="5" stroke-linecap="round" stroke-miterlimit="10" d="M2233.367 1801.426c0 15.242-6.183 29.046-16.176 39.039-9.984 9.994-23.788 16.176-39.03 16.176h-24.124c-1.28 0-2.54-.047-3.801-.131 13.72-.934 26.057-6.892 35.201-16.046 9.993-9.993 16.176-23.797 16.176-39.039 0-29.205-22.677-53.105-51.377-55.076a57.03 57.03 0 0 1 3.801-.13h24.124c30.484.001 55.206 24.723 55.206 55.207zM2146.406 1856.642h-24.124c-30.494 0-55.215-24.722-55.215-55.215 0-15.242 6.183-29.046 16.176-39.039 9.994-9.984 23.797-16.167 39.04-16.167h26.124M2150.226 1746.351v110.16"></path>
			<path fill="#FFF" d="M2122.282 1856.642h58.463v11.984h-58.463z"></path>
			<path fill="none" stroke="#FFF" stroke-width="5" stroke-linecap="round" stroke-miterlimit="10" d="M2150.226 1746.351c-13.72.934-26.076 6.893-35.229 16.036-9.993 9.993-16.176 23.797-16.176 39.039 0 29.214 22.686 53.123 51.405 55.085"></path>
			<path fill="none" stroke="#FFF" stroke-width="6" stroke-linecap="round" stroke-miterlimit="10" d="M3095.017 1651.293v93.246"></path>
			<path fill="#FF6E00" d="M3178.158 1801.426c0 15.242-6.183 29.046-16.176 39.039-9.984 9.994-23.788 16.176-39.03 16.176h-55.879c-30.493 0-55.215-24.722-55.215-55.215 0-15.242 6.183-29.046 16.176-39.039 9.994-9.984 23.797-16.167 39.039-16.167h55.879c30.484 0 55.206 24.722 55.206 55.206z"></path>
			<g fill="#FF6E00">
				<path d="M3178.158 1801.426c0 15.242-6.183 29.046-16.176 39.039-9.984 9.994-23.788 16.176-39.03 16.176h-24.124c-1.28 0-2.541-.047-3.801-.131 13.72-.934 26.057-6.892 35.201-16.046 9.993-9.993 16.176-23.797 16.176-39.039 0-29.205-22.677-53.105-51.377-55.076a57.03 57.03 0 0 1 3.801-.13h24.124c30.484.001 55.206 24.723 55.206 55.207zM3095.017 1856.511a57.6 57.6 0 0 1-3.82.131h-24.124c-30.493 0-55.215-24.722-55.215-55.215 0-15.242 6.183-29.046 16.176-39.039 9.994-9.984 23.797-16.167 39.039-16.167h24.124c1.279 0 2.559.047 3.82.13-13.72.934-26.076 6.893-35.229 16.036-9.993 9.993-16.176 23.797-16.176 39.039 0 29.214 22.686 53.123 51.405 55.085z"></path>
			</g>
			<path fill="none" stroke="#FFF" stroke-width="5" stroke-linecap="round" stroke-miterlimit="10" d="M3178.158 1801.426c0 15.242-6.183 29.046-16.176 39.039-9.984 9.994-23.788 16.176-39.03 16.176h-24.124c-1.28 0-2.541-.047-3.801-.131 13.72-.934 26.057-6.892 35.201-16.046 9.993-9.993 16.176-23.797 16.176-39.039 0-29.205-22.677-53.105-51.377-55.076a57.03 57.03 0 0 1 3.801-.13h24.124c30.484.001 55.206 24.723 55.206 55.207zM3091.197 1856.642h-24.124c-30.493 0-55.215-24.722-55.215-55.215 0-15.242 6.183-29.046 16.176-39.039 9.994-9.984 23.797-16.167 39.039-16.167h26.124M3095.017 1746.351v110.16"></path>
			<path fill="#FFF" d="M3067.073 1856.642h58.463v11.984h-58.463z"></path>
			<path fill="none" stroke="#FFF" stroke-width="5" stroke-linecap="round" stroke-miterlimit="10" d="M3095.017 1746.351c-13.72.934-26.076 6.893-35.229 16.036-9.993 9.993-16.176 23.797-16.176 39.039 0 29.214 22.686 53.123 51.405 55.085"></path>
			<path fill="#573240" d="M2102.326 1913.995h138.872v456.11h-138.872z"></path>
			<path fill="none" stroke="#F1B104" stroke-width="5" stroke-miterlimit="10" d="M2171.762 1913.995v456.109M2241.198 2294.086h-138.872M2241.198 2218.068h-138.872M2241.198 2142.049h-138.872M2241.198 2066.031h-138.872M2241.198 1990.013h-138.872"></path>
			<path fill="#573240" d="M3002.495 1913.995h138.872v456.11h-138.872z"></path>
			<path fill="none" stroke="#F1B104" stroke-width="5" stroke-miterlimit="10" d="M3071.931 1913.995v456.109M3141.367 2294.086h-138.872M3141.367 2218.068h-138.872M3141.367 2142.049h-138.872M3141.367 2066.031h-138.872M3141.367 1990.013h-138.872"></path>
			<path fill="#573240" d="M2656.47 1239.443h519.747v213.382H2656.47z"></path>
			<path fill="none" stroke="#F1B104" stroke-width="5" stroke-miterlimit="10" d="M2721.439 1239.443v71.127h-64.969M2656.47 1310.57h64.969v71.128h-64.969M2656.47 1381.698h64.969v71.127M2786.407 1239.443v71.127h-64.968v-71.127M2721.439 1310.57h64.968v71.127h-64.968zM2721.439 1452.825v-71.127h64.968v71.127M2851.375 1239.443v71.127h-64.968v-71.127M2786.407 1310.57h64.968v71.127h-64.968zM2786.407 1452.825v-71.127h64.968v71.127M2916.344 1239.443v71.127h-64.969v-71.127M2851.375 1310.57h64.968v71.127h-64.968zM2851.375 1452.825v-71.127h64.969v71.127M2981.312 1239.443v71.127h-64.968v-71.127M2916.344 1310.57h64.968v71.127h-64.968zM2916.344 1452.825v-71.127h64.968v71.127M3046.281 1239.443v71.127h-64.969v-71.127M2981.312 1310.57h64.968v71.127h-64.968zM2981.312 1452.825v-71.127h64.969v71.127M3111.249 1239.443v71.127h-64.968v-71.127M3046.281 1310.57h64.968v71.127h-64.968zM3046.281 1452.825v-71.127h64.968v71.127M3176.217 1310.57h-64.968v-71.127M3176.217 1381.698h-64.968v-71.128h64.968M3111.249 1452.825v-71.127h64.968"></path>
			<path fill="#573240" d="M2094.596 1239.443h519.747v213.382h-519.747z"></path>
			<path fill="none" stroke="#F1B104" stroke-width="5" stroke-miterlimit="10" d="M2159.564 1239.443v71.127h-64.968M2094.596 1310.57h64.968v71.128h-64.968M2094.596 1381.698h64.968v71.127M2224.532 1239.443v71.127h-64.968v-71.127M2159.564 1310.57h64.968v71.127h-64.968zM2159.564 1452.825v-71.127h64.968v71.127M2289.501 1239.443v71.127h-64.969v-71.127M2224.532 1310.57h64.968v71.127h-64.968zM2224.532 1452.825v-71.127h64.969v71.127M2354.469 1239.443v71.127h-64.968v-71.127M2289.501 1310.57h64.968v71.127h-64.968zM2289.501 1452.825v-71.127h64.968v71.127M2419.438 1239.443v71.127h-64.969v-71.127M2354.469 1310.57h64.968v71.127h-64.968zM2354.469 1452.825v-71.127h64.969v71.127M2484.406 1239.443v71.127h-64.968v-71.127M2419.438 1310.57h64.968v71.127h-64.968zM2419.438 1452.825v-71.127h64.968v71.127M2549.374 1239.443v71.127h-64.968v-71.127M2484.406 1310.57h64.968v71.127h-64.968zM2484.406 1452.825v-71.127h64.968v71.127M2614.343 1310.57h-64.969v-71.127M2614.343 1381.698h-64.969v-71.128h64.969M2549.374 1452.825v-71.127h64.969"></path>
			<path fill="#573240" d="M1980.181 1460.647H1772.7a6.237 6.237 0 0 1-6.237-6.237v-207.481a6.237 6.237 0 0 1 6.237-6.237h207.481a6.237 6.237 0 0 1 6.237 6.237v207.481a6.236 6.236 0 0 1-6.237 6.237z"></path>
			<path fill="#FF6E00" d="M1956.433 1460.647H1768.69c-8.895 0-16.107-7.211-16.107-16.107v-187.742c0-8.896 7.211-16.107 16.107-16.107h187.742c8.896 0 16.107 7.211 16.107 16.107v187.742c0 8.896-7.211 16.107-16.106 16.107z"></path>
			<path fill="none" stroke="#573240" stroke-width="4" stroke-linejoin="round" stroke-miterlimit="10" d="M2032.837 1458.912h-60.298M1972.539 1242.427h60.298"></path>
			<path fill="none" stroke="#573240" stroke-width="4" stroke-linecap="round" stroke-linejoin="round" stroke-miterlimit="10" d="m1857.769 1343.77-19.824-66.126M1813.837 1279.667l34.921 60.633"></path>
			<path fill="#FFF" d="M1869.249 1412.83h-46.658l-26.023-72.53h98.705z"></path>
			<path fill="#573240" d="m1926.497 1340.303-26.024 72.527h-31.228l26.023-72.527z"></path>
			<path fill="none" stroke="#A9D8D5" stroke-width="5" stroke-linecap="round" stroke-miterlimit="10" d="M1794.833 1340.3h133.398"></path>
			<path fill="#FF6E00" d="M2786.665 2527.486h-329.637c-6.827 0-12.361-5.534-12.361-12.361V1806.73c0-6.827 5.534-12.361 12.361-12.361h329.637c6.826 0 12.361 5.534 12.361 12.361v708.395c0 6.827-5.534 12.361-12.361 12.361z"></path>
			<g fill="none" stroke="#F1B104" stroke-width="5" stroke-miterlimit="10">
				<path d="M2500.398 1873.995h64.585v75.564h-64.585zM2589.23 1873.995h64.585v75.564h-64.585zM2678.063 1873.995h64.585v75.564h-64.585zM2500.398 1976.229h64.585v75.564h-64.585zM2589.23 1976.229h64.585v75.564h-64.585zM2678.063 1976.229h64.585v75.564h-64.585z"></path>
			</g>
			<circle fill="none" stroke="#FFF" stroke-width="5" stroke-linecap="round" stroke-linejoin="round" stroke-miterlimit="10" cx="2745.255" cy="2132.964" r="17.917"></circle>
			<path fill="none" stroke="#FFF" stroke-width="5" stroke-linecap="round" stroke-miterlimit="10" d="M2378.846 2565.326v-36.83h486v36.83"></path>
			<path fill="#A9D8D5" d="M3037.35 1656.384h-831c109.42 0 188.16-57.43 234.77-142.3h361.46c46.61 84.871 125.35 142.3 234.77 142.3z"></path>
			<path fill="#573240" d="M2204.431 1713.033a131.194 131.194 0 0 0 94.23 39.9h646.38c35.51 0 69.5-14.39 94.22-39.9l53.9-61.74c-18.06 3.34-36.72 5.09-55.81 5.09h-831c-19.09 0-37.76-1.75-55.82-5.09l53.9 61.74z"></path>
			<path fill="none" stroke="#FFF" stroke-width="6" stroke-linecap="round" stroke-miterlimit="10" d="M3093.161 1651.293c-18.06 3.34-36.72 5.09-55.81 5.09h-831c-19.09 0-37.76-1.75-55.82-5.09"></path>
			<path fill="#A9D8D5" d="M3321.12 1073.685H1920.87c105.93-19.1 195.36-71.23 248.99-141.51h902.26c53.64 70.28 143.07 122.409 249 141.51z"></path>
			<path fill="#573240" d="M3320.622 1084.688c-18.357 37.584-56.528 61.421-98.356 61.421H2020.124c-41.828 0-79.999-23.837-98.356-61.421h1398.854z"></path>
			<path fill="none" stroke="#FFF" stroke-width="5" stroke-linecap="round" stroke-miterlimit="10" d="M2441.12 1514.084h361.46"></path>
			<path fill="#A9D8D5" d="M935.668 1686.382h1096.919v877.934H935.668z"></path>
			<path fill="none" stroke="#573240" stroke-width="4" stroke-linecap="round" stroke-linejoin="round" stroke-miterlimit="10" d="M2032.587 1721.534H935.668"></path>
			<path fill="#F1B104" d="M935.668 1656.482h1096.919v29.862H935.668z"></path>
			<circle fill="#FF6E00" cx="626.692" cy="2264.062" r="42.032"></circle>
			<path fill="#A9D8D5" d="M797.153 2371.874H688c-9.065 0-16.414 7.349-16.414 16.414h141.981c0-9.065-7.349-16.414-16.414-16.414zM551.153 2371.874H442c-9.065 0-16.414 7.349-16.414 16.414h141.981c0-9.065-7.349-16.414-16.414-16.414z"></path>
			<g fill="none" stroke="#573240" stroke-width="5" stroke-linecap="round" stroke-miterlimit="10">
				<path d="m899.911 2240.458-192.022 323.858M901.737 2564.316l-89.478-176.028H671.586"></path>
			</g>
			<g fill="none" stroke="#573240" stroke-width="5" stroke-linecap="round" stroke-miterlimit="10">
				<path d="m339.265 2240.458 192.022 323.858M337.439 2564.316l89.478-176.028H567.59"></path>
			</g>
			<g fill="none" stroke="#573240" stroke-width="5" stroke-linecap="round" stroke-miterlimit="10">
				<path d="M486.871 2304.465H768.57M627.72 2564.316v-259.851"></path>
			</g>
			<ellipse fill="#573240" cx="627.736" cy="2237.25" rx="20.513" ry="15.221"></ellipse>
			<path fill="#A9D8D5" d="M627.736 2247.588s-29.095 4.855-38.516-67.334c0 0 44.889 17.18 38.516 67.334zM629.736 2247.588s.971-31.365 45.829-24.88c0 0-13.178 22.94-45.829 24.88z"></path>
			<path fill="none" stroke="#573240" stroke-width="4" stroke-linecap="round" stroke-linejoin="round" stroke-miterlimit="10" d="m650.337 2205.851-22.601 44.243v-78.84"></path>
			<g fill="#F1B104">
				<ellipse cx="628.136" cy="2157.498" rx="14.312" ry="23.149"></ellipse>
				<ellipse transform="rotate(-45.001 638.177 2163.09)" cx="638.199" cy="2163.073" rx="23.149" ry="11.504"></ellipse>
				<ellipse transform="rotate(-45.001 617.246 2163.09)" cx="617.268" cy="2163.073" rx="11.504" ry="23.149"></ellipse>
			</g>
			<g fill="#F1B104">
				<ellipse transform="rotate(-42.532 658.297 2198.29)" cx="658.387" cy="2198.399" rx="17.427" ry="10.774"></ellipse>
				<ellipse transform="rotate(-87.53 660.383 2206.746)" cx="660.415" cy="2206.818" rx="8.66" ry="17.427"></ellipse>
				<ellipse transform="rotate(-87.53 649.733 2195.135)" cx="649.765" cy="2195.207" rx="17.427" ry="8.66"></ellipse>
			</g>
			<path fill="none" stroke="#573240" stroke-width="4" stroke-linecap="round" stroke-linejoin="round" stroke-miterlimit="10" d="M873.275 2068.291c0 17.229 13.967 31.197 31.197 31.197h0c17.229 0 31.197-13.967 31.197-31.197"></path>
			<path fill="#F6ACC1" d="M906.708 2001.772h-68.875l15.351 65.833h38.173z"></path>
			<path fill="none" stroke="#573240" stroke-width="4" stroke-linecap="round" stroke-linejoin="round" stroke-miterlimit="10" d="M828.341 2001.772H916.2M884.303 1978.934h-24.065c-4.106 0-7.96 1.983-10.346 5.325l-12.507 17.513h69.772l-12.507-17.513a12.718 12.718 0 0 0-10.347-5.325zM848.714 2067.605h47.113"></path>
			<path fill="#F1B104" d="M935.67 1686.38v227.61c0 21.99-28.08 39.82-62.71 39.82-34.64 0-62.71-17.83-62.71-39.82 0 21.99-28.08 39.82-62.71 39.82s-62.71-17.83-62.71-39.82c0 21.99-28.08 39.82-62.71 39.82s-62.71-17.83-62.71-39.82c0 21.99-28.08 39.82-62.71 39.82s-62.71-17.83-62.71-39.82c0 21.99-28.07 39.82-62.71 39.82-34.63 0-62.71-17.83-62.71-39.82l627.1-227.61z"></path>
			<path fill="none" stroke="#FFF" stroke-width="5" stroke-miterlimit="10" d="M935.668 1913.995H308.573"></path>
			<path fill="#FFF" d="M1024.355 1772.073h415.409v754.243h-415.409z"></path>
			<g fill="#573240">
				<path d="M1114.801 2081.42h-63.469a9.117 9.117 0 0 1-9.117-9.117v-118.732a9.117 9.117 0 0 1 9.117-9.117h63.469a9.117 9.117 0 0 1 9.117 9.117v118.732c-.001 5.035-4.083 9.117-9.117 9.117zM1208.099 2081.42h-63.469a9.117 9.117 0 0 1-9.117-9.117v-118.732a9.117 9.117 0 0 1 9.117-9.117h63.469a9.117 9.117 0 0 1 9.117 9.117v118.732c-.001 5.035-4.082 9.117-9.117 9.117zM1114.801 2230.02h-63.469a9.117 9.117 0 0 1-9.117-9.117v-118.732a9.117 9.117 0 0 1 9.117-9.117h63.469a9.117 9.117 0 0 1 9.117 9.117v118.732c-.001 5.035-4.083 9.117-9.117 9.117zM1208.099 2230.02h-63.469a9.117 9.117 0 0 1-9.117-9.117v-118.732a9.117 9.117 0 0 1 9.117-9.117h63.469a9.117 9.117 0 0 1 9.117 9.117v118.732c-.001 5.035-4.082 9.117-9.117 9.117zM1114.801 2378.62h-63.469a9.117 9.117 0 0 1-9.117-9.116v-118.732a9.117 9.117 0 0 1 9.117-9.117h63.469a9.117 9.117 0 0 1 9.117 9.117v118.732a9.118 9.118 0 0 1-9.117 9.116zM1208.099 2378.62h-63.469a9.117 9.117 0 0 1-9.117-9.116v-118.732a9.117 9.117 0 0 1 9.117-9.117h63.469a9.117 9.117 0 0 1 9.117 9.117v118.732a9.117 9.117 0 0 1-9.117 9.116zM1114.801 1935.018h-63.469a9.117 9.117 0 0 1-9.117-9.117v-118.732a9.117 9.117 0 0 1 9.117-9.117h63.469a9.117 9.117 0 0 1 9.117 9.117v118.732c-.001 5.035-4.083 9.117-9.117 9.117zM1208.099 1935.018h-63.469a9.117 9.117 0 0 1-9.117-9.117v-118.732a9.117 9.117 0 0 1 9.117-9.117h63.469a9.117 9.117 0 0 1 9.117 9.117v118.732c-.001 5.035-4.082 9.117-9.117 9.117z"></path>
			</g>
			<g fill="#573240">
				<path d="M1319.54 2081.42h-63.02a9.117 9.117 0 0 1-9.117-9.117v-118.732a9.117 9.117 0 0 1 9.117-9.117h63.02a9.117 9.117 0 0 1 9.117 9.117v118.732a9.117 9.117 0 0 1-9.117 9.117zM1413.287 2081.42h-63.02a9.117 9.117 0 0 1-9.117-9.117v-118.732a9.117 9.117 0 0 1 9.117-9.117h63.02a9.117 9.117 0 0 1 9.117 9.117v118.732a9.117 9.117 0 0 1-9.117 9.117zM1319.54 1935.018h-63.02a9.117 9.117 0 0 1-9.117-9.117v-118.732a9.117 9.117 0 0 1 9.117-9.117h63.02a9.117 9.117 0 0 1 9.117 9.117v118.732a9.117 9.117 0 0 1-9.117 9.117zM1413.287 1935.018h-63.02a9.117 9.117 0 0 1-9.117-9.117v-118.732a9.117 9.117 0 0 1 9.117-9.117h63.02a9.117 9.117 0 0 1 9.117 9.117v118.732a9.117 9.117 0 0 1-9.117 9.117zM1319.54 2230.02h-63.02a9.117 9.117 0 0 1-9.117-9.117v-118.732a9.117 9.117 0 0 1 9.117-9.117h63.02a9.117 9.117 0 0 1 9.117 9.117v118.732a9.117 9.117 0 0 1-9.117 9.117zM1413.287 2230.02h-63.02a9.117 9.117 0 0 1-9.117-9.117v-118.732a9.117 9.117 0 0 1 9.117-9.117h63.02a9.117 9.117 0 0 1 9.117 9.117v118.732a9.117 9.117 0 0 1-9.117 9.117zM1319.54 2378.62h-63.02a9.117 9.117 0 0 1-9.117-9.116v-118.732a9.117 9.117 0 0 1 9.117-9.117h63.02a9.117 9.117 0 0 1 9.117 9.117v118.732a9.116 9.116 0 0 1-9.117 9.116zM1413.287 2378.62h-63.02a9.117 9.117 0 0 1-9.117-9.116v-118.732a9.117 9.117 0 0 1 9.117-9.117h63.02a9.117 9.117 0 0 1 9.117 9.117v118.732a9.116 9.116 0 0 1-9.117 9.116z"></path>
			</g>
			<path fill="none" stroke="#A9D8D5" stroke-width="5" stroke-miterlimit="10" d="M1232.059 1772.073v755.413"></path>
			<path fill="none" stroke="#573240" stroke-width="4" stroke-linecap="round" stroke-linejoin="round" stroke-miterlimit="10" d="M993.401 2564.316v-36.83h473.805v36.83"></path>
			<circle fill="#FF6E00" cx="1192.338" cy="2087.916" r="17"></circle>
			<circle fill="#FF6E00" cx="1272.338" cy="2087.916" r="17"></circle>
			<path fill="#573240" d="M1539.879 1913.995h408v387.538h-408z"></path>
			<path fill="none" stroke="#FFF" stroke-width="5" stroke-linecap="round" stroke-miterlimit="10" d="M1524.868 1913.995h439.02v387.538h-439.02z"></path>
			<g fill="none" stroke="#FFF" stroke-width="5" stroke-linecap="round" stroke-miterlimit="10">
				<path d="m1628.17 2179.143 210.401-210.401M1744.267 2107.723l94.304-94.304M1689.556 2162.435l30.662-30.662"></path>
			</g>
			<path fill="#F6ACC1" d="M1966.754 2301.533v22.908c0 25.219-21.307 45.662-47.589 45.662h-348.821c-26.283 0-47.589-20.444-47.589-45.662v-22.908h443.999z"></path>
			<path fill="#96CFCE" d="M1757.348 2299.36s-10.125-37.362-49.954-43.755c0 0 4.489 32.781 30.649 43.755h19.305zM1880.327 2300.156s20.318-25.491 53.724-27.645c0 0-6.013 18.321-21.375 27.645h-32.349zM1825.402 2300.156s-52.389-51.912-45.34-135.996c0 0 66.933 67.445 61.979 135.996h-16.639z"></path>
			<path fill="#96CFCE" d="M1873.072 2300.156s-3.617-51.025 51.901-72.282c0 0-2.372 42.167-40.908 72.282h-10.993z"></path>
			<path fill="none" stroke="#96CFCE" stroke-width="4" stroke-miterlimit="10" d="M1850.914 2223.841v78.845M1868.738 2271.862s-8.577 4.012-8.16 30.926"></path>
			<path fill="#FFF" d="M1896.314 2263.428a14.247 14.247 0 0 1-.901 1.484c1.229-2.5 1.535-4.932.672-6.893-1.963-4.469-9.313-4.988-16.963-1.441-1.39-8.317-5.968-14.091-10.765-13.188-2.048.381-3.837 1.932-5.196 4.239.184-.456.396-.911.632-1.359 3.261-6.18 10.12-8.969 15.316-6.228 2.699 1.424 4.42 4.062 4.992 7.131 2.857-1.261 6.005-1.33 8.704.095 5.2 2.743 6.77 9.979 3.509 16.16z"></path>
			<path fill="#FF6E00" d="M1884.882 2275.151c-6.486 3.601-13.069 4.271-16.665 2.094-3.827-1.739-6.99-7.551-7.679-14.938-.893-9.473 2.608-17.94 7.818-18.918 4.797-.903 9.375 4.871 10.765 13.188 7.65-3.547 15-3.029 16.963 1.441 2.134 4.853-2.878 12.522-11.202 17.133zM1870.719 2219.885c-5.04 7.378-13.159 12.028-19.942 11.955-6.838.073-15.002-4.754-19.938-12.323-6.039-9.263-4.963-19.111 2.402-22.004 5.149-2.021 13.074 1.021 17.735 8.936h.005c4.419-8.216 12.732-10.729 17.835-8.609 7.297 3.034 8.15 12.901 1.903 22.045z"></path>
			<path fill="none" stroke="#573240" stroke-width="4" stroke-linecap="round" stroke-miterlimit="10" d="M1698.042 2247.427s29.767 9.847 34.895 53.225"></path>
			<path fill="#FFF" d="M1710.565 2223.84c-1.945-5.53-5.373-9.17-9.053-8.941-5.28.328-9.067 8.492-8.463 18.236.045.721.112 1.431.205 2.125-.747.065-1.505.157-2.275.282-9.635 1.553-16.768 7.046-15.925 12.266.542 3.387 4.315 5.833 9.537 6.701-6.829.21-12.737-3.358-13.997-8.921-.858-3.777.612-7.654 3.609-10.61-3.264-5.17-3.453-11.282.012-15.205 3.201-3.624 8.64-4.385 13.811-2.431 1.938-4.11 5.416-6.933 9.535-7.188 6.457-.401 12.132 5.656 13.004 13.686z"></path>
			<path fill="#FF6E00" d="M1712.16 2231.948c.489 7.872-1.861 15.165-5.572 17.674-2.881 2.463-7.373 3.988-12.561 4.824-9.639 1.554-18.135-1.422-18.973-6.638-.843-5.22 6.291-10.713 15.925-12.266.77-.125 1.529-.218 2.275-.282a30.284 30.284 0 0 1-.205-2.125c-.605-9.743 3.183-17.908 8.463-18.236 5.275-.328 10.043 7.306 10.648 17.049z"></path>
			<circle fill="none" stroke="#F1B104" stroke-width="4" stroke-miterlimit="10" cx="1934.051" cy="2254.871" r="5.746"></circle>
			<circle fill="none" stroke="#F1B104" stroke-width="4" stroke-miterlimit="10" cx="1727.625" cy="2238.988" r="5.746"></circle>
			<circle fill="none" stroke="#F1B104" stroke-width="4" stroke-miterlimit="10" cx="1660.957" cy="2260.617" r="5.746"></circle>
			<circle fill="none" stroke="#F1B104" stroke-width="4" stroke-miterlimit="10" cx="1556.132" cy="2284.562" r="5.746"></circle>
			<circle fill="none" stroke="#F1B104" stroke-width="4" stroke-miterlimit="10" cx="1830.675" cy="2169.033" r="5"></circle>
			<path fill="none" stroke="#96CFCE" stroke-width="4" stroke-miterlimit="10" d="M1767.459 2256.242s3.894 24.499 36.152 45.291"></path>
			<circle fill="#F1B104" cx="1764.136" cy="2254.224" r="21"></circle>
			<path fill="#96CFCE" d="M1646.348 2299.36s-3.299-54.524-43.778-67.486c0 0-2.649 53.688 37.473 67.486h6.305z"></path>
			<path fill="#96CFCE" d="M1642.839 2300.156s21.743-26.915 57.492-29.188c0 0-6.435 19.344-22.875 29.188h-34.617z"></path>
			<path fill="none" stroke="#96CFCE" stroke-width="4" stroke-miterlimit="10" d="M1641.914 2223.841v78.845"></path>
			<circle fill="#F1B104" cx="1642.298" cy="2218.068" r="21"></circle>
			<path fill="none" stroke="#96CFCE" stroke-width="4" stroke-miterlimit="10" d="M1574.459 2273.242s6.549 24.641 43.152 28.291"></path>
			<path fill="#FFF" d="M1590.217 2247.788c.054.586.072 1.165.054 1.736-.334-2.765-1.405-4.971-3.199-6.143-4.083-2.674-10.527.902-15.001 8.049-5.703-6.211-12.69-8.552-16.218-5.177-1.508 1.437-2.162 3.713-2.041 6.387a15.122 15.122 0 0 1-.212-1.483c-.64-6.958 3.586-13.038 9.436-13.576 3.039-.28 5.92.991 8.075 3.252 1.706-2.616 4.306-4.391 7.346-4.671 5.855-.539 11.12 4.667 11.76 11.626z"></path>
			<path fill="#FF6E00" d="M1587.034 2263.85c-3.47 6.557-8.621 10.711-12.822 10.849-4.156.631-9.978-2.513-14.586-8.328-5.917-7.451-7.604-16.457-3.772-20.119 3.527-3.374 10.515-1.033 16.218 5.177 4.474-7.147 10.918-10.723 15.001-8.049 4.435 2.902 4.42 12.064-.039 20.47z"></path>
			<path fill="none" stroke="#FFF" stroke-width="5" stroke-linecap="round" stroke-miterlimit="10" d="M1524.868 2301.533h439.02"></path>
			<path fill="#FFF" d="M1874.722 2210.155c.813-5.589-1.217-10.366-5.907-12.314-5.104-2.12-12.01 4.209-17.835 8.609h-.005c-5.726-4.504-12.586-10.956-17.735-8.936-4.872 1.912-6.992 6.87-6.116 12.691-2.738-7.283-.944-14.979 4.663-18.217 2.802-1.621 6.098-1.853 9.308-.931 2.193-4.259 5.776-7.029 9.817-7.029 4.046 0 7.628 2.77 9.821 7.029 3.21-.922 6.507-.69 9.308.931 5.594 3.229 7.396 10.898 4.681 18.167z"></path>
			<path fill="#F1B104" d="M1994.72 1913.99c0 21.99-28.08 39.82-62.71 39.82-34.64 0-62.71-17.83-62.71-39.82 0 21.99-28.08 39.82-62.71 39.82-34.64 0-62.71-17.83-62.71-39.82 0 21.99-28.08 39.82-62.71 39.82s-62.71-17.83-62.71-39.82c0 21.99-28.08 39.82-62.71 39.82s-62.71-17.83-62.71-39.82l42.52-141.92h416.64l42.52 141.92z"></path>
			<path fill="none" stroke="#FFF" stroke-width="5" stroke-linecap="round" stroke-miterlimit="10" d="M1493.037 1913.993h501.68M1535.557 1772.073h416.64"></path>
			<path fill="none" stroke="#573240" stroke-width="4" stroke-linejoin="round" stroke-miterlimit="10" d="M1056.121 1686.382v-59.723h345.4v59.723"></path>
			<path fill="#F6ACC1" d="M1438.009 1528.173v85.444c0 7.205-5.743 13.046-12.828 13.046H1032.46c-7.084 0-12.827-5.841-12.827-13.046v-85.444c25.183-43.975 109.294-89.62 209.188-89.62 99.885 0 184.006 45.644 209.188 89.62z"></path>
			<path fill="none" stroke="#573240" stroke-width="4" stroke-linecap="round" stroke-miterlimit="10" d="M1438.009 1528.173v85.444c0 7.205-5.743 13.046-12.828 13.046H1032.46c-7.084 0-12.827-5.841-12.827-13.046v-85.444c25.183-43.975 109.294-89.62 209.188-89.62 99.885 0 184.006 45.644 209.188 89.62z"></path>
			<g fill="none" stroke="#573240" stroke-width="5" stroke-linecap="round" stroke-miterlimit="10">
				<path d="M1159.724 1519.563h-6.753c-19.771 0-35.799 16.028-35.799 35.799v0a7.597 7.597 0 0 0 7.597 7.597h159.451"></path>
				<path d="M1209.679 1498.819h-10.01c-26.229 0-47.492 21.263-47.492 47.492v.355c0 8.999 7.295 16.294 16.294 16.294"></path>
				<path d="M1294.321 1511.89c-5.67-16.997-21.711-29.25-40.613-29.25h-9.922c-23.64 0-42.804 19.164-42.804 42.804v20.199c0 9.564 7.753 17.317 17.317 17.317"></path>
				<path d="M1258.15 1552.594v-10c0-16.957 13.746-30.703 30.703-30.703h2.905a46.13 46.13 0 0 1 37.715 19.569l8.773 12.457c5.638 8.006-.088 19.043-9.88 19.043h-59.849c-5.726 0-10.367-4.641-10.367-10.366z"></path>
			</g>
			<path fill="none" stroke="#573240" stroke-width="5" stroke-linecap="round" stroke-linejoin="round" stroke-miterlimit="10" d="M1153.821 1587.79h150"></path>
		</g>
	</switch>
</svg>